G04 Layer: BottomSilkLayer*
G04 EasyEDA v6.4.7, 2020-11-10T19:46:02+00:00*
G04 68ef014cab984e83be15227dbec4fbb5,fc2761ce2fcb42ad9aa58f7a23a2c2a4,10*
G04 Gerber Generator version 0.2*
G04 Scale: 100 percent, Rotated: No, Reflected: No *
G04 Dimensions in millimeters *
G04 leading zeros omitted , absolute positions ,3 integer and 3 decimal *
%FSLAX33Y33*%
%MOMM*%
G90*
D02*

%ADD10C,0.254000*%
%ADD30C,0.101600*%

%LPD*%
G54D10*
G01X46101Y41444D02*
G01X46101Y31538D01*
G01X43561Y31538D01*
G01X43561Y41698D01*
G01X46101Y41698D01*
G01X46101Y41444D01*
G01X74041Y11345D02*
G01X83947Y11345D01*
G01X83947Y8805D01*
G01X73787Y8805D01*
G01X73787Y11345D01*
G01X74041Y11345D01*
G01X74041Y19092D02*
G01X83947Y19092D01*
G01X83947Y16552D01*
G01X73787Y16552D01*
G01X73787Y19092D01*
G01X74041Y19092D01*
G01X74041Y26712D02*
G01X83947Y26712D01*
G01X83947Y24172D01*
G01X73787Y24172D01*
G01X73787Y26712D01*
G01X74041Y26712D01*
G54D30*
G01X57154Y37959D02*
G01X57154Y37230D01*
G01X57395Y37959D02*
G01X56910Y37959D01*
G01X56682Y37959D02*
G01X56197Y37230D01*
G01X56197Y37959D02*
G01X56682Y37230D01*
G01X57268Y35673D02*
G01X57268Y34944D01*
G01X57268Y35673D02*
G01X56956Y35673D01*
G01X56852Y35637D01*
G01X56819Y35602D01*
G01X56783Y35533D01*
G01X56783Y35465D01*
G01X56819Y35396D01*
G01X56852Y35361D01*
G01X56956Y35325D01*
G01X57268Y35325D01*
G01X57027Y35325D02*
G01X56783Y34944D01*
G01X56555Y35673D02*
G01X56070Y34944D01*
G01X56070Y35673D02*
G01X56555Y34944D01*
G01X57855Y33133D02*
G01X57855Y32404D01*
G01X57855Y33133D02*
G01X57543Y33133D01*
G01X57439Y33097D01*
G01X57406Y33062D01*
G01X57370Y32993D01*
G01X57370Y32925D01*
G01X57406Y32856D01*
G01X57439Y32821D01*
G01X57543Y32785D01*
G01X57855Y32785D01*
G01X57614Y32785D02*
G01X57370Y32404D01*
G01X56656Y33029D02*
G01X56725Y33097D01*
G01X56829Y33133D01*
G01X56969Y33133D01*
G01X57073Y33097D01*
G01X57141Y33029D01*
G01X57141Y32958D01*
G01X57106Y32889D01*
G01X57073Y32856D01*
G01X57004Y32821D01*
G01X56796Y32752D01*
G01X56725Y32716D01*
G01X56692Y32681D01*
G01X56656Y32612D01*
G01X56656Y32508D01*
G01X56725Y32440D01*
G01X56829Y32404D01*
G01X56969Y32404D01*
G01X57073Y32440D01*
G01X57141Y32508D01*
G01X56186Y33133D02*
G01X56186Y32404D01*
G01X56428Y33133D02*
G01X55943Y33133D01*
G01X57495Y30291D02*
G01X57530Y30362D01*
G01X57599Y30430D01*
G01X57670Y30466D01*
G01X57807Y30466D01*
G01X57876Y30430D01*
G01X57947Y30362D01*
G01X57980Y30291D01*
G01X58015Y30189D01*
G01X58015Y30014D01*
G01X57980Y29910D01*
G01X57947Y29841D01*
G01X57876Y29773D01*
G01X57807Y29737D01*
G01X57670Y29737D01*
G01X57599Y29773D01*
G01X57530Y29841D01*
G01X57495Y29910D01*
G01X57495Y30014D01*
G01X57670Y30014D02*
G01X57495Y30014D01*
G01X57266Y30466D02*
G01X57266Y29737D01*
G01X57266Y30466D02*
G01X56783Y29737D01*
G01X56783Y30466D02*
G01X56783Y29737D01*
G01X56555Y30466D02*
G01X56555Y29737D01*
G01X56555Y30466D02*
G01X56311Y30466D01*
G01X56207Y30430D01*
G01X56138Y30362D01*
G01X56103Y30291D01*
G01X56070Y30189D01*
G01X56070Y30014D01*
G01X56103Y29910D01*
G01X56138Y29841D01*
G01X56207Y29773D01*
G01X56311Y29737D01*
G01X56555Y29737D01*
G01X56677Y27878D02*
G01X56677Y27913D01*
G01X56644Y27982D01*
G01X56608Y28017D01*
G01X56540Y28053D01*
G01X56400Y28053D01*
G01X56331Y28017D01*
G01X56296Y27982D01*
G01X56263Y27913D01*
G01X56263Y27845D01*
G01X56296Y27776D01*
G01X56367Y27672D01*
G01X56712Y27324D01*
G01X56227Y27324D01*
G01X56517Y25513D02*
G01X56136Y25513D01*
G01X56344Y25236D01*
G01X56240Y25236D01*
G01X56169Y25201D01*
G01X56136Y25165D01*
G01X56100Y25061D01*
G01X56100Y24992D01*
G01X56136Y24888D01*
G01X56204Y24820D01*
G01X56308Y24784D01*
G01X56413Y24784D01*
G01X56517Y24820D01*
G01X56550Y24855D01*
G01X56585Y24924D01*
G01X56240Y22973D02*
G01X56585Y22488D01*
G01X56065Y22488D01*
G01X56240Y22973D02*
G01X56240Y22244D01*
G01X56169Y20433D02*
G01X56517Y20433D01*
G01X56550Y20121D01*
G01X56517Y20156D01*
G01X56413Y20189D01*
G01X56308Y20189D01*
G01X56204Y20156D01*
G01X56136Y20085D01*
G01X56100Y19981D01*
G01X56100Y19912D01*
G01X56136Y19808D01*
G01X56204Y19740D01*
G01X56308Y19704D01*
G01X56413Y19704D01*
G01X56517Y19740D01*
G01X56550Y19775D01*
G01X56585Y19844D01*
G01X56169Y17789D02*
G01X56204Y17857D01*
G01X56308Y17893D01*
G01X56377Y17893D01*
G01X56481Y17857D01*
G01X56550Y17753D01*
G01X56585Y17581D01*
G01X56585Y17408D01*
G01X56550Y17268D01*
G01X56481Y17200D01*
G01X56377Y17164D01*
G01X56344Y17164D01*
G01X56240Y17200D01*
G01X56169Y17268D01*
G01X56136Y17372D01*
G01X56136Y17408D01*
G01X56169Y17512D01*
G01X56240Y17581D01*
G01X56344Y17616D01*
G01X56377Y17616D01*
G01X56481Y17581D01*
G01X56550Y17512D01*
G01X56585Y17408D01*
G01X56100Y15353D02*
G01X56446Y14624D01*
G01X56585Y15353D02*
G01X56100Y15353D01*
G01X56413Y12813D02*
G01X56517Y12777D01*
G01X56550Y12709D01*
G01X56550Y12638D01*
G01X56517Y12569D01*
G01X56446Y12536D01*
G01X56308Y12501D01*
G01X56204Y12465D01*
G01X56136Y12396D01*
G01X56100Y12328D01*
G01X56100Y12224D01*
G01X56136Y12155D01*
G01X56169Y12120D01*
G01X56273Y12084D01*
G01X56413Y12084D01*
G01X56517Y12120D01*
G01X56550Y12155D01*
G01X56585Y12224D01*
G01X56585Y12328D01*
G01X56550Y12396D01*
G01X56481Y12465D01*
G01X56377Y12501D01*
G01X56240Y12536D01*
G01X56169Y12569D01*
G01X56136Y12638D01*
G01X56136Y12709D01*
G01X56169Y12777D01*
G01X56273Y12813D01*
G01X56413Y12813D01*
G01X56136Y10029D02*
G01X56169Y9925D01*
G01X56240Y9856D01*
G01X56344Y9821D01*
G01X56377Y9821D01*
G01X56481Y9856D01*
G01X56550Y9925D01*
G01X56585Y10029D01*
G01X56585Y10065D01*
G01X56550Y10169D01*
G01X56481Y10237D01*
G01X56377Y10273D01*
G01X56344Y10273D01*
G01X56240Y10237D01*
G01X56169Y10169D01*
G01X56136Y10029D01*
G01X56136Y9856D01*
G01X56169Y9684D01*
G01X56240Y9580D01*
G01X56344Y9544D01*
G01X56413Y9544D01*
G01X56517Y9580D01*
G01X56550Y9648D01*
G01X67296Y38742D02*
G01X68024Y38742D01*
G01X67296Y38742D02*
G01X67296Y38430D01*
G01X67331Y38326D01*
G01X67367Y38293D01*
G01X67435Y38257D01*
G01X67504Y38257D01*
G01X67572Y38293D01*
G01X67608Y38326D01*
G01X67643Y38430D01*
G01X67643Y38742D01*
G01X67643Y38501D02*
G01X68024Y38257D01*
G01X67296Y37752D02*
G01X68024Y38029D01*
G01X67296Y37752D02*
G01X68024Y37475D01*
G01X67781Y37925D02*
G01X67781Y37579D01*
G01X67296Y37246D02*
G01X68024Y37074D01*
G01X67296Y36901D02*
G01X68024Y37074D01*
G01X67296Y36901D02*
G01X68024Y36726D01*
G01X67296Y36553D02*
G01X68024Y36726D01*
G01X67647Y35481D02*
G01X67683Y35552D01*
G01X67752Y35621D01*
G01X67823Y35656D01*
G01X67960Y35656D01*
G01X68028Y35621D01*
G01X68100Y35552D01*
G01X68133Y35481D01*
G01X68168Y35380D01*
G01X68168Y35204D01*
G01X68133Y35100D01*
G01X68100Y35032D01*
G01X68028Y34963D01*
G01X67960Y34927D01*
G01X67823Y34927D01*
G01X67752Y34963D01*
G01X67683Y35032D01*
G01X67647Y35100D01*
G01X67647Y35204D01*
G01X67823Y35204D02*
G01X67647Y35204D01*
G01X67419Y35656D02*
G01X67419Y34927D01*
G01X67419Y35656D02*
G01X66936Y34927D01*
G01X66936Y35656D02*
G01X66936Y34927D01*
G01X66708Y35656D02*
G01X66708Y34927D01*
G01X66708Y35656D02*
G01X66464Y35656D01*
G01X66360Y35621D01*
G01X66291Y35552D01*
G01X66255Y35481D01*
G01X66222Y35380D01*
G01X66222Y35204D01*
G01X66255Y35100D01*
G01X66291Y35032D01*
G01X66360Y34963D01*
G01X66464Y34927D01*
G01X66708Y34927D01*
G01X68008Y33116D02*
G01X68008Y32387D01*
G01X68008Y33116D02*
G01X67696Y33116D01*
G01X67592Y33081D01*
G01X67559Y33045D01*
G01X67523Y32977D01*
G01X67523Y32908D01*
G01X67559Y32840D01*
G01X67592Y32804D01*
G01X67696Y32768D01*
G01X68008Y32768D01*
G01X67767Y32768D02*
G01X67523Y32387D01*
G01X66809Y33012D02*
G01X66878Y33081D01*
G01X66982Y33116D01*
G01X67122Y33116D01*
G01X67226Y33081D01*
G01X67294Y33012D01*
G01X67294Y32941D01*
G01X67259Y32873D01*
G01X67226Y32840D01*
G01X67157Y32804D01*
G01X66949Y32735D01*
G01X66878Y32700D01*
G01X66845Y32664D01*
G01X66809Y32596D01*
G01X66809Y32492D01*
G01X66878Y32423D01*
G01X66982Y32387D01*
G01X67122Y32387D01*
G01X67226Y32423D01*
G01X67294Y32492D01*
G01X66339Y33116D02*
G01X66339Y32387D01*
G01X66581Y33116D02*
G01X66095Y33116D01*
G01X68145Y31211D02*
G01X67868Y30482D01*
G01X67592Y31211D02*
G01X67868Y30482D01*
G01X66842Y31036D02*
G01X66878Y31107D01*
G01X66946Y31176D01*
G01X67015Y31211D01*
G01X67155Y31211D01*
G01X67223Y31176D01*
G01X67294Y31107D01*
G01X67327Y31036D01*
G01X67363Y30935D01*
G01X67363Y30759D01*
G01X67327Y30655D01*
G01X67294Y30587D01*
G01X67223Y30518D01*
G01X67155Y30482D01*
G01X67015Y30482D01*
G01X66946Y30518D01*
G01X66878Y30587D01*
G01X66842Y30655D01*
G01X66095Y31036D02*
G01X66129Y31107D01*
G01X66200Y31176D01*
G01X66268Y31211D01*
G01X66405Y31211D01*
G01X66476Y31176D01*
G01X66545Y31107D01*
G01X66581Y31036D01*
G01X66614Y30935D01*
G01X66614Y30759D01*
G01X66581Y30655D01*
G01X66545Y30587D01*
G01X66476Y30518D01*
G01X66405Y30482D01*
G01X66268Y30482D01*
G01X66200Y30518D01*
G01X66129Y30587D01*
G01X66095Y30655D01*
G01X65308Y29179D02*
G01X65585Y28450D01*
G01X65308Y29179D02*
G01X65031Y28450D01*
G01X65481Y28694D02*
G01X65135Y28694D01*
G01X64386Y29179D02*
G01X64734Y29179D01*
G01X64767Y28867D01*
G01X64734Y28903D01*
G01X64630Y28936D01*
G01X64526Y28936D01*
G01X64422Y28903D01*
G01X64353Y28831D01*
G01X64317Y28727D01*
G01X64317Y28659D01*
G01X64353Y28555D01*
G01X64422Y28486D01*
G01X64526Y28450D01*
G01X64630Y28450D01*
G01X64734Y28486D01*
G01X64767Y28522D01*
G01X64803Y28590D01*
G01X67975Y28036D02*
G01X68252Y27307D01*
G01X67975Y28036D02*
G01X67698Y27307D01*
G01X68148Y27551D02*
G01X67802Y27551D01*
G01X67401Y28036D02*
G01X67020Y28036D01*
G01X67226Y27760D01*
G01X67122Y27760D01*
G01X67053Y27724D01*
G01X67020Y27688D01*
G01X66984Y27584D01*
G01X66984Y27516D01*
G01X67020Y27412D01*
G01X67089Y27343D01*
G01X67193Y27307D01*
G01X67297Y27307D01*
G01X67401Y27343D01*
G01X67434Y27379D01*
G01X67470Y27447D01*
G01X65308Y26766D02*
G01X65585Y26037D01*
G01X65308Y26766D02*
G01X65031Y26037D01*
G01X65481Y26281D02*
G01X65135Y26281D01*
G01X64455Y26766D02*
G01X64803Y26281D01*
G01X64282Y26281D01*
G01X64455Y26766D02*
G01X64455Y26037D01*
G01X67848Y25369D02*
G01X68125Y24640D01*
G01X67848Y25369D02*
G01X67571Y24640D01*
G01X68021Y24884D02*
G01X67675Y24884D01*
G01X67307Y25194D02*
G01X67307Y25230D01*
G01X67274Y25298D01*
G01X67238Y25334D01*
G01X67170Y25369D01*
G01X67030Y25369D01*
G01X66962Y25334D01*
G01X66926Y25298D01*
G01X66893Y25230D01*
G01X66893Y25161D01*
G01X66926Y25093D01*
G01X66995Y24988D01*
G01X67343Y24640D01*
G01X66857Y24640D01*
G01X67975Y22829D02*
G01X68252Y22100D01*
G01X67975Y22829D02*
G01X67698Y22100D01*
G01X68148Y22344D02*
G01X67802Y22344D01*
G01X67470Y22690D02*
G01X67401Y22725D01*
G01X67297Y22829D01*
G01X67297Y22100D01*
G01X67721Y20416D02*
G01X67998Y19687D01*
G01X67721Y20416D02*
G01X67444Y19687D01*
G01X67894Y19931D02*
G01X67548Y19931D01*
G01X67007Y20416D02*
G01X67111Y20381D01*
G01X67180Y20277D01*
G01X67216Y20104D01*
G01X67216Y20000D01*
G01X67180Y19827D01*
G01X67111Y19723D01*
G01X67007Y19687D01*
G01X66939Y19687D01*
G01X66835Y19723D01*
G01X66766Y19827D01*
G01X66730Y20000D01*
G01X66730Y20104D01*
G01X66766Y20277D01*
G01X66835Y20381D01*
G01X66939Y20416D01*
G01X67007Y20416D01*
G01X67998Y17737D02*
G01X67929Y17772D01*
G01X67825Y17876D01*
G01X67825Y17147D01*
G01X67528Y17876D02*
G01X67147Y17876D01*
G01X67353Y17600D01*
G01X67249Y17600D01*
G01X67180Y17564D01*
G01X67147Y17528D01*
G01X67111Y17424D01*
G01X67111Y17356D01*
G01X67147Y17252D01*
G01X67216Y17183D01*
G01X67320Y17147D01*
G01X67424Y17147D01*
G01X67528Y17183D01*
G01X67561Y17219D01*
G01X67597Y17287D01*
G01X68125Y15197D02*
G01X68056Y15232D01*
G01X67952Y15336D01*
G01X67952Y14607D01*
G01X67688Y15161D02*
G01X67688Y15197D01*
G01X67655Y15265D01*
G01X67619Y15301D01*
G01X67551Y15336D01*
G01X67411Y15336D01*
G01X67343Y15301D01*
G01X67307Y15265D01*
G01X67274Y15197D01*
G01X67274Y15128D01*
G01X67307Y15060D01*
G01X67376Y14955D01*
G01X67724Y14607D01*
G01X67238Y14607D01*
G01X68067Y12657D02*
G01X67998Y12692D01*
G01X67894Y12796D01*
G01X67894Y12067D01*
G01X67665Y12657D02*
G01X67597Y12692D01*
G01X67492Y12796D01*
G01X67492Y12067D01*
G01X54724Y39630D02*
G01X53995Y39630D01*
G01X54724Y39630D02*
G01X54724Y39871D01*
G01X54689Y39975D01*
G01X54620Y40046D01*
G01X54549Y40079D01*
G01X54448Y40115D01*
G01X54272Y40115D01*
G01X54168Y40079D01*
G01X54100Y40046D01*
G01X54031Y39975D01*
G01X53995Y39871D01*
G01X53995Y39630D01*
G01X54724Y40585D02*
G01X53995Y40585D01*
G01X54724Y40344D02*
G01X54724Y40829D01*
G01X54724Y41057D02*
G01X53995Y41057D01*
G01X54724Y41057D02*
G01X54724Y41370D01*
G01X54689Y41471D01*
G01X54653Y41507D01*
G01X54585Y41542D01*
G01X54516Y41542D01*
G01X54448Y41507D01*
G01X54412Y41471D01*
G01X54376Y41370D01*
G01X54376Y41057D01*
G01X54376Y41299D02*
G01X53995Y41542D01*
G01X58627Y37787D02*
G01X57898Y37787D01*
G01X58627Y37545D02*
G01X58627Y38031D01*
G01X58627Y38259D02*
G01X57898Y38744D01*
G01X58627Y38744D02*
G01X57898Y38259D01*
G01X61098Y37617D02*
G01X60369Y37617D01*
G01X61098Y37617D02*
G01X61098Y37929D01*
G01X61063Y38033D01*
G01X61027Y38066D01*
G01X60959Y38102D01*
G01X60890Y38102D01*
G01X60822Y38066D01*
G01X60786Y38033D01*
G01X60750Y37929D01*
G01X60750Y37617D01*
G01X60750Y37858D02*
G01X60369Y38102D01*
G01X61098Y38330D02*
G01X60369Y38815D01*
G01X61098Y38815D02*
G01X60369Y38330D01*
G01X63638Y36766D02*
G01X62909Y37043D01*
G01X63638Y37319D02*
G01X62909Y37043D01*
G01X63463Y38069D02*
G01X63534Y38033D01*
G01X63603Y37965D01*
G01X63638Y37896D01*
G01X63638Y37756D01*
G01X63603Y37688D01*
G01X63534Y37617D01*
G01X63463Y37584D01*
G01X63362Y37548D01*
G01X63186Y37548D01*
G01X63082Y37584D01*
G01X63014Y37617D01*
G01X62945Y37688D01*
G01X62909Y37756D01*
G01X62909Y37896D01*
G01X62945Y37965D01*
G01X63014Y38033D01*
G01X63082Y38069D01*
G01X63463Y38815D02*
G01X63534Y38782D01*
G01X63603Y38711D01*
G01X63638Y38643D01*
G01X63638Y38506D01*
G01X63603Y38434D01*
G01X63534Y38366D01*
G01X63463Y38330D01*
G01X63362Y38297D01*
G01X63186Y38297D01*
G01X63082Y38330D01*
G01X63014Y38366D01*
G01X62945Y38434D01*
G01X62909Y38506D01*
G01X62909Y38643D01*
G01X62945Y38711D01*
G01X63014Y38782D01*
G01X63082Y38815D01*
G01X65749Y37518D02*
G01X65820Y37482D01*
G01X65889Y37413D01*
G01X65924Y37342D01*
G01X65924Y37205D01*
G01X65889Y37137D01*
G01X65820Y37065D01*
G01X65749Y37032D01*
G01X65648Y36997D01*
G01X65472Y36997D01*
G01X65368Y37032D01*
G01X65300Y37065D01*
G01X65231Y37137D01*
G01X65195Y37205D01*
G01X65195Y37342D01*
G01X65231Y37413D01*
G01X65300Y37482D01*
G01X65368Y37518D01*
G01X65472Y37518D01*
G01X65472Y37342D02*
G01X65472Y37518D01*
G01X65924Y37746D02*
G01X65195Y37746D01*
G01X65924Y37746D02*
G01X65195Y38229D01*
G01X65924Y38229D02*
G01X65195Y38229D01*
G01X65924Y38457D02*
G01X65195Y38457D01*
G01X65924Y38457D02*
G01X65924Y38701D01*
G01X65889Y38805D01*
G01X65820Y38874D01*
G01X65749Y38909D01*
G01X65648Y38942D01*
G01X65472Y38942D01*
G01X65368Y38909D01*
G01X65300Y38874D01*
G01X65231Y38805D01*
G01X65195Y38701D01*
G01X65195Y38457D01*
G01X69671Y40722D02*
G01X69600Y40757D01*
G01X69531Y40826D01*
G01X69496Y40897D01*
G01X69496Y41034D01*
G01X69531Y41103D01*
G01X69600Y41174D01*
G01X69671Y41207D01*
G01X69772Y41242D01*
G01X69948Y41242D01*
G01X70052Y41207D01*
G01X70120Y41174D01*
G01X70189Y41103D01*
G01X70224Y41034D01*
G01X70224Y40897D01*
G01X70189Y40826D01*
G01X70120Y40757D01*
G01X70052Y40722D01*
G01X69948Y40722D01*
G01X69948Y40897D02*
G01X69948Y40722D01*
G01X69496Y40493D02*
G01X70224Y40493D01*
G01X69496Y40493D02*
G01X70224Y40011D01*
G01X69496Y40011D02*
G01X70224Y40011D01*
G01X69496Y39782D02*
G01X70224Y39782D01*
G01X69496Y39782D02*
G01X69496Y39538D01*
G01X69531Y39434D01*
G01X69600Y39365D01*
G01X69671Y39330D01*
G01X69772Y39297D01*
G01X69948Y39297D01*
G01X70052Y39330D01*
G01X70120Y39365D01*
G01X70189Y39434D01*
G01X70224Y39538D01*
G01X70224Y39782D01*
G01X68902Y11149D02*
G01X68834Y11185D01*
G01X68729Y11289D01*
G01X68729Y10560D01*
G01X68292Y11289D02*
G01X68397Y11253D01*
G01X68465Y11149D01*
G01X68501Y10977D01*
G01X68501Y10872D01*
G01X68465Y10700D01*
G01X68397Y10596D01*
G01X68292Y10560D01*
G01X68224Y10560D01*
G01X68120Y10596D01*
G01X68051Y10700D01*
G01X68016Y10872D01*
G01X68016Y10977D01*
G01X68051Y11149D01*
G01X68120Y11253D01*
G01X68224Y11289D01*
G01X68292Y11289D01*
G01X66479Y12266D02*
G01X67208Y12543D01*
G01X66479Y12266D02*
G01X67208Y11989D01*
G01X66964Y12438D02*
G01X66964Y12093D01*
G01X66479Y11275D02*
G01X67208Y11620D01*
G01X66479Y11760D02*
G01X66479Y11275D01*
G01X64320Y12393D02*
G01X65049Y12669D01*
G01X64320Y12393D02*
G01X65049Y12116D01*
G01X64805Y12565D02*
G01X64805Y12220D01*
G01X64424Y11471D02*
G01X64356Y11506D01*
G01X64320Y11610D01*
G01X64320Y11679D01*
G01X64356Y11783D01*
G01X64460Y11852D01*
G01X64632Y11887D01*
G01X64805Y11887D01*
G01X64945Y11852D01*
G01X65013Y11783D01*
G01X65049Y11679D01*
G01X65049Y11643D01*
G01X65013Y11539D01*
G01X64945Y11471D01*
G01X64841Y11438D01*
G01X64805Y11438D01*
G01X64701Y11471D01*
G01X64632Y11539D01*
G01X64597Y11643D01*
G01X64597Y11679D01*
G01X64632Y11783D01*
G01X64701Y11852D01*
G01X64805Y11887D01*
G01X61955Y12784D02*
G01X61884Y12819D01*
G01X61816Y12888D01*
G01X61780Y12959D01*
G01X61780Y13096D01*
G01X61816Y13165D01*
G01X61884Y13236D01*
G01X61955Y13269D01*
G01X62057Y13305D01*
G01X62232Y13305D01*
G01X62336Y13269D01*
G01X62405Y13236D01*
G01X62473Y13165D01*
G01X62509Y13096D01*
G01X62509Y12959D01*
G01X62473Y12888D01*
G01X62405Y12819D01*
G01X62336Y12784D01*
G01X62232Y12784D01*
G01X62232Y12959D02*
G01X62232Y12784D01*
G01X61780Y12555D02*
G01X62509Y12555D01*
G01X61780Y12555D02*
G01X62509Y12073D01*
G01X61780Y12073D02*
G01X62509Y12073D01*
G01X61780Y11844D02*
G01X62509Y11844D01*
G01X61780Y11844D02*
G01X61780Y11600D01*
G01X61816Y11496D01*
G01X61884Y11427D01*
G01X61955Y11392D01*
G01X62057Y11359D01*
G01X62232Y11359D01*
G01X62336Y11392D01*
G01X62405Y11427D01*
G01X62473Y11496D01*
G01X62509Y11600D01*
G01X62509Y11844D01*
M00*
M02*
