G04 Layer: TopSilkLayer*
G04 EasyEDA v6.4.7, 2020-11-10T19:46:02+00:00*
G04 68ef014cab984e83be15227dbec4fbb5,fc2761ce2fcb42ad9aa58f7a23a2c2a4,10*
G04 Gerber Generator version 0.2*
G04 Scale: 100 percent, Rotated: No, Reflected: No *
G04 Dimensions in millimeters *
G04 leading zeros omitted , absolute positions ,3 integer and 3 decimal *
%FSLAX33Y33*%
%MOMM*%
G90*
D02*

%ADD10C,0.254000*%
%ADD17C,0.203200*%
%ADD28C,0.127000*%
%ADD29C,0.152400*%
%ADD30C,0.101600*%
%ADD31C,0.150012*%

%LPD*%
G54D10*
G01X54356Y1820D02*
G01X69977Y1820D01*
G01X69977Y5630D01*
G01X54229Y5630D01*
G01X54229Y1820D01*
G01X46228Y41825D02*
G01X46228Y31411D01*
G01X40767Y31411D01*
G01X40767Y41825D01*
G01X46228Y41825D01*
G01X74041Y23156D02*
G01X84074Y23156D01*
G01X84074Y26585D01*
G01X73914Y26585D01*
G01X73914Y23156D01*
G01X74041Y15536D02*
G01X84074Y15536D01*
G01X84074Y19092D01*
G01X73914Y19092D01*
G01X73914Y15536D01*
G01X83947Y11218D02*
G01X73787Y11218D01*
G01X73787Y7535D01*
G01X83947Y11218D02*
G01X83947Y7535D01*
G01X73914Y7535D01*
G01X40386Y10837D02*
G01X40386Y12107D01*
G01X39430Y5751D02*
G01X41339Y5752D01*
G01X40386Y5757D02*
G01X40386Y4487D01*
G01X41341Y5751D02*
G01X41341Y10831D01*
G01X39432Y10841D02*
G01X41339Y10841D01*
G01X39430Y5751D02*
G01X39430Y10831D01*
G01X43561Y10837D02*
G01X43561Y12107D01*
G01X42605Y5751D02*
G01X44514Y5752D01*
G01X43561Y5757D02*
G01X43561Y4487D01*
G01X44516Y5751D02*
G01X44516Y10831D01*
G01X42607Y10841D02*
G01X44514Y10841D01*
G01X42605Y5751D02*
G01X42605Y10831D01*
G01X46609Y10964D02*
G01X46609Y12234D01*
G01X45653Y5878D02*
G01X47562Y5879D01*
G01X46609Y5884D02*
G01X46609Y4614D01*
G01X47564Y5878D02*
G01X47564Y10958D01*
G01X45655Y10968D02*
G01X47562Y10968D01*
G01X45653Y5878D02*
G01X45653Y10958D01*
G01X74549Y32300D02*
G01X74549Y31030D01*
G01X75504Y37385D02*
G01X73595Y37384D01*
G01X74549Y37380D02*
G01X74549Y38650D01*
G01X73593Y37385D02*
G01X73593Y32305D01*
G01X75502Y32295D02*
G01X73595Y32295D01*
G01X75504Y37385D02*
G01X75504Y32305D01*
G01X52895Y42043D02*
G01X71195Y42042D01*
G01X71195Y8043D01*
G01X52895Y8043D01*
G01X52895Y42043D01*
G01X82219Y37507D02*
G01X82219Y33214D01*
G01X78841Y35348D02*
G01X81407Y35348D01*
G01X80619Y36262D02*
G01X80619Y34433D01*
G01X80594Y35373D02*
G01X79756Y36211D01*
G01X79756Y34484D01*
G01X80594Y35322D01*
G01X80619Y35322D01*
G01X79375Y36618D02*
G01X80314Y37557D01*
G01X79908Y37557D01*
G01X80314Y37557D02*
G01X80314Y37176D01*
G01X80238Y36465D02*
G01X81178Y37405D01*
G01X80772Y37405D01*
G01X81178Y37405D02*
G01X81178Y37024D01*
G54D28*
G01X31893Y2566D02*
G01X36082Y2566D01*
G01X32852Y4090D02*
G01X32583Y4090D01*
G01X35392Y4090D02*
G01X35123Y4090D01*
G01X23765Y2566D02*
G01X27954Y2566D01*
G01X24724Y4090D02*
G01X24455Y4090D01*
G01X27264Y4090D02*
G01X26995Y4090D01*
G01X28337Y8535D02*
G01X32526Y8535D01*
G01X29296Y10059D02*
G01X29027Y10059D01*
G01X31836Y10059D02*
G01X31567Y10059D01*
G54D10*
G01X44196Y27220D02*
G01X44069Y17187D01*
G01X39573Y17187D02*
G01X39624Y27220D01*
G01X39624Y27220D02*
G01X44119Y27220D01*
G01X44069Y17187D02*
G01X39573Y17187D01*
G01X18161Y28744D02*
G01X18161Y28998D01*
G01X10541Y28998D01*
G01X10541Y21886D01*
G01X18161Y21886D01*
G01X18161Y28744D01*
G01X4953Y41698D02*
G01X20753Y41698D01*
G01X20753Y31030D01*
G01X4953Y31030D01*
G01X4953Y41698D01*
G01X22606Y41698D02*
G01X38406Y41698D01*
G01X38406Y31030D01*
G01X22606Y31030D01*
G01X22606Y41698D01*
G01X7112Y27728D02*
G01X4572Y27728D01*
G01X4572Y22698D01*
G01X7112Y22698D01*
G01X7112Y27728D01*
G01X14605Y4118D02*
G01X1544Y4118D01*
G01X1544Y19219D01*
G01X14605Y19219D01*
G01X14605Y4118D01*
G01X21069Y2848D02*
G01X3568Y2848D01*
G01X3568Y20349D01*
G01X21069Y20349D01*
G01X21069Y2848D01*

%LPD*%
G36*
G01X34183Y40410D02*
G01X34096Y40410D01*
G01X34096Y39666D01*
G01X34178Y39666D01*
G01X34178Y40072D01*
G01X34177Y40130D01*
G01X34174Y40187D01*
G01X34170Y40244D01*
G01X34168Y40301D01*
G01X34173Y40301D01*
G01X34254Y40148D01*
G01X34533Y39666D01*
G01X34620Y39666D01*
G01X34620Y40410D01*
G01X34538Y40410D01*
G01X34538Y40006D01*
G01X34540Y39948D01*
G01X34543Y39890D01*
G01X34547Y39831D01*
G01X34551Y39775D01*
G01X34546Y39775D01*
G01X34465Y39927D01*
G01X34183Y40410D01*
G37*

%LPD*%
G36*
G01X33929Y40410D02*
G01X33505Y40410D01*
G01X33505Y39666D01*
G01X33939Y39666D01*
G01X33939Y39737D01*
G01X33588Y39737D01*
G01X33588Y40021D01*
G01X33873Y40021D01*
G01X33873Y40092D01*
G01X33588Y40092D01*
G01X33588Y40339D01*
G01X33929Y40339D01*
G01X33929Y40410D01*
G37*

%LPD*%

%LPD*%
G36*
G01X14752Y40156D02*
G01X14665Y40156D01*
G01X14665Y39412D01*
G01X14747Y39412D01*
G01X14747Y39818D01*
G01X14746Y39876D01*
G01X14743Y39933D01*
G01X14739Y39990D01*
G01X14737Y40047D01*
G01X14742Y40047D01*
G01X14823Y39894D01*
G01X15102Y39412D01*
G01X15189Y39412D01*
G01X15189Y40156D01*
G01X15107Y40156D01*
G01X15107Y39752D01*
G01X15108Y39694D01*
G01X15112Y39636D01*
G01X15116Y39577D01*
G01X15120Y39521D01*
G01X15115Y39521D01*
G01X15034Y39673D01*
G01X14752Y40156D01*
G37*

%LPD*%
G36*
G01X14498Y40156D02*
G01X14074Y40156D01*
G01X14074Y39412D01*
G01X14508Y39412D01*
G01X14508Y39483D01*
G01X14157Y39483D01*
G01X14157Y39767D01*
G01X14442Y39767D01*
G01X14442Y39838D01*
G01X14157Y39838D01*
G01X14157Y40085D01*
G01X14498Y40085D01*
G01X14498Y40156D01*
G37*

%LPD*%

%LPD*%
G36*
G01X14823Y32639D02*
G01X14640Y32639D01*
G01X14640Y31895D01*
G01X14825Y31895D01*
G01X14880Y31898D01*
G01X14930Y31906D01*
G01X14974Y31921D01*
G01X15015Y31940D01*
G01X15051Y31965D01*
G01X15082Y31995D01*
G01X15108Y32030D01*
G01X15130Y32069D01*
G01X15147Y32114D01*
G01X15159Y32162D01*
G01X15166Y32214D01*
G01X15168Y32271D01*
G01X15166Y32327D01*
G01X15159Y32379D01*
G01X15147Y32427D01*
G01X15130Y32470D01*
G01X15108Y32509D01*
G01X15082Y32543D01*
G01X15050Y32572D01*
G01X15014Y32596D01*
G01X14973Y32614D01*
G01X14928Y32628D01*
G01X14878Y32636D01*
G01X14823Y32639D01*
G37*

%LPC*%
G36*
G01X14815Y32571D02*
G01X14724Y32571D01*
G01X14724Y31964D01*
G01X14815Y31964D01*
G01X14879Y31969D01*
G01X14933Y31985D01*
G01X14979Y32010D01*
G01X15016Y32046D01*
G01X15045Y32090D01*
G01X15066Y32143D01*
G01X15078Y32203D01*
G01X15082Y32271D01*
G01X15078Y32338D01*
G01X15066Y32397D01*
G01X15045Y32448D01*
G01X15016Y32491D01*
G01X14979Y32525D01*
G01X14933Y32550D01*
G01X14879Y32565D01*
G01X14815Y32571D01*
G37*

%LPD*%
G36*
G01X13995Y32639D02*
G01X13909Y32639D01*
G01X13909Y31895D01*
G01X13990Y31895D01*
G01X13990Y32302D01*
G01X13989Y32359D01*
G01X13986Y32416D01*
G01X13982Y32473D01*
G01X13980Y32530D01*
G01X13985Y32530D01*
G01X14066Y32378D01*
G01X14345Y31895D01*
G01X14432Y31895D01*
G01X14432Y32639D01*
G01X14351Y32639D01*
G01X14351Y32236D01*
G01X14352Y32178D01*
G01X14355Y32119D01*
G01X14359Y32061D01*
G01X14363Y32004D01*
G01X14358Y32004D01*
G01X14277Y32157D01*
G01X13995Y32639D01*
G37*

%LPD*%
G36*
G01X13578Y32644D02*
G01X13507Y32652D01*
G01X13459Y32649D01*
G01X13414Y32640D01*
G01X13373Y32625D01*
G01X13333Y32605D01*
G01X13298Y32579D01*
G01X13266Y32548D01*
G01X13238Y32512D01*
G01X13216Y32472D01*
G01X13197Y32427D01*
G01X13183Y32377D01*
G01X13175Y32323D01*
G01X13172Y32266D01*
G01X13178Y32181D01*
G01X13196Y32105D01*
G01X13226Y32039D01*
G01X13265Y31985D01*
G01X13313Y31941D01*
G01X13369Y31908D01*
G01X13433Y31889D01*
G01X13502Y31882D01*
G01X13573Y31889D01*
G01X13636Y31906D01*
G01X13689Y31933D01*
G01X13731Y31966D01*
G01X13731Y32276D01*
G01X13489Y32276D01*
G01X13489Y32205D01*
G01X13652Y32205D01*
G01X13652Y32002D01*
G01X13625Y31983D01*
G01X13591Y31968D01*
G01X13551Y31959D01*
G01X13510Y31956D01*
G01X13453Y31962D01*
G01X13403Y31978D01*
G01X13360Y32004D01*
G01X13324Y32040D01*
G01X13296Y32086D01*
G01X13275Y32139D01*
G01X13262Y32200D01*
G01X13258Y32269D01*
G01X13263Y32336D01*
G01X13276Y32397D01*
G01X13297Y32450D01*
G01X13326Y32495D01*
G01X13362Y32530D01*
G01X13405Y32557D01*
G01X13454Y32573D01*
G01X13510Y32578D01*
G01X13564Y32572D01*
G01X13608Y32557D01*
G01X13644Y32534D01*
G01X13675Y32507D01*
G01X13721Y32561D01*
G01X13683Y32594D01*
G01X13637Y32623D01*
G01X13578Y32644D01*
G37*

%LPD*%

%LPD*%
G36*
G01X12873Y35200D02*
G01X12784Y35200D01*
G01X13023Y34455D01*
G01X13120Y34455D01*
G01X13358Y35200D01*
G01X13272Y35200D01*
G01X13150Y34788D01*
G01X13131Y34725D01*
G01X13095Y34605D01*
G01X13074Y34542D01*
G01X13071Y34542D01*
G01X13052Y34605D01*
G01X13016Y34725D01*
G01X12998Y34788D01*
G01X12873Y35200D01*
G37*

%LPD*%
G36*
G01X15002Y35159D02*
G01X14933Y35159D01*
G01X14923Y35004D01*
G01X14837Y34999D01*
G01X14837Y34936D01*
G01X14920Y34936D01*
G01X14920Y34621D01*
G01X14928Y34548D01*
G01X14952Y34492D01*
G01X14999Y34455D01*
G01X15070Y34443D01*
G01X15095Y34444D01*
G01X15120Y34449D01*
G01X15146Y34455D01*
G01X15169Y34463D01*
G01X15152Y34527D01*
G01X15137Y34520D01*
G01X15121Y34515D01*
G01X15104Y34512D01*
G01X15088Y34511D01*
G01X15047Y34519D01*
G01X15021Y34540D01*
G01X15006Y34573D01*
G01X15002Y34618D01*
G01X15002Y34936D01*
G01X15154Y34936D01*
G01X15154Y35004D01*
G01X15002Y35004D01*
G01X15002Y35159D01*
G37*

%LPD*%
G36*
G01X14367Y35004D02*
G01X14285Y35004D01*
G01X14285Y34656D01*
G01X14295Y34564D01*
G01X14325Y34497D01*
G01X14377Y34456D01*
G01X14451Y34443D01*
G01X14504Y34450D01*
G01X14552Y34470D01*
G01X14594Y34502D01*
G01X14633Y34542D01*
G01X14639Y34542D01*
G01X14644Y34455D01*
G01X14712Y34455D01*
G01X14712Y35004D01*
G01X14631Y35004D01*
G01X14631Y34610D01*
G01X14591Y34567D01*
G01X14555Y34537D01*
G01X14517Y34519D01*
G01X14476Y34514D01*
G01X14427Y34523D01*
G01X14393Y34551D01*
G01X14373Y34599D01*
G01X14367Y34666D01*
G01X14367Y35004D01*
G37*

%LPD*%
G36*
G01X13941Y35014D02*
G01X13892Y35019D01*
G01X13843Y35014D01*
G01X13795Y35000D01*
G01X13753Y34976D01*
G01X13714Y34943D01*
G01X13683Y34902D01*
G01X13659Y34852D01*
G01X13643Y34795D01*
G01X13638Y34730D01*
G01X13643Y34665D01*
G01X13659Y34608D01*
G01X13683Y34559D01*
G01X13714Y34517D01*
G01X13753Y34485D01*
G01X13795Y34462D01*
G01X13843Y34448D01*
G01X13892Y34443D01*
G01X13941Y34448D01*
G01X13987Y34462D01*
G01X14029Y34485D01*
G01X14067Y34517D01*
G01X14099Y34559D01*
G01X14122Y34608D01*
G01X14138Y34665D01*
G01X14143Y34730D01*
G01X14138Y34795D01*
G01X14122Y34852D01*
G01X14099Y34902D01*
G01X14067Y34943D01*
G01X14029Y34976D01*
G01X13987Y35000D01*
G01X13941Y35014D01*
G37*

%LPC*%
G36*
G01X13959Y34932D02*
G01X13892Y34948D01*
G01X13824Y34932D01*
G01X13771Y34888D01*
G01X13736Y34819D01*
G01X13724Y34730D01*
G01X13736Y34640D01*
G01X13771Y34571D01*
G01X13824Y34527D01*
G01X13892Y34511D01*
G01X13959Y34527D01*
G01X14012Y34571D01*
G01X14047Y34640D01*
G01X14059Y34730D01*
G01X14047Y34819D01*
G01X14012Y34888D01*
G01X13959Y34932D01*
G37*

%LPD*%
G36*
G01X12571Y35200D02*
G01X12487Y35212D01*
G01X12428Y35206D01*
G01X12374Y35187D01*
G01X12326Y35160D01*
G01X12281Y35126D01*
G01X12327Y35070D01*
G01X12362Y35100D01*
G01X12399Y35123D01*
G01X12440Y35139D01*
G01X12485Y35146D01*
G01X12539Y35136D01*
G01X12580Y35111D01*
G01X12606Y35072D01*
G01X12614Y35022D01*
G01X12603Y34963D01*
G01X12568Y34917D01*
G01X12504Y34886D01*
G01X12406Y34875D01*
G01X12406Y34811D01*
G01X12516Y34800D01*
G01X12589Y34768D01*
G01X12629Y34719D01*
G01X12642Y34656D01*
G01X12630Y34596D01*
G01X12598Y34550D01*
G01X12548Y34522D01*
G01X12485Y34511D01*
G01X12425Y34518D01*
G01X12375Y34537D01*
G01X12333Y34565D01*
G01X12297Y34598D01*
G01X12256Y34544D01*
G01X12296Y34506D01*
G01X12347Y34474D01*
G01X12411Y34451D01*
G01X12490Y34443D01*
G01X12538Y34446D01*
G01X12582Y34457D01*
G01X12622Y34475D01*
G01X12656Y34499D01*
G01X12684Y34529D01*
G01X12706Y34565D01*
G01X12719Y34607D01*
G01X12723Y34654D01*
G01X12711Y34723D01*
G01X12677Y34780D01*
G01X12627Y34820D01*
G01X12566Y34844D01*
G01X12566Y34847D01*
G01X12620Y34875D01*
G01X12661Y34914D01*
G01X12688Y34965D01*
G01X12698Y35030D01*
G01X12682Y35107D01*
G01X12639Y35165D01*
G01X12571Y35200D01*
G37*

%LPD*%
G36*
G01X12111Y34570D02*
G01X12086Y34575D01*
G01X12062Y34570D01*
G01X12043Y34556D01*
G01X12030Y34534D01*
G01X12025Y34506D01*
G01X12030Y34480D01*
G01X12043Y34460D01*
G01X12062Y34447D01*
G01X12086Y34443D01*
G01X12111Y34447D01*
G01X12131Y34460D01*
G01X12145Y34480D01*
G01X12149Y34506D01*
G01X12145Y34534D01*
G01X12131Y34556D01*
G01X12111Y34570D01*
G37*

%LPD*%
G36*
G01X11741Y35200D02*
G01X11657Y35212D01*
G01X11596Y35206D01*
G01X11541Y35187D01*
G01X11494Y35160D01*
G01X11451Y35126D01*
G01X11497Y35070D01*
G01X11530Y35100D01*
G01X11567Y35123D01*
G01X11607Y35139D01*
G01X11651Y35146D01*
G01X11706Y35136D01*
G01X11748Y35111D01*
G01X11774Y35072D01*
G01X11784Y35022D01*
G01X11772Y34963D01*
G01X11736Y34917D01*
G01X11671Y34886D01*
G01X11573Y34875D01*
G01X11573Y34811D01*
G01X11682Y34800D01*
G01X11756Y34768D01*
G01X11796Y34719D01*
G01X11809Y34656D01*
G01X11797Y34596D01*
G01X11765Y34550D01*
G01X11716Y34522D01*
G01X11654Y34511D01*
G01X11594Y34518D01*
G01X11543Y34537D01*
G01X11501Y34565D01*
G01X11466Y34598D01*
G01X11423Y34544D01*
G01X11464Y34506D01*
G01X11515Y34474D01*
G01X11580Y34451D01*
G01X11659Y34443D01*
G01X11706Y34446D01*
G01X11751Y34457D01*
G01X11790Y34475D01*
G01X11825Y34499D01*
G01X11853Y34529D01*
G01X11875Y34565D01*
G01X11888Y34607D01*
G01X11893Y34654D01*
G01X11881Y34723D01*
G01X11846Y34780D01*
G01X11795Y34820D01*
G01X11733Y34844D01*
G01X11733Y34847D01*
G01X11788Y34875D01*
G01X11831Y34914D01*
G01X11858Y34965D01*
G01X11867Y35030D01*
G01X11852Y35107D01*
G01X11808Y35165D01*
G01X11741Y35200D01*
G37*

%LPD*%

%LPD*%
G36*
G01X14528Y37801D02*
G01X14505Y37805D01*
G01X14483Y37801D01*
G01X14464Y37789D01*
G01X14452Y37772D01*
G01X14447Y37749D01*
G01X14452Y37725D01*
G01X14464Y37707D01*
G01X14483Y37695D01*
G01X14505Y37690D01*
G01X14528Y37695D01*
G01X14547Y37707D01*
G01X14559Y37725D01*
G01X14564Y37749D01*
G01X14559Y37772D01*
G01X14547Y37789D01*
G01X14528Y37801D01*
G37*

%LPD*%
G36*
G01X15075Y37575D02*
G01X15001Y37589D01*
G01X14947Y37581D01*
G01X14900Y37561D01*
G01X14856Y37530D01*
G01X14815Y37492D01*
G01X14813Y37492D01*
G01X14805Y37574D01*
G01X14737Y37574D01*
G01X14737Y37025D01*
G01X14820Y37025D01*
G01X14820Y37426D01*
G01X14861Y37465D01*
G01X14898Y37493D01*
G01X14935Y37510D01*
G01X14975Y37515D01*
G01X15025Y37507D01*
G01X15059Y37479D01*
G01X15078Y37432D01*
G01X15085Y37363D01*
G01X15085Y37025D01*
G01X15168Y37025D01*
G01X15168Y37373D01*
G01X15158Y37466D01*
G01X15127Y37533D01*
G01X15075Y37575D01*
G37*

%LPD*%
G36*
G01X14546Y37574D02*
G01X14465Y37574D01*
G01X14465Y37025D01*
G01X14546Y37025D01*
G01X14546Y37574D01*
G37*

%LPD*%
G36*
G01X12410Y37769D02*
G01X12321Y37769D01*
G01X12560Y37025D01*
G01X12656Y37025D01*
G01X12893Y37769D01*
G01X12809Y37769D01*
G01X12684Y37358D01*
G01X12666Y37294D01*
G01X12648Y37235D01*
G01X12630Y37175D01*
G01X12611Y37111D01*
G01X12608Y37111D01*
G01X12587Y37175D01*
G01X12569Y37235D01*
G01X12552Y37294D01*
G01X12534Y37358D01*
G01X12410Y37769D01*
G37*

%LPD*%
G36*
G01X13947Y37775D02*
G01X13883Y37782D01*
G01X13815Y37775D01*
G01X13753Y37755D01*
G01X13698Y37723D01*
G01X13650Y37679D01*
G01X13611Y37623D01*
G01X13582Y37557D01*
G01X13564Y37481D01*
G01X13558Y37396D01*
G01X13564Y37311D01*
G01X13582Y37235D01*
G01X13610Y37170D01*
G01X13648Y37115D01*
G01X13695Y37071D01*
G01X13750Y37039D01*
G01X13811Y37019D01*
G01X13878Y37012D01*
G01X13946Y37019D01*
G01X14006Y37040D01*
G01X14058Y37074D01*
G01X14104Y37119D01*
G01X14056Y37172D01*
G01X14018Y37135D01*
G01X13978Y37108D01*
G01X13932Y37091D01*
G01X13881Y37086D01*
G01X13829Y37091D01*
G01X13783Y37108D01*
G01X13742Y37135D01*
G01X13708Y37171D01*
G01X13681Y37216D01*
G01X13661Y37269D01*
G01X13648Y37330D01*
G01X13644Y37398D01*
G01X13649Y37466D01*
G01X13661Y37527D01*
G01X13682Y37580D01*
G01X13709Y37625D01*
G01X13744Y37660D01*
G01X13785Y37687D01*
G01X13831Y37703D01*
G01X13883Y37708D01*
G01X13930Y37703D01*
G01X13971Y37689D01*
G01X14007Y37667D01*
G01X14038Y37637D01*
G01X14086Y37690D01*
G01X14049Y37725D01*
G01X14003Y37754D01*
G01X13947Y37775D01*
G37*

%LPD*%
G36*
G01X13332Y37775D02*
G01X13268Y37782D01*
G01X13200Y37775D01*
G01X13138Y37755D01*
G01X13083Y37723D01*
G01X13035Y37679D01*
G01X12997Y37623D01*
G01X12968Y37557D01*
G01X12949Y37481D01*
G01X12943Y37396D01*
G01X12949Y37311D01*
G01X12968Y37235D01*
G01X12996Y37170D01*
G01X13035Y37115D01*
G01X13082Y37071D01*
G01X13136Y37039D01*
G01X13197Y37019D01*
G01X13263Y37012D01*
G01X13331Y37019D01*
G01X13391Y37040D01*
G01X13443Y37074D01*
G01X13489Y37119D01*
G01X13444Y37172D01*
G01X13406Y37135D01*
G01X13364Y37108D01*
G01X13319Y37091D01*
G01X13268Y37086D01*
G01X13216Y37091D01*
G01X13169Y37108D01*
G01X13128Y37135D01*
G01X13094Y37171D01*
G01X13066Y37216D01*
G01X13046Y37269D01*
G01X13034Y37330D01*
G01X13030Y37398D01*
G01X13034Y37466D01*
G01X13047Y37527D01*
G01X13068Y37580D01*
G01X13096Y37625D01*
G01X13131Y37660D01*
G01X13172Y37687D01*
G01X13219Y37703D01*
G01X13271Y37708D01*
G01X13316Y37703D01*
G01X13357Y37689D01*
G01X13393Y37667D01*
G01X13426Y37637D01*
G01X13472Y37690D01*
G01X13435Y37725D01*
G01X13388Y37754D01*
G01X13332Y37775D01*
G37*

%LPD*%

%LPD*%
G36*
G01X33956Y37798D02*
G01X33932Y37802D01*
G01X33910Y37798D01*
G01X33891Y37786D01*
G01X33879Y37769D01*
G01X33874Y37746D01*
G01X33879Y37722D01*
G01X33891Y37704D01*
G01X33910Y37692D01*
G01X33932Y37687D01*
G01X33956Y37692D01*
G01X33974Y37704D01*
G01X33987Y37722D01*
G01X33991Y37746D01*
G01X33987Y37769D01*
G01X33974Y37786D01*
G01X33956Y37798D01*
G37*

%LPD*%
G36*
G01X34502Y37572D02*
G01X34428Y37586D01*
G01X34374Y37578D01*
G01X34327Y37558D01*
G01X34283Y37527D01*
G01X34242Y37489D01*
G01X34240Y37489D01*
G01X34232Y37571D01*
G01X34164Y37571D01*
G01X34164Y37022D01*
G01X34247Y37022D01*
G01X34247Y37423D01*
G01X34287Y37462D01*
G01X34325Y37490D01*
G01X34363Y37507D01*
G01X34402Y37512D01*
G01X34452Y37503D01*
G01X34486Y37476D01*
G01X34505Y37429D01*
G01X34511Y37360D01*
G01X34511Y37022D01*
G01X34595Y37022D01*
G01X34595Y37370D01*
G01X34586Y37463D01*
G01X34555Y37530D01*
G01X34502Y37572D01*
G37*

%LPD*%
G36*
G01X33973Y37571D02*
G01X33892Y37571D01*
G01X33892Y37022D01*
G01X33973Y37022D01*
G01X33973Y37571D01*
G37*

%LPD*%
G36*
G01X31837Y37766D02*
G01X31748Y37766D01*
G01X31987Y37022D01*
G01X32083Y37022D01*
G01X32319Y37766D01*
G01X32236Y37766D01*
G01X32111Y37355D01*
G01X32093Y37291D01*
G01X32076Y37232D01*
G01X32057Y37172D01*
G01X32038Y37108D01*
G01X32035Y37108D01*
G01X32015Y37172D01*
G01X31996Y37232D01*
G01X31980Y37291D01*
G01X31961Y37355D01*
G01X31837Y37766D01*
G37*

%LPD*%
G36*
G01X33375Y37772D02*
G01X33310Y37779D01*
G01X33243Y37772D01*
G01X33180Y37752D01*
G01X33125Y37720D01*
G01X33077Y37676D01*
G01X33038Y37620D01*
G01X33009Y37554D01*
G01X32992Y37478D01*
G01X32985Y37393D01*
G01X32992Y37308D01*
G01X33009Y37232D01*
G01X33038Y37167D01*
G01X33076Y37112D01*
G01X33123Y37068D01*
G01X33177Y37036D01*
G01X33238Y37016D01*
G01X33305Y37009D01*
G01X33373Y37016D01*
G01X33433Y37037D01*
G01X33485Y37071D01*
G01X33531Y37116D01*
G01X33483Y37169D01*
G01X33446Y37132D01*
G01X33405Y37105D01*
G01X33359Y37088D01*
G01X33308Y37083D01*
G01X33256Y37088D01*
G01X33210Y37105D01*
G01X33169Y37132D01*
G01X33135Y37168D01*
G01X33108Y37213D01*
G01X33088Y37266D01*
G01X33076Y37327D01*
G01X33071Y37395D01*
G01X33076Y37463D01*
G01X33089Y37524D01*
G01X33109Y37577D01*
G01X33137Y37622D01*
G01X33171Y37657D01*
G01X33212Y37684D01*
G01X33258Y37700D01*
G01X33310Y37705D01*
G01X33357Y37700D01*
G01X33398Y37686D01*
G01X33434Y37663D01*
G01X33465Y37634D01*
G01X33513Y37687D01*
G01X33476Y37722D01*
G01X33430Y37751D01*
G01X33375Y37772D01*
G37*

%LPD*%
G36*
G01X32760Y37772D02*
G01X32695Y37779D01*
G01X32628Y37772D01*
G01X32565Y37752D01*
G01X32510Y37720D01*
G01X32463Y37676D01*
G01X32424Y37620D01*
G01X32395Y37554D01*
G01X32377Y37478D01*
G01X32370Y37393D01*
G01X32377Y37308D01*
G01X32395Y37232D01*
G01X32424Y37167D01*
G01X32462Y37112D01*
G01X32509Y37068D01*
G01X32563Y37036D01*
G01X32624Y37016D01*
G01X32690Y37009D01*
G01X32758Y37016D01*
G01X32818Y37037D01*
G01X32870Y37071D01*
G01X32916Y37116D01*
G01X32871Y37169D01*
G01X32833Y37132D01*
G01X32792Y37105D01*
G01X32746Y37088D01*
G01X32695Y37083D01*
G01X32643Y37088D01*
G01X32596Y37105D01*
G01X32555Y37132D01*
G01X32521Y37168D01*
G01X32494Y37213D01*
G01X32473Y37266D01*
G01X32461Y37327D01*
G01X32457Y37395D01*
G01X32461Y37463D01*
G01X32474Y37524D01*
G01X32495Y37577D01*
G01X32523Y37622D01*
G01X32558Y37657D01*
G01X32599Y37684D01*
G01X32646Y37700D01*
G01X32698Y37705D01*
G01X32744Y37700D01*
G01X32784Y37686D01*
G01X32821Y37663D01*
G01X32853Y37634D01*
G01X32899Y37687D01*
G01X32862Y37722D01*
G01X32815Y37751D01*
G01X32760Y37772D01*
G37*

%LPD*%

%LPD*%
G36*
G01X32270Y35457D02*
G01X32181Y35457D01*
G01X32420Y34713D01*
G01X32517Y34713D01*
G01X32755Y35457D01*
G01X32669Y35457D01*
G01X32547Y35045D01*
G01X32528Y34982D01*
G01X32510Y34922D01*
G01X32493Y34862D01*
G01X32473Y34799D01*
G01X32468Y34799D01*
G01X32449Y34862D01*
G01X32431Y34922D01*
G01X32414Y34982D01*
G01X32395Y35045D01*
G01X32270Y35457D01*
G37*

%LPD*%
G36*
G01X34401Y35416D02*
G01X34330Y35416D01*
G01X34320Y35261D01*
G01X34234Y35256D01*
G01X34234Y35193D01*
G01X34317Y35193D01*
G01X34317Y34878D01*
G01X34325Y34805D01*
G01X34351Y34749D01*
G01X34398Y34713D01*
G01X34470Y34700D01*
G01X34494Y34701D01*
G01X34518Y34706D01*
G01X34566Y34720D01*
G01X34551Y34784D01*
G01X34536Y34777D01*
G01X34520Y34772D01*
G01X34503Y34769D01*
G01X34488Y34768D01*
G01X34446Y34776D01*
G01X34420Y34797D01*
G01X34405Y34830D01*
G01X34401Y34875D01*
G01X34401Y35193D01*
G01X34551Y35193D01*
G01X34551Y35261D01*
G01X34401Y35261D01*
G01X34401Y35416D01*
G37*

%LPD*%
G36*
G01X33766Y35261D02*
G01X33682Y35261D01*
G01X33682Y34913D01*
G01X33693Y34821D01*
G01X33724Y34754D01*
G01X33776Y34714D01*
G01X33850Y34700D01*
G01X33903Y34707D01*
G01X33950Y34727D01*
G01X33993Y34759D01*
G01X34033Y34799D01*
G01X34036Y34799D01*
G01X34043Y34713D01*
G01X34112Y34713D01*
G01X34112Y35261D01*
G01X34028Y35261D01*
G01X34028Y34867D01*
G01X33989Y34824D01*
G01X33952Y34794D01*
G01X33914Y34777D01*
G01X33873Y34771D01*
G01X33824Y34780D01*
G01X33791Y34808D01*
G01X33772Y34856D01*
G01X33766Y34923D01*
G01X33766Y35261D01*
G37*

%LPD*%
G36*
G01X33339Y35271D02*
G01X33289Y35276D01*
G01X33239Y35271D01*
G01X33193Y35257D01*
G01X33150Y35233D01*
G01X33112Y35200D01*
G01X33081Y35159D01*
G01X33058Y35109D01*
G01X33042Y35052D01*
G01X33037Y34987D01*
G01X33042Y34922D01*
G01X33058Y34865D01*
G01X33081Y34816D01*
G01X33112Y34774D01*
G01X33150Y34742D01*
G01X33193Y34719D01*
G01X33239Y34705D01*
G01X33289Y34700D01*
G01X33339Y34705D01*
G01X33385Y34719D01*
G01X33428Y34742D01*
G01X33466Y34774D01*
G01X33498Y34816D01*
G01X33522Y34865D01*
G01X33537Y34922D01*
G01X33543Y34987D01*
G01X33537Y35052D01*
G01X33522Y35109D01*
G01X33498Y35159D01*
G01X33466Y35200D01*
G01X33428Y35233D01*
G01X33385Y35257D01*
G01X33339Y35271D01*
G37*

%LPC*%
G36*
G01X33357Y35190D02*
G01X33289Y35205D01*
G01X33221Y35190D01*
G01X33168Y35145D01*
G01X33133Y35076D01*
G01X33121Y34987D01*
G01X33133Y34897D01*
G01X33168Y34828D01*
G01X33221Y34784D01*
G01X33289Y34768D01*
G01X33357Y34784D01*
G01X33410Y34828D01*
G01X33444Y34897D01*
G01X33456Y34987D01*
G01X33444Y35076D01*
G01X33410Y35145D01*
G01X33357Y35190D01*
G37*

%LPD*%
G36*
G01X32090Y35457D02*
G01X31734Y35457D01*
G01X31711Y35111D01*
G01X31757Y35083D01*
G01X31788Y35102D01*
G01X31817Y35115D01*
G01X31847Y35123D01*
G01X31882Y35127D01*
G01X31947Y35114D01*
G01X31998Y35080D01*
G01X32030Y35025D01*
G01X32042Y34951D01*
G01X32029Y34876D01*
G01X31994Y34818D01*
G01X31942Y34781D01*
G01X31879Y34768D01*
G01X31818Y34776D01*
G01X31768Y34794D01*
G01X31727Y34821D01*
G01X31694Y34852D01*
G01X31650Y34799D01*
G01X31692Y34762D01*
G01X31744Y34730D01*
G01X31807Y34708D01*
G01X31887Y34700D01*
G01X31932Y34704D01*
G01X31976Y34717D01*
G01X32016Y34737D01*
G01X32052Y34766D01*
G01X32082Y34802D01*
G01X32105Y34846D01*
G01X32120Y34896D01*
G01X32125Y34954D01*
G01X32121Y35011D01*
G01X32108Y35060D01*
G01X32087Y35101D01*
G01X32060Y35134D01*
G01X32027Y35159D01*
G01X31989Y35176D01*
G01X31947Y35186D01*
G01X31902Y35190D01*
G01X31869Y35188D01*
G01X31840Y35182D01*
G01X31813Y35173D01*
G01X31788Y35160D01*
G01X31808Y35386D01*
G01X32090Y35386D01*
G01X32090Y35457D01*
G37*

%LPD*%

%LPD*%
G36*
G01X34187Y32636D02*
G01X34004Y32636D01*
G01X34004Y31892D01*
G01X34189Y31892D01*
G01X34243Y31895D01*
G01X34293Y31903D01*
G01X34338Y31918D01*
G01X34378Y31937D01*
G01X34414Y31962D01*
G01X34445Y31992D01*
G01X34472Y32027D01*
G01X34493Y32066D01*
G01X34510Y32111D01*
G01X34522Y32159D01*
G01X34530Y32211D01*
G01X34532Y32268D01*
G01X34530Y32324D01*
G01X34522Y32376D01*
G01X34510Y32424D01*
G01X34493Y32467D01*
G01X34471Y32506D01*
G01X34445Y32540D01*
G01X34414Y32569D01*
G01X34378Y32593D01*
G01X34337Y32611D01*
G01X34292Y32625D01*
G01X34241Y32633D01*
G01X34187Y32636D01*
G37*

%LPC*%
G36*
G01X34179Y32568D02*
G01X34088Y32568D01*
G01X34088Y31961D01*
G01X34179Y31961D01*
G01X34242Y31966D01*
G01X34297Y31982D01*
G01X34343Y32007D01*
G01X34380Y32042D01*
G01X34409Y32087D01*
G01X34429Y32139D01*
G01X34442Y32200D01*
G01X34446Y32268D01*
G01X34442Y32335D01*
G01X34429Y32394D01*
G01X34409Y32445D01*
G01X34380Y32488D01*
G01X34343Y32522D01*
G01X34297Y32547D01*
G01X34242Y32562D01*
G01X34179Y32568D01*
G37*

%LPD*%
G36*
G01X33359Y32636D02*
G01X33272Y32636D01*
G01X33272Y31892D01*
G01X33353Y31892D01*
G01X33353Y32298D01*
G01X33352Y32356D01*
G01X33343Y32527D01*
G01X33349Y32527D01*
G01X33430Y32375D01*
G01X33709Y31892D01*
G01X33796Y31892D01*
G01X33796Y32636D01*
G01X33714Y32636D01*
G01X33714Y32232D01*
G01X33715Y32175D01*
G01X33719Y32116D01*
G01X33723Y32058D01*
G01X33727Y32001D01*
G01X33722Y32001D01*
G01X33640Y32154D01*
G01X33359Y32636D01*
G37*

%LPD*%
G36*
G01X32942Y32641D02*
G01X32871Y32649D01*
G01X32823Y32646D01*
G01X32778Y32637D01*
G01X32736Y32622D01*
G01X32697Y32602D01*
G01X32661Y32576D01*
G01X32630Y32545D01*
G01X32602Y32509D01*
G01X32579Y32469D01*
G01X32560Y32424D01*
G01X32547Y32374D01*
G01X32538Y32320D01*
G01X32536Y32263D01*
G01X32542Y32178D01*
G01X32560Y32102D01*
G01X32589Y32036D01*
G01X32628Y31982D01*
G01X32677Y31938D01*
G01X32733Y31905D01*
G01X32796Y31886D01*
G01X32866Y31879D01*
G01X32937Y31885D01*
G01X32999Y31903D01*
G01X33053Y31930D01*
G01X33095Y31963D01*
G01X33095Y32273D01*
G01X32853Y32273D01*
G01X32853Y32202D01*
G01X33015Y32202D01*
G01X33015Y31999D01*
G01X32989Y31979D01*
G01X32954Y31965D01*
G01X32915Y31956D01*
G01X32874Y31953D01*
G01X32817Y31959D01*
G01X32767Y31975D01*
G01X32723Y32001D01*
G01X32688Y32037D01*
G01X32659Y32083D01*
G01X32639Y32136D01*
G01X32626Y32197D01*
G01X32622Y32265D01*
G01X32626Y32333D01*
G01X32640Y32394D01*
G01X32661Y32447D01*
G01X32690Y32492D01*
G01X32726Y32527D01*
G01X32769Y32554D01*
G01X32818Y32570D01*
G01X32874Y32575D01*
G01X32927Y32569D01*
G01X32971Y32554D01*
G01X33008Y32531D01*
G01X33039Y32504D01*
G01X33085Y32558D01*
G01X33047Y32591D01*
G01X33001Y32620D01*
G01X32942Y32641D01*
G37*

%LPD*%

%LPD*%
G36*
G01X43083Y40595D02*
G01X42994Y40595D01*
G01X43162Y40334D01*
G01X42979Y40047D01*
G01X43068Y40047D01*
G01X43144Y40179D01*
G01X43159Y40205D01*
G01X43173Y40230D01*
G01X43188Y40255D01*
G01X43202Y40280D01*
G01X43207Y40280D01*
G01X43238Y40230D01*
G01X43253Y40205D01*
G01X43268Y40179D01*
G01X43352Y40047D01*
G01X43444Y40047D01*
G01X43261Y40326D01*
G01X43428Y40595D01*
G01X43342Y40595D01*
G01X43271Y40471D01*
G01X43246Y40425D01*
G01X43220Y40379D01*
G01X43215Y40379D01*
G01X43159Y40471D01*
G01X43083Y40595D01*
G37*

%LPD*%
G36*
G01X42979Y40791D02*
G01X42440Y40791D01*
G01X42440Y40720D01*
G01X42666Y40720D01*
G01X42666Y40047D01*
G01X42753Y40047D01*
G01X42753Y40720D01*
G01X42979Y40720D01*
G01X42979Y40791D01*
G37*

%LPD*%

%LPD*%
G36*
G01X43086Y38055D02*
G01X42997Y38055D01*
G01X43164Y37794D01*
G01X42981Y37507D01*
G01X43068Y37507D01*
G01X43146Y37639D01*
G01X43161Y37665D01*
G01X43176Y37690D01*
G01X43190Y37715D01*
G01X43205Y37740D01*
G01X43210Y37740D01*
G01X43240Y37690D01*
G01X43256Y37665D01*
G01X43271Y37639D01*
G01X43355Y37507D01*
G01X43444Y37507D01*
G01X43263Y37786D01*
G01X43431Y38055D01*
G01X43345Y38055D01*
G01X43273Y37931D01*
G01X43248Y37885D01*
G01X43236Y37862D01*
G01X43223Y37839D01*
G01X43218Y37839D01*
G01X43204Y37862D01*
G01X43175Y37908D01*
G01X43162Y37931D01*
G01X43086Y38055D01*
G37*

%LPD*%
G36*
G01X42666Y38251D02*
G01X42440Y38251D01*
G01X42440Y37507D01*
G01X42524Y37507D01*
G01X42524Y37827D01*
G01X42664Y37827D01*
G01X42849Y37507D01*
G01X42943Y37507D01*
G01X42753Y37837D01*
G01X42824Y37863D01*
G01X42878Y37906D01*
G01X42913Y37966D01*
G01X42926Y38045D01*
G01X42920Y38098D01*
G01X42907Y38142D01*
G01X42884Y38177D01*
G01X42853Y38205D01*
G01X42815Y38226D01*
G01X42771Y38240D01*
G01X42721Y38248D01*
G01X42666Y38251D01*
G37*

%LPC*%
G36*
G01X42654Y38182D02*
G01X42524Y38182D01*
G01X42524Y37898D01*
G01X42654Y37898D01*
G01X42733Y37906D01*
G01X42791Y37933D01*
G01X42827Y37979D01*
G01X42839Y38045D01*
G01X42827Y38110D01*
G01X42791Y38152D01*
G01X42733Y38175D01*
G01X42654Y38182D01*
G37*

%LPD*%

%LPD*%
G36*
G01X42959Y35711D02*
G01X42870Y35711D01*
G01X43108Y34967D01*
G01X43205Y34967D01*
G01X43444Y35711D01*
G01X43357Y35711D01*
G01X43235Y35299D01*
G01X43216Y35236D01*
G01X43180Y35116D01*
G01X43159Y35053D01*
G01X43157Y35053D01*
G01X43137Y35116D01*
G01X43101Y35236D01*
G01X43083Y35299D01*
G01X42959Y35711D01*
G37*

%LPD*%
G36*
G01X42657Y35711D02*
G01X42572Y35723D01*
G01X42513Y35717D01*
G01X42459Y35699D01*
G01X42410Y35671D01*
G01X42367Y35637D01*
G01X42412Y35581D01*
G01X42446Y35611D01*
G01X42485Y35635D01*
G01X42526Y35650D01*
G01X42570Y35657D01*
G01X42624Y35647D01*
G01X42665Y35622D01*
G01X42691Y35583D01*
G01X42699Y35533D01*
G01X42689Y35475D01*
G01X42653Y35428D01*
G01X42589Y35397D01*
G01X42491Y35386D01*
G01X42491Y35322D01*
G01X42601Y35311D01*
G01X42674Y35279D01*
G01X42715Y35230D01*
G01X42727Y35167D01*
G01X42716Y35107D01*
G01X42683Y35062D01*
G01X42633Y35033D01*
G01X42570Y35022D01*
G01X42510Y35030D01*
G01X42461Y35048D01*
G01X42419Y35076D01*
G01X42382Y35109D01*
G01X42341Y35055D01*
G01X42381Y35017D01*
G01X42432Y34985D01*
G01X42497Y34962D01*
G01X42575Y34954D01*
G01X42623Y34957D01*
G01X42667Y34968D01*
G01X42707Y34986D01*
G01X42742Y35010D01*
G01X42770Y35040D01*
G01X42791Y35076D01*
G01X42804Y35118D01*
G01X42809Y35165D01*
G01X42796Y35234D01*
G01X42762Y35290D01*
G01X42712Y35331D01*
G01X42651Y35355D01*
G01X42651Y35358D01*
G01X42705Y35386D01*
G01X42747Y35425D01*
G01X42774Y35477D01*
G01X42783Y35541D01*
G01X42768Y35618D01*
G01X42724Y35676D01*
G01X42657Y35711D01*
G37*

%LPD*%
G36*
G01X42196Y35081D02*
G01X42171Y35086D01*
G01X42148Y35081D01*
G01X42128Y35067D01*
G01X42115Y35045D01*
G01X42110Y35017D01*
G01X42115Y34991D01*
G01X42128Y34971D01*
G01X42148Y34958D01*
G01X42171Y34954D01*
G01X42196Y34958D01*
G01X42216Y34971D01*
G01X42230Y34991D01*
G01X42235Y35017D01*
G01X42230Y35045D01*
G01X42216Y35067D01*
G01X42196Y35081D01*
G37*

%LPD*%
G36*
G01X41826Y35711D02*
G01X41742Y35723D01*
G01X41681Y35717D01*
G01X41627Y35699D01*
G01X41579Y35671D01*
G01X41536Y35637D01*
G01X41582Y35581D01*
G01X41615Y35611D01*
G01X41652Y35635D01*
G01X41693Y35650D01*
G01X41737Y35657D01*
G01X41792Y35647D01*
G01X41833Y35622D01*
G01X41860Y35583D01*
G01X41869Y35533D01*
G01X41858Y35475D01*
G01X41822Y35428D01*
G01X41757Y35397D01*
G01X41658Y35386D01*
G01X41658Y35322D01*
G01X41768Y35311D01*
G01X41841Y35279D01*
G01X41882Y35230D01*
G01X41894Y35167D01*
G01X41883Y35107D01*
G01X41850Y35062D01*
G01X41801Y35033D01*
G01X41739Y35022D01*
G01X41678Y35030D01*
G01X41628Y35048D01*
G01X41586Y35076D01*
G01X41551Y35109D01*
G01X41508Y35055D01*
G01X41549Y35017D01*
G01X41601Y34985D01*
G01X41665Y34962D01*
G01X41744Y34954D01*
G01X41792Y34957D01*
G01X41835Y34968D01*
G01X41875Y34986D01*
G01X41910Y35010D01*
G01X41938Y35040D01*
G01X41960Y35076D01*
G01X41974Y35118D01*
G01X41978Y35165D01*
G01X41965Y35234D01*
G01X41931Y35290D01*
G01X41881Y35331D01*
G01X41818Y35355D01*
G01X41818Y35358D01*
G01X41873Y35386D01*
G01X41916Y35425D01*
G01X41943Y35477D01*
G01X41953Y35541D01*
G01X41937Y35618D01*
G01X41893Y35676D01*
G01X41826Y35711D01*
G37*

%LPD*%

%LPD*%
G36*
G01X43098Y33171D02*
G01X42915Y33171D01*
G01X42915Y32427D01*
G01X43101Y32427D01*
G01X43155Y32430D01*
G01X43204Y32438D01*
G01X43250Y32452D01*
G01X43290Y32472D01*
G01X43326Y32497D01*
G01X43357Y32527D01*
G01X43383Y32562D01*
G01X43405Y32601D01*
G01X43422Y32645D01*
G01X43434Y32693D01*
G01X43441Y32746D01*
G01X43444Y32802D01*
G01X43441Y32859D01*
G01X43434Y32911D01*
G01X43422Y32958D01*
G01X43405Y33002D01*
G01X43383Y33040D01*
G01X43357Y33074D01*
G01X43325Y33103D01*
G01X43289Y33127D01*
G01X43249Y33146D01*
G01X43203Y33160D01*
G01X43153Y33168D01*
G01X43098Y33171D01*
G37*

%LPC*%
G36*
G01X43091Y33102D02*
G01X42999Y33102D01*
G01X42999Y32495D01*
G01X43091Y32495D01*
G01X43154Y32501D01*
G01X43208Y32516D01*
G01X43254Y32542D01*
G01X43292Y32577D01*
G01X43320Y32622D01*
G01X43341Y32674D01*
G01X43353Y32734D01*
G01X43357Y32802D01*
G01X43353Y32869D01*
G01X43341Y32928D01*
G01X43320Y32980D01*
G01X43292Y33023D01*
G01X43254Y33057D01*
G01X43208Y33082D01*
G01X43154Y33097D01*
G01X43091Y33102D01*
G37*

%LPD*%
G36*
G01X42270Y33171D02*
G01X42184Y33171D01*
G01X42184Y32427D01*
G01X42265Y32427D01*
G01X42265Y32833D01*
G01X42264Y32891D01*
G01X42261Y32948D01*
G01X42257Y33005D01*
G01X42255Y33062D01*
G01X42260Y33062D01*
G01X42341Y32909D01*
G01X42621Y32427D01*
G01X42707Y32427D01*
G01X42707Y33171D01*
G01X42626Y33171D01*
G01X42626Y32767D01*
G01X42627Y32709D01*
G01X42630Y32651D01*
G01X42634Y32592D01*
G01X42638Y32536D01*
G01X42633Y32536D01*
G01X42552Y32688D01*
G01X42270Y33171D01*
G37*

%LPD*%
G36*
G01X41854Y33176D02*
G01X41783Y33183D01*
G01X41735Y33180D01*
G01X41690Y33171D01*
G01X41647Y33157D01*
G01X41609Y33136D01*
G01X41573Y33111D01*
G01X41542Y33080D01*
G01X41514Y33044D01*
G01X41491Y33004D01*
G01X41472Y32958D01*
G01X41458Y32909D01*
G01X41450Y32855D01*
G01X41447Y32797D01*
G01X41453Y32713D01*
G01X41472Y32637D01*
G01X41501Y32571D01*
G01X41540Y32516D01*
G01X41588Y32472D01*
G01X41644Y32440D01*
G01X41708Y32420D01*
G01X41777Y32414D01*
G01X41848Y32420D01*
G01X41911Y32438D01*
G01X41964Y32464D01*
G01X42006Y32498D01*
G01X42006Y32808D01*
G01X41765Y32808D01*
G01X41765Y32736D01*
G01X41927Y32736D01*
G01X41927Y32533D01*
G01X41900Y32514D01*
G01X41866Y32500D01*
G01X41827Y32491D01*
G01X41785Y32487D01*
G01X41728Y32493D01*
G01X41678Y32509D01*
G01X41635Y32536D01*
G01X41599Y32572D01*
G01X41571Y32618D01*
G01X41550Y32671D01*
G01X41538Y32732D01*
G01X41534Y32800D01*
G01X41538Y32868D01*
G01X41551Y32929D01*
G01X41572Y32982D01*
G01X41601Y33026D01*
G01X41637Y33062D01*
G01X41680Y33088D01*
G01X41730Y33104D01*
G01X41785Y33110D01*
G01X41839Y33104D01*
G01X41883Y33088D01*
G01X41919Y33066D01*
G01X41950Y33039D01*
G01X41996Y33092D01*
G01X41959Y33126D01*
G01X41912Y33155D01*
G01X41854Y33176D01*
G37*

%LPD*%

%LPD*%
G36*
G01X83182Y8837D02*
G01X82999Y8837D01*
G01X82999Y8093D01*
G01X83185Y8093D01*
G01X83239Y8096D01*
G01X83289Y8104D01*
G01X83333Y8119D01*
G01X83374Y8138D01*
G01X83410Y8163D01*
G01X83441Y8193D01*
G01X83467Y8228D01*
G01X83489Y8268D01*
G01X83506Y8311D01*
G01X83518Y8360D01*
G01X83525Y8412D01*
G01X83527Y8469D01*
G01X83525Y8525D01*
G01X83518Y8577D01*
G01X83506Y8625D01*
G01X83489Y8668D01*
G01X83467Y8706D01*
G01X83441Y8741D01*
G01X83409Y8769D01*
G01X83373Y8793D01*
G01X83332Y8812D01*
G01X83287Y8826D01*
G01X83237Y8834D01*
G01X83182Y8837D01*
G37*

%LPC*%
G36*
G01X83174Y8768D02*
G01X83083Y8768D01*
G01X83083Y8161D01*
G01X83174Y8161D01*
G01X83237Y8166D01*
G01X83292Y8183D01*
G01X83338Y8208D01*
G01X83376Y8244D01*
G01X83404Y8288D01*
G01X83425Y8340D01*
G01X83437Y8401D01*
G01X83441Y8469D01*
G01X83437Y8535D01*
G01X83425Y8595D01*
G01X83404Y8646D01*
G01X83376Y8689D01*
G01X83338Y8723D01*
G01X83292Y8748D01*
G01X83237Y8763D01*
G01X83174Y8768D01*
G37*

%LPD*%
G36*
G01X82354Y8837D02*
G01X82268Y8837D01*
G01X82268Y8093D01*
G01X82349Y8093D01*
G01X82349Y8499D01*
G01X82348Y8557D01*
G01X82345Y8615D01*
G01X82341Y8671D01*
G01X82339Y8728D01*
G01X82344Y8728D01*
G01X82425Y8575D01*
G01X82704Y8093D01*
G01X82791Y8093D01*
G01X82791Y8837D01*
G01X82710Y8837D01*
G01X82710Y8433D01*
G01X82711Y8375D01*
G01X82714Y8316D01*
G01X82718Y8258D01*
G01X82722Y8202D01*
G01X82717Y8202D01*
G01X82636Y8354D01*
G01X82354Y8837D01*
G37*

%LPD*%
G36*
G01X81937Y8842D02*
G01X81866Y8850D01*
G01X81818Y8847D01*
G01X81773Y8838D01*
G01X81731Y8823D01*
G01X81693Y8802D01*
G01X81657Y8777D01*
G01X81625Y8746D01*
G01X81598Y8711D01*
G01X81575Y8670D01*
G01X81556Y8625D01*
G01X81542Y8575D01*
G01X81534Y8521D01*
G01X81531Y8464D01*
G01X81537Y8378D01*
G01X81555Y8303D01*
G01X81584Y8237D01*
G01X81624Y8182D01*
G01X81672Y8139D01*
G01X81728Y8107D01*
G01X81792Y8087D01*
G01X81861Y8080D01*
G01X81932Y8086D01*
G01X81995Y8104D01*
G01X82048Y8130D01*
G01X82090Y8164D01*
G01X82090Y8474D01*
G01X81848Y8474D01*
G01X81848Y8403D01*
G01X82011Y8403D01*
G01X82011Y8199D01*
G01X81984Y8181D01*
G01X81950Y8166D01*
G01X81910Y8157D01*
G01X81869Y8154D01*
G01X81812Y8159D01*
G01X81762Y8176D01*
G01X81719Y8203D01*
G01X81683Y8239D01*
G01X81655Y8283D01*
G01X81634Y8337D01*
G01X81621Y8398D01*
G01X81617Y8466D01*
G01X81622Y8534D01*
G01X81635Y8595D01*
G01X81656Y8648D01*
G01X81685Y8692D01*
G01X81721Y8728D01*
G01X81764Y8754D01*
G01X81813Y8770D01*
G01X81869Y8776D01*
G01X81923Y8770D01*
G01X81967Y8755D01*
G01X82003Y8732D01*
G01X82034Y8705D01*
G01X82080Y8758D01*
G01X82043Y8792D01*
G01X81996Y8821D01*
G01X81937Y8842D01*
G37*

%LPD*%

%LPD*%
G36*
G01X80538Y8837D02*
G01X80449Y8837D01*
G01X80688Y8093D01*
G01X80784Y8093D01*
G01X81023Y8837D01*
G01X80937Y8837D01*
G01X80815Y8426D01*
G01X80795Y8362D01*
G01X80778Y8302D01*
G01X80759Y8243D01*
G01X80738Y8179D01*
G01X80736Y8179D01*
G01X80716Y8243D01*
G01X80698Y8302D01*
G01X80681Y8362D01*
G01X80662Y8426D01*
G01X80538Y8837D01*
G37*

%LPD*%
G36*
G01X80236Y8838D02*
G01X80152Y8850D01*
G01X80092Y8843D01*
G01X80038Y8824D01*
G01X79990Y8797D01*
G01X79946Y8763D01*
G01X79992Y8707D01*
G01X80026Y8737D01*
G01X80064Y8761D01*
G01X80105Y8777D01*
G01X80149Y8784D01*
G01X80204Y8774D01*
G01X80245Y8748D01*
G01X80270Y8710D01*
G01X80279Y8659D01*
G01X80268Y8601D01*
G01X80233Y8554D01*
G01X80169Y8523D01*
G01X80070Y8512D01*
G01X80070Y8448D01*
G01X80180Y8437D01*
G01X80253Y8405D01*
G01X80294Y8356D01*
G01X80307Y8293D01*
G01X80295Y8233D01*
G01X80262Y8188D01*
G01X80212Y8159D01*
G01X80149Y8149D01*
G01X80090Y8156D01*
G01X80040Y8175D01*
G01X79998Y8202D01*
G01X79961Y8235D01*
G01X79921Y8182D01*
G01X79960Y8143D01*
G01X80012Y8111D01*
G01X80076Y8088D01*
G01X80154Y8080D01*
G01X80202Y8084D01*
G01X80247Y8094D01*
G01X80286Y8112D01*
G01X80320Y8136D01*
G01X80349Y8166D01*
G01X80370Y8202D01*
G01X80383Y8244D01*
G01X80388Y8291D01*
G01X80375Y8361D01*
G01X80342Y8416D01*
G01X80291Y8457D01*
G01X80230Y8481D01*
G01X80230Y8484D01*
G01X80284Y8512D01*
G01X80326Y8552D01*
G01X80353Y8603D01*
G01X80363Y8667D01*
G01X80347Y8745D01*
G01X80303Y8802D01*
G01X80236Y8838D01*
G37*

%LPD*%
G36*
G01X79775Y8207D02*
G01X79750Y8212D01*
G01X79727Y8207D01*
G01X79708Y8193D01*
G01X79695Y8172D01*
G01X79689Y8144D01*
G01X79695Y8118D01*
G01X79708Y8097D01*
G01X79727Y8085D01*
G01X79750Y8080D01*
G01X79775Y8085D01*
G01X79796Y8097D01*
G01X79809Y8118D01*
G01X79814Y8144D01*
G01X79809Y8172D01*
G01X79796Y8193D01*
G01X79775Y8207D01*
G37*

%LPD*%
G36*
G01X79405Y8838D02*
G01X79321Y8850D01*
G01X79260Y8843D01*
G01X79206Y8824D01*
G01X79158Y8797D01*
G01X79115Y8763D01*
G01X79161Y8707D01*
G01X79194Y8737D01*
G01X79231Y8761D01*
G01X79272Y8777D01*
G01X79316Y8784D01*
G01X79371Y8774D01*
G01X79413Y8748D01*
G01X79439Y8710D01*
G01X79448Y8659D01*
G01X79437Y8601D01*
G01X79401Y8554D01*
G01X79336Y8523D01*
G01X79237Y8512D01*
G01X79237Y8448D01*
G01X79347Y8437D01*
G01X79420Y8405D01*
G01X79461Y8356D01*
G01X79474Y8293D01*
G01X79462Y8233D01*
G01X79429Y8188D01*
G01X79380Y8159D01*
G01X79319Y8149D01*
G01X79258Y8156D01*
G01X79207Y8175D01*
G01X79166Y8202D01*
G01X79131Y8235D01*
G01X79087Y8182D01*
G01X79128Y8143D01*
G01X79180Y8111D01*
G01X79244Y8088D01*
G01X79324Y8080D01*
G01X79371Y8084D01*
G01X79415Y8094D01*
G01X79455Y8112D01*
G01X79489Y8136D01*
G01X79518Y8166D01*
G01X79539Y8202D01*
G01X79553Y8244D01*
G01X79557Y8291D01*
G01X79545Y8361D01*
G01X79511Y8416D01*
G01X79460Y8457D01*
G01X79397Y8481D01*
G01X79397Y8484D01*
G01X79453Y8512D01*
G01X79495Y8552D01*
G01X79522Y8603D01*
G01X79532Y8667D01*
G01X79516Y8745D01*
G01X79473Y8802D01*
G01X79405Y8838D01*
G37*

%LPD*%

%LPD*%
G36*
G01X78153Y8837D02*
G01X78061Y8837D01*
G01X77807Y8093D01*
G01X77891Y8093D01*
G01X77967Y8326D01*
G01X78244Y8326D01*
G01X78318Y8093D01*
G01X78407Y8093D01*
G01X78153Y8837D01*
G37*

%LPC*%
G36*
G01X78107Y8766D02*
G01X78102Y8766D01*
G01X78084Y8701D01*
G01X78066Y8638D01*
G01X78026Y8514D01*
G01X77988Y8393D01*
G01X78224Y8393D01*
G01X78183Y8514D01*
G01X78163Y8577D01*
G01X78144Y8639D01*
G01X78126Y8702D01*
G01X78107Y8766D01*
G37*

%LPD*%
G36*
G01X77406Y8837D02*
G01X77223Y8837D01*
G01X77223Y8093D01*
G01X77409Y8093D01*
G01X77463Y8096D01*
G01X77513Y8104D01*
G01X77557Y8119D01*
G01X77598Y8138D01*
G01X77634Y8163D01*
G01X77665Y8193D01*
G01X77691Y8228D01*
G01X77713Y8268D01*
G01X77730Y8311D01*
G01X77742Y8360D01*
G01X77749Y8412D01*
G01X77751Y8469D01*
G01X77749Y8525D01*
G01X77742Y8577D01*
G01X77730Y8625D01*
G01X77713Y8668D01*
G01X77691Y8706D01*
G01X77665Y8741D01*
G01X77633Y8769D01*
G01X77597Y8793D01*
G01X77556Y8812D01*
G01X77511Y8826D01*
G01X77461Y8834D01*
G01X77406Y8837D01*
G37*

%LPC*%
G36*
G01X77398Y8768D02*
G01X77307Y8768D01*
G01X77307Y8161D01*
G01X77398Y8161D01*
G01X77461Y8166D01*
G01X77516Y8183D01*
G01X77562Y8208D01*
G01X77600Y8244D01*
G01X77628Y8288D01*
G01X77649Y8340D01*
G01X77661Y8401D01*
G01X77665Y8469D01*
G01X77661Y8535D01*
G01X77649Y8595D01*
G01X77628Y8646D01*
G01X77600Y8689D01*
G01X77562Y8723D01*
G01X77516Y8748D01*
G01X77461Y8763D01*
G01X77398Y8768D01*
G37*

%LPD*%
G36*
G01X76896Y8843D02*
G01X76832Y8850D01*
G01X76741Y8835D01*
G01X76668Y8795D01*
G01X76621Y8734D01*
G01X76603Y8657D01*
G01X76617Y8585D01*
G01X76653Y8532D01*
G01X76701Y8493D01*
G01X76753Y8466D01*
G01X76862Y8418D01*
G01X76912Y8395D01*
G01X76953Y8368D01*
G01X76980Y8332D01*
G01X76989Y8281D01*
G01X76978Y8228D01*
G01X76945Y8189D01*
G01X76893Y8163D01*
G01X76824Y8154D01*
G01X76766Y8160D01*
G01X76711Y8179D01*
G01X76660Y8208D01*
G01X76616Y8248D01*
G01X76565Y8189D01*
G01X76618Y8144D01*
G01X76679Y8110D01*
G01X76748Y8088D01*
G01X76824Y8080D01*
G01X76879Y8084D01*
G01X76927Y8096D01*
G01X76970Y8115D01*
G01X77006Y8141D01*
G01X77035Y8171D01*
G01X77056Y8207D01*
G01X77069Y8246D01*
G01X77073Y8288D01*
G01X77061Y8360D01*
G01X77028Y8414D01*
G01X76979Y8454D01*
G01X76918Y8487D01*
G01X76812Y8532D01*
G01X76768Y8553D01*
G01X76728Y8578D01*
G01X76699Y8613D01*
G01X76687Y8662D01*
G01X76698Y8710D01*
G01X76727Y8746D01*
G01X76773Y8768D01*
G01X76832Y8776D01*
G01X76883Y8771D01*
G01X76928Y8757D01*
G01X76969Y8734D01*
G01X77005Y8705D01*
G01X77048Y8758D01*
G01X77005Y8795D01*
G01X76954Y8824D01*
G01X76896Y8843D01*
G37*

%LPD*%

%LPD*%
G36*
G01X75410Y8837D02*
G01X75326Y8837D01*
G01X75326Y8093D01*
G01X75740Y8093D01*
G01X75740Y8164D01*
G01X75410Y8164D01*
G01X75410Y8837D01*
G37*

%LPD*%
G36*
G01X75028Y8842D02*
G01X74965Y8850D01*
G01X74897Y8843D01*
G01X74835Y8823D01*
G01X74779Y8790D01*
G01X74731Y8746D01*
G01X74692Y8691D01*
G01X74662Y8625D01*
G01X74644Y8548D01*
G01X74637Y8464D01*
G01X74643Y8378D01*
G01X74662Y8303D01*
G01X74690Y8237D01*
G01X74729Y8182D01*
G01X74776Y8139D01*
G01X74830Y8107D01*
G01X74891Y8087D01*
G01X74957Y8080D01*
G01X75026Y8087D01*
G01X75086Y8108D01*
G01X75139Y8141D01*
G01X75186Y8187D01*
G01X75138Y8240D01*
G01X75100Y8203D01*
G01X75059Y8176D01*
G01X75013Y8159D01*
G01X74963Y8154D01*
G01X74910Y8159D01*
G01X74863Y8176D01*
G01X74822Y8203D01*
G01X74788Y8239D01*
G01X74760Y8283D01*
G01X74741Y8337D01*
G01X74728Y8398D01*
G01X74724Y8466D01*
G01X74728Y8534D01*
G01X74741Y8595D01*
G01X74762Y8648D01*
G01X74790Y8692D01*
G01X74825Y8728D01*
G01X74867Y8754D01*
G01X74913Y8770D01*
G01X74965Y8776D01*
G01X75012Y8771D01*
G01X75053Y8757D01*
G01X75089Y8734D01*
G01X75120Y8705D01*
G01X75166Y8758D01*
G01X75130Y8793D01*
G01X75083Y8822D01*
G01X75028Y8842D01*
G37*

%LPD*%
G36*
G01X74356Y8843D02*
G01X74292Y8850D01*
G01X74201Y8835D01*
G01X74128Y8795D01*
G01X74081Y8734D01*
G01X74063Y8657D01*
G01X74077Y8585D01*
G01X74113Y8532D01*
G01X74161Y8493D01*
G01X74213Y8466D01*
G01X74322Y8418D01*
G01X74372Y8395D01*
G01X74413Y8368D01*
G01X74440Y8332D01*
G01X74449Y8281D01*
G01X74438Y8228D01*
G01X74405Y8189D01*
G01X74353Y8163D01*
G01X74284Y8154D01*
G01X74226Y8160D01*
G01X74171Y8179D01*
G01X74120Y8208D01*
G01X74076Y8248D01*
G01X74025Y8189D01*
G01X74078Y8144D01*
G01X74139Y8110D01*
G01X74208Y8088D01*
G01X74284Y8080D01*
G01X74339Y8084D01*
G01X74387Y8096D01*
G01X74430Y8115D01*
G01X74466Y8141D01*
G01X74495Y8171D01*
G01X74516Y8207D01*
G01X74529Y8246D01*
G01X74533Y8288D01*
G01X74521Y8360D01*
G01X74488Y8414D01*
G01X74439Y8454D01*
G01X74378Y8487D01*
G01X74272Y8532D01*
G01X74228Y8553D01*
G01X74188Y8578D01*
G01X74159Y8613D01*
G01X74147Y8662D01*
G01X74158Y8710D01*
G01X74187Y8746D01*
G01X74233Y8768D01*
G01X74292Y8776D01*
G01X74343Y8771D01*
G01X74388Y8757D01*
G01X74429Y8734D01*
G01X74465Y8705D01*
G01X74508Y8758D01*
G01X74465Y8795D01*
G01X74414Y8824D01*
G01X74356Y8843D01*
G37*

%LPD*%

%LPD*%
G36*
G01X83372Y16585D02*
G01X83190Y16585D01*
G01X83190Y15840D01*
G01X83375Y15840D01*
G01X83429Y15843D01*
G01X83479Y15852D01*
G01X83524Y15866D01*
G01X83564Y15886D01*
G01X83600Y15911D01*
G01X83631Y15941D01*
G01X83657Y15975D01*
G01X83679Y16015D01*
G01X83696Y16059D01*
G01X83708Y16107D01*
G01X83715Y16160D01*
G01X83718Y16216D01*
G01X83715Y16273D01*
G01X83708Y16324D01*
G01X83696Y16372D01*
G01X83679Y16415D01*
G01X83657Y16454D01*
G01X83631Y16488D01*
G01X83600Y16517D01*
G01X83563Y16541D01*
G01X83523Y16560D01*
G01X83478Y16573D01*
G01X83427Y16582D01*
G01X83372Y16585D01*
G37*

%LPC*%
G36*
G01X83365Y16516D02*
G01X83273Y16516D01*
G01X83273Y15909D01*
G01X83365Y15909D01*
G01X83428Y15914D01*
G01X83483Y15930D01*
G01X83528Y15956D01*
G01X83566Y15991D01*
G01X83594Y16035D01*
G01X83615Y16088D01*
G01X83627Y16148D01*
G01X83632Y16216D01*
G01X83627Y16283D01*
G01X83615Y16342D01*
G01X83594Y16394D01*
G01X83566Y16437D01*
G01X83528Y16471D01*
G01X83483Y16496D01*
G01X83428Y16511D01*
G01X83365Y16516D01*
G37*

%LPD*%
G36*
G01X82544Y16585D02*
G01X82458Y16585D01*
G01X82458Y15840D01*
G01X82539Y15840D01*
G01X82539Y16247D01*
G01X82538Y16305D01*
G01X82535Y16362D01*
G01X82532Y16418D01*
G01X82529Y16475D01*
G01X82534Y16475D01*
G01X82616Y16323D01*
G01X82895Y15840D01*
G01X82981Y15840D01*
G01X82981Y16585D01*
G01X82900Y16585D01*
G01X82900Y16181D01*
G01X82902Y16123D01*
G01X82905Y16064D01*
G01X82909Y16006D01*
G01X82913Y15950D01*
G01X82908Y15950D01*
G01X82826Y16102D01*
G01X82544Y16585D01*
G37*

%LPD*%
G36*
G01X82128Y16590D02*
G01X82057Y16597D01*
G01X82009Y16594D01*
G01X81964Y16585D01*
G01X81922Y16570D01*
G01X81883Y16550D01*
G01X81847Y16525D01*
G01X81816Y16494D01*
G01X81788Y16458D01*
G01X81765Y16417D01*
G01X81746Y16372D01*
G01X81733Y16322D01*
G01X81725Y16269D01*
G01X81721Y16211D01*
G01X81728Y16126D01*
G01X81746Y16051D01*
G01X81775Y15985D01*
G01X81814Y15930D01*
G01X81862Y15886D01*
G01X81919Y15854D01*
G01X81982Y15834D01*
G01X82052Y15828D01*
G01X82122Y15834D01*
G01X82185Y15851D01*
G01X82238Y15878D01*
G01X82280Y15911D01*
G01X82280Y16221D01*
G01X82039Y16221D01*
G01X82039Y16150D01*
G01X82202Y16150D01*
G01X82202Y15947D01*
G01X82174Y15928D01*
G01X82140Y15913D01*
G01X82101Y15904D01*
G01X82059Y15901D01*
G01X82002Y15907D01*
G01X81953Y15923D01*
G01X81909Y15950D01*
G01X81873Y15986D01*
G01X81845Y16031D01*
G01X81825Y16085D01*
G01X81812Y16146D01*
G01X81808Y16214D01*
G01X81812Y16282D01*
G01X81825Y16343D01*
G01X81846Y16396D01*
G01X81875Y16440D01*
G01X81911Y16476D01*
G01X81955Y16502D01*
G01X82004Y16518D01*
G01X82059Y16524D01*
G01X82113Y16518D01*
G01X82157Y16502D01*
G01X82193Y16480D01*
G01X82224Y16452D01*
G01X82270Y16506D01*
G01X82233Y16539D01*
G01X82186Y16569D01*
G01X82128Y16590D01*
G37*

%LPD*%

%LPD*%
G36*
G01X80728Y16585D02*
G01X80639Y16585D01*
G01X80878Y15840D01*
G01X80975Y15840D01*
G01X81213Y16585D01*
G01X81127Y16585D01*
G01X81005Y16173D01*
G01X80986Y16110D01*
G01X80950Y15990D01*
G01X80929Y15927D01*
G01X80926Y15927D01*
G01X80907Y15990D01*
G01X80871Y16110D01*
G01X80853Y16173D01*
G01X80728Y16585D01*
G37*

%LPD*%
G36*
G01X80427Y16585D02*
G01X80342Y16597D01*
G01X80283Y16591D01*
G01X80229Y16572D01*
G01X80180Y16545D01*
G01X80137Y16511D01*
G01X80182Y16455D01*
G01X80216Y16485D01*
G01X80254Y16508D01*
G01X80296Y16524D01*
G01X80340Y16531D01*
G01X80394Y16521D01*
G01X80435Y16496D01*
G01X80461Y16457D01*
G01X80469Y16407D01*
G01X80459Y16348D01*
G01X80423Y16302D01*
G01X80359Y16271D01*
G01X80261Y16259D01*
G01X80261Y16196D01*
G01X80371Y16185D01*
G01X80444Y16153D01*
G01X80484Y16104D01*
G01X80497Y16041D01*
G01X80485Y15981D01*
G01X80453Y15935D01*
G01X80403Y15906D01*
G01X80340Y15896D01*
G01X80280Y15903D01*
G01X80230Y15922D01*
G01X80188Y15950D01*
G01X80152Y15983D01*
G01X80111Y15929D01*
G01X80151Y15891D01*
G01X80202Y15859D01*
G01X80267Y15836D01*
G01X80345Y15828D01*
G01X80393Y15831D01*
G01X80437Y15842D01*
G01X80477Y15860D01*
G01X80511Y15883D01*
G01X80539Y15913D01*
G01X80561Y15950D01*
G01X80574Y15992D01*
G01X80578Y16038D01*
G01X80566Y16108D01*
G01X80532Y16164D01*
G01X80482Y16205D01*
G01X80421Y16229D01*
G01X80421Y16231D01*
G01X80475Y16260D01*
G01X80516Y16299D01*
G01X80543Y16350D01*
G01X80553Y16414D01*
G01X80537Y16492D01*
G01X80494Y16549D01*
G01X80427Y16585D01*
G37*

%LPD*%
G36*
G01X79966Y15955D02*
G01X79941Y15960D01*
G01X79918Y15955D01*
G01X79898Y15941D01*
G01X79885Y15919D01*
G01X79880Y15891D01*
G01X79885Y15865D01*
G01X79898Y15845D01*
G01X79918Y15832D01*
G01X79941Y15828D01*
G01X79966Y15832D01*
G01X79986Y15845D01*
G01X79999Y15865D01*
G01X80004Y15891D01*
G01X79999Y15919D01*
G01X79986Y15941D01*
G01X79966Y15955D01*
G37*

%LPD*%
G36*
G01X79596Y16585D02*
G01X79512Y16597D01*
G01X79451Y16591D01*
G01X79396Y16572D01*
G01X79349Y16545D01*
G01X79306Y16511D01*
G01X79352Y16455D01*
G01X79385Y16485D01*
G01X79421Y16508D01*
G01X79462Y16524D01*
G01X79507Y16531D01*
G01X79561Y16521D01*
G01X79603Y16496D01*
G01X79630Y16457D01*
G01X79639Y16407D01*
G01X79627Y16348D01*
G01X79591Y16302D01*
G01X79526Y16271D01*
G01X79428Y16259D01*
G01X79428Y16196D01*
G01X79538Y16185D01*
G01X79611Y16153D01*
G01X79651Y16104D01*
G01X79664Y16041D01*
G01X79652Y15981D01*
G01X79620Y15935D01*
G01X79571Y15906D01*
G01X79509Y15896D01*
G01X79448Y15903D01*
G01X79398Y15922D01*
G01X79356Y15950D01*
G01X79321Y15983D01*
G01X79278Y15929D01*
G01X79319Y15891D01*
G01X79370Y15859D01*
G01X79435Y15836D01*
G01X79514Y15828D01*
G01X79561Y15831D01*
G01X79605Y15842D01*
G01X79645Y15860D01*
G01X79680Y15883D01*
G01X79708Y15913D01*
G01X79730Y15950D01*
G01X79743Y15992D01*
G01X79748Y16038D01*
G01X79735Y16108D01*
G01X79701Y16164D01*
G01X79650Y16205D01*
G01X79588Y16229D01*
G01X79588Y16231D01*
G01X79643Y16260D01*
G01X79686Y16299D01*
G01X79713Y16350D01*
G01X79722Y16414D01*
G01X79707Y16492D01*
G01X79663Y16549D01*
G01X79596Y16585D01*
G37*

%LPD*%

%LPD*%
G36*
G01X78343Y16585D02*
G01X78252Y16585D01*
G01X77998Y15840D01*
G01X78082Y15840D01*
G01X78158Y16074D01*
G01X78435Y16074D01*
G01X78508Y15840D01*
G01X78597Y15840D01*
G01X78343Y16585D01*
G37*

%LPC*%
G36*
G01X78298Y16513D02*
G01X78292Y16513D01*
G01X78275Y16448D01*
G01X78237Y16324D01*
G01X78216Y16262D01*
G01X78178Y16140D01*
G01X78414Y16140D01*
G01X78374Y16262D01*
G01X78353Y16324D01*
G01X78335Y16387D01*
G01X78316Y16449D01*
G01X78298Y16513D01*
G37*

%LPD*%
G36*
G01X77597Y16585D02*
G01X77414Y16585D01*
G01X77414Y15840D01*
G01X77599Y15840D01*
G01X77653Y15843D01*
G01X77703Y15852D01*
G01X77748Y15866D01*
G01X77789Y15886D01*
G01X77824Y15911D01*
G01X77855Y15941D01*
G01X77881Y15975D01*
G01X77903Y16015D01*
G01X77920Y16059D01*
G01X77932Y16107D01*
G01X77939Y16160D01*
G01X77942Y16216D01*
G01X77939Y16273D01*
G01X77932Y16324D01*
G01X77920Y16372D01*
G01X77903Y16415D01*
G01X77881Y16454D01*
G01X77855Y16488D01*
G01X77824Y16517D01*
G01X77788Y16541D01*
G01X77747Y16560D01*
G01X77702Y16573D01*
G01X77651Y16582D01*
G01X77597Y16585D01*
G37*

%LPC*%
G36*
G01X77589Y16516D02*
G01X77497Y16516D01*
G01X77497Y15909D01*
G01X77589Y15909D01*
G01X77652Y15914D01*
G01X77707Y15930D01*
G01X77752Y15956D01*
G01X77790Y15991D01*
G01X77818Y16035D01*
G01X77839Y16088D01*
G01X77852Y16148D01*
G01X77856Y16216D01*
G01X77852Y16283D01*
G01X77839Y16342D01*
G01X77818Y16394D01*
G01X77790Y16437D01*
G01X77752Y16471D01*
G01X77707Y16496D01*
G01X77652Y16511D01*
G01X77589Y16516D01*
G37*

%LPD*%
G36*
G01X77086Y16591D02*
G01X77022Y16597D01*
G01X76931Y16583D01*
G01X76859Y16542D01*
G01X76811Y16481D01*
G01X76794Y16404D01*
G01X76808Y16333D01*
G01X76843Y16279D01*
G01X76891Y16241D01*
G01X76944Y16214D01*
G01X77053Y16165D01*
G01X77103Y16143D01*
G01X77143Y16116D01*
G01X77170Y16080D01*
G01X77180Y16028D01*
G01X77168Y15976D01*
G01X77135Y15936D01*
G01X77083Y15910D01*
G01X77015Y15901D01*
G01X76956Y15908D01*
G01X76901Y15926D01*
G01X76851Y15956D01*
G01X76807Y15995D01*
G01X76756Y15937D01*
G01X76808Y15892D01*
G01X76869Y15858D01*
G01X76938Y15835D01*
G01X77015Y15828D01*
G01X77069Y15832D01*
G01X77118Y15844D01*
G01X77161Y15863D01*
G01X77197Y15888D01*
G01X77225Y15919D01*
G01X77246Y15954D01*
G01X77259Y15993D01*
G01X77264Y16036D01*
G01X77252Y16108D01*
G01X77219Y16161D01*
G01X77169Y16203D01*
G01X77109Y16234D01*
G01X77002Y16280D01*
G01X76959Y16300D01*
G01X76919Y16325D01*
G01X76889Y16361D01*
G01X76878Y16409D01*
G01X76888Y16457D01*
G01X76918Y16493D01*
G01X76964Y16516D01*
G01X77022Y16524D01*
G01X77073Y16518D01*
G01X77118Y16504D01*
G01X77159Y16482D01*
G01X77195Y16452D01*
G01X77238Y16506D01*
G01X77196Y16542D01*
G01X77145Y16571D01*
G01X77086Y16591D01*
G37*

%LPD*%

%LPD*%
G36*
G01X75600Y16585D02*
G01X75516Y16585D01*
G01X75516Y15840D01*
G01X75930Y15840D01*
G01X75930Y15911D01*
G01X75600Y15911D01*
G01X75600Y16585D01*
G37*

%LPD*%
G36*
G01X75219Y16590D02*
G01X75156Y16597D01*
G01X75087Y16591D01*
G01X75025Y16570D01*
G01X74969Y16538D01*
G01X74921Y16494D01*
G01X74882Y16438D01*
G01X74853Y16372D01*
G01X74835Y16296D01*
G01X74828Y16211D01*
G01X74834Y16126D01*
G01X74852Y16051D01*
G01X74881Y15985D01*
G01X74919Y15930D01*
G01X74966Y15886D01*
G01X75021Y15854D01*
G01X75082Y15834D01*
G01X75148Y15828D01*
G01X75216Y15835D01*
G01X75276Y15855D01*
G01X75330Y15889D01*
G01X75377Y15934D01*
G01X75328Y15988D01*
G01X75291Y15951D01*
G01X75249Y15924D01*
G01X75204Y15907D01*
G01X75153Y15901D01*
G01X75101Y15907D01*
G01X75053Y15923D01*
G01X75013Y15950D01*
G01X74978Y15986D01*
G01X74951Y16031D01*
G01X74931Y16085D01*
G01X74918Y16146D01*
G01X74914Y16214D01*
G01X74919Y16282D01*
G01X74932Y16343D01*
G01X74952Y16396D01*
G01X74981Y16440D01*
G01X75015Y16476D01*
G01X75057Y16502D01*
G01X75104Y16518D01*
G01X75156Y16524D01*
G01X75202Y16518D01*
G01X75243Y16504D01*
G01X75280Y16482D01*
G01X75311Y16452D01*
G01X75356Y16506D01*
G01X75320Y16540D01*
G01X75274Y16570D01*
G01X75219Y16590D01*
G37*

%LPD*%
G36*
G01X74546Y16591D02*
G01X74482Y16597D01*
G01X74391Y16583D01*
G01X74319Y16542D01*
G01X74271Y16481D01*
G01X74254Y16404D01*
G01X74268Y16333D01*
G01X74303Y16279D01*
G01X74351Y16241D01*
G01X74404Y16214D01*
G01X74513Y16165D01*
G01X74563Y16143D01*
G01X74603Y16116D01*
G01X74630Y16080D01*
G01X74640Y16028D01*
G01X74628Y15976D01*
G01X74595Y15936D01*
G01X74543Y15910D01*
G01X74475Y15901D01*
G01X74416Y15908D01*
G01X74361Y15926D01*
G01X74311Y15956D01*
G01X74267Y15995D01*
G01X74216Y15937D01*
G01X74268Y15892D01*
G01X74329Y15858D01*
G01X74398Y15835D01*
G01X74475Y15828D01*
G01X74529Y15832D01*
G01X74578Y15844D01*
G01X74621Y15863D01*
G01X74657Y15888D01*
G01X74685Y15919D01*
G01X74706Y15954D01*
G01X74719Y15993D01*
G01X74724Y16036D01*
G01X74712Y16108D01*
G01X74679Y16161D01*
G01X74629Y16203D01*
G01X74569Y16234D01*
G01X74462Y16280D01*
G01X74419Y16300D01*
G01X74379Y16325D01*
G01X74349Y16361D01*
G01X74338Y16409D01*
G01X74348Y16457D01*
G01X74378Y16493D01*
G01X74424Y16516D01*
G01X74482Y16524D01*
G01X74533Y16518D01*
G01X74578Y16504D01*
G01X74619Y16482D01*
G01X74655Y16452D01*
G01X74698Y16506D01*
G01X74656Y16542D01*
G01X74605Y16571D01*
G01X74546Y16591D01*
G37*

%LPD*%

%LPD*%
G36*
G01X83372Y24281D02*
G01X83190Y24281D01*
G01X83190Y23537D01*
G01X83375Y23537D01*
G01X83429Y23540D01*
G01X83479Y23548D01*
G01X83524Y23562D01*
G01X83564Y23582D01*
G01X83600Y23607D01*
G01X83631Y23637D01*
G01X83657Y23672D01*
G01X83679Y23711D01*
G01X83696Y23755D01*
G01X83708Y23803D01*
G01X83715Y23856D01*
G01X83718Y23912D01*
G01X83715Y23969D01*
G01X83708Y24021D01*
G01X83696Y24068D01*
G01X83679Y24112D01*
G01X83657Y24150D01*
G01X83631Y24184D01*
G01X83600Y24213D01*
G01X83563Y24237D01*
G01X83523Y24256D01*
G01X83478Y24270D01*
G01X83427Y24278D01*
G01X83372Y24281D01*
G37*

%LPC*%
G36*
G01X83365Y24212D02*
G01X83273Y24212D01*
G01X83273Y23605D01*
G01X83365Y23605D01*
G01X83428Y23611D01*
G01X83483Y23626D01*
G01X83528Y23652D01*
G01X83566Y23687D01*
G01X83594Y23732D01*
G01X83615Y23784D01*
G01X83627Y23844D01*
G01X83632Y23912D01*
G01X83627Y23979D01*
G01X83615Y24038D01*
G01X83594Y24090D01*
G01X83566Y24133D01*
G01X83528Y24167D01*
G01X83483Y24192D01*
G01X83428Y24207D01*
G01X83365Y24212D01*
G37*

%LPD*%
G36*
G01X82544Y24281D02*
G01X82458Y24281D01*
G01X82458Y23537D01*
G01X82539Y23537D01*
G01X82539Y23943D01*
G01X82538Y24001D01*
G01X82529Y24172D01*
G01X82534Y24172D01*
G01X82616Y24019D01*
G01X82895Y23537D01*
G01X82981Y23537D01*
G01X82981Y24281D01*
G01X82900Y24281D01*
G01X82900Y23877D01*
G01X82902Y23819D01*
G01X82905Y23761D01*
G01X82909Y23702D01*
G01X82913Y23646D01*
G01X82908Y23646D01*
G01X82826Y23798D01*
G01X82544Y24281D01*
G37*

%LPD*%
G36*
G01X82128Y24286D02*
G01X82057Y24293D01*
G01X82009Y24290D01*
G01X81964Y24281D01*
G01X81922Y24267D01*
G01X81883Y24246D01*
G01X81847Y24221D01*
G01X81816Y24190D01*
G01X81788Y24154D01*
G01X81765Y24114D01*
G01X81746Y24068D01*
G01X81733Y24019D01*
G01X81725Y23965D01*
G01X81721Y23907D01*
G01X81728Y23823D01*
G01X81746Y23747D01*
G01X81775Y23681D01*
G01X81814Y23626D01*
G01X81862Y23582D01*
G01X81919Y23550D01*
G01X81982Y23530D01*
G01X82052Y23524D01*
G01X82122Y23530D01*
G01X82185Y23548D01*
G01X82238Y23574D01*
G01X82280Y23608D01*
G01X82280Y23918D01*
G01X82039Y23918D01*
G01X82039Y23846D01*
G01X82202Y23846D01*
G01X82202Y23643D01*
G01X82174Y23624D01*
G01X82140Y23610D01*
G01X82101Y23601D01*
G01X82059Y23597D01*
G01X82002Y23603D01*
G01X81953Y23619D01*
G01X81909Y23646D01*
G01X81873Y23682D01*
G01X81845Y23728D01*
G01X81825Y23781D01*
G01X81812Y23842D01*
G01X81808Y23910D01*
G01X81812Y23978D01*
G01X81825Y24039D01*
G01X81846Y24092D01*
G01X81875Y24136D01*
G01X81911Y24172D01*
G01X81955Y24198D01*
G01X82004Y24214D01*
G01X82059Y24220D01*
G01X82113Y24214D01*
G01X82157Y24198D01*
G01X82193Y24176D01*
G01X82224Y24149D01*
G01X82270Y24202D01*
G01X82233Y24236D01*
G01X82186Y24265D01*
G01X82128Y24286D01*
G37*

%LPD*%

%LPD*%
G36*
G01X80728Y24281D02*
G01X80639Y24281D01*
G01X80878Y23537D01*
G01X80975Y23537D01*
G01X81213Y24281D01*
G01X81127Y24281D01*
G01X81005Y23869D01*
G01X80986Y23806D01*
G01X80950Y23686D01*
G01X80929Y23623D01*
G01X80926Y23623D01*
G01X80907Y23686D01*
G01X80871Y23806D01*
G01X80853Y23869D01*
G01X80728Y24281D01*
G37*

%LPD*%
G36*
G01X80427Y24281D02*
G01X80342Y24293D01*
G01X80283Y24287D01*
G01X80229Y24269D01*
G01X80180Y24241D01*
G01X80137Y24207D01*
G01X80182Y24151D01*
G01X80216Y24181D01*
G01X80254Y24205D01*
G01X80296Y24220D01*
G01X80340Y24227D01*
G01X80394Y24217D01*
G01X80435Y24192D01*
G01X80461Y24153D01*
G01X80469Y24103D01*
G01X80459Y24045D01*
G01X80423Y23998D01*
G01X80359Y23967D01*
G01X80261Y23956D01*
G01X80261Y23892D01*
G01X80371Y23881D01*
G01X80444Y23849D01*
G01X80484Y23800D01*
G01X80497Y23737D01*
G01X80485Y23677D01*
G01X80453Y23632D01*
G01X80403Y23603D01*
G01X80340Y23592D01*
G01X80280Y23600D01*
G01X80230Y23618D01*
G01X80188Y23646D01*
G01X80152Y23679D01*
G01X80111Y23625D01*
G01X80151Y23587D01*
G01X80202Y23555D01*
G01X80267Y23532D01*
G01X80345Y23524D01*
G01X80393Y23527D01*
G01X80437Y23538D01*
G01X80477Y23556D01*
G01X80511Y23580D01*
G01X80539Y23610D01*
G01X80561Y23646D01*
G01X80574Y23688D01*
G01X80578Y23735D01*
G01X80566Y23804D01*
G01X80532Y23860D01*
G01X80482Y23901D01*
G01X80421Y23925D01*
G01X80421Y23928D01*
G01X80475Y23956D01*
G01X80516Y23995D01*
G01X80543Y24047D01*
G01X80553Y24111D01*
G01X80537Y24188D01*
G01X80494Y24246D01*
G01X80427Y24281D01*
G37*

%LPD*%
G36*
G01X79966Y23651D02*
G01X79941Y23656D01*
G01X79918Y23651D01*
G01X79898Y23637D01*
G01X79885Y23615D01*
G01X79880Y23587D01*
G01X79885Y23561D01*
G01X79898Y23541D01*
G01X79918Y23528D01*
G01X79941Y23524D01*
G01X79966Y23528D01*
G01X79986Y23541D01*
G01X79999Y23561D01*
G01X80004Y23587D01*
G01X79999Y23615D01*
G01X79986Y23637D01*
G01X79966Y23651D01*
G37*

%LPD*%
G36*
G01X79596Y24281D02*
G01X79512Y24293D01*
G01X79451Y24287D01*
G01X79396Y24269D01*
G01X79349Y24241D01*
G01X79306Y24207D01*
G01X79352Y24151D01*
G01X79385Y24181D01*
G01X79421Y24205D01*
G01X79462Y24220D01*
G01X79507Y24227D01*
G01X79561Y24217D01*
G01X79603Y24192D01*
G01X79630Y24153D01*
G01X79639Y24103D01*
G01X79627Y24045D01*
G01X79591Y23998D01*
G01X79526Y23967D01*
G01X79428Y23956D01*
G01X79428Y23892D01*
G01X79538Y23881D01*
G01X79611Y23849D01*
G01X79651Y23800D01*
G01X79664Y23737D01*
G01X79652Y23677D01*
G01X79620Y23632D01*
G01X79571Y23603D01*
G01X79509Y23592D01*
G01X79448Y23600D01*
G01X79398Y23618D01*
G01X79356Y23646D01*
G01X79321Y23679D01*
G01X79278Y23625D01*
G01X79319Y23587D01*
G01X79370Y23555D01*
G01X79435Y23532D01*
G01X79514Y23524D01*
G01X79561Y23527D01*
G01X79605Y23538D01*
G01X79645Y23556D01*
G01X79680Y23580D01*
G01X79708Y23610D01*
G01X79730Y23646D01*
G01X79743Y23688D01*
G01X79748Y23735D01*
G01X79735Y23804D01*
G01X79701Y23860D01*
G01X79650Y23901D01*
G01X79588Y23925D01*
G01X79588Y23928D01*
G01X79643Y23956D01*
G01X79686Y23995D01*
G01X79713Y24047D01*
G01X79722Y24111D01*
G01X79707Y24188D01*
G01X79663Y24246D01*
G01X79596Y24281D01*
G37*

%LPD*%

%LPD*%
G36*
G01X78343Y24281D02*
G01X78252Y24281D01*
G01X77998Y23537D01*
G01X78082Y23537D01*
G01X78158Y23770D01*
G01X78435Y23770D01*
G01X78508Y23537D01*
G01X78597Y23537D01*
G01X78343Y24281D01*
G37*

%LPC*%
G36*
G01X78298Y24210D02*
G01X78292Y24210D01*
G01X78275Y24145D01*
G01X78256Y24082D01*
G01X78237Y24020D01*
G01X78216Y23958D01*
G01X78178Y23836D01*
G01X78414Y23836D01*
G01X78374Y23958D01*
G01X78353Y24021D01*
G01X78335Y24083D01*
G01X78316Y24146D01*
G01X78298Y24210D01*
G37*

%LPD*%
G36*
G01X77597Y24281D02*
G01X77414Y24281D01*
G01X77414Y23537D01*
G01X77599Y23537D01*
G01X77653Y23540D01*
G01X77703Y23548D01*
G01X77748Y23562D01*
G01X77789Y23582D01*
G01X77824Y23607D01*
G01X77855Y23637D01*
G01X77881Y23672D01*
G01X77903Y23711D01*
G01X77920Y23755D01*
G01X77932Y23803D01*
G01X77939Y23856D01*
G01X77942Y23912D01*
G01X77939Y23969D01*
G01X77932Y24021D01*
G01X77920Y24068D01*
G01X77903Y24112D01*
G01X77881Y24150D01*
G01X77855Y24184D01*
G01X77824Y24213D01*
G01X77788Y24237D01*
G01X77747Y24256D01*
G01X77702Y24270D01*
G01X77651Y24278D01*
G01X77597Y24281D01*
G37*

%LPC*%
G36*
G01X77589Y24212D02*
G01X77497Y24212D01*
G01X77497Y23605D01*
G01X77589Y23605D01*
G01X77652Y23611D01*
G01X77707Y23626D01*
G01X77752Y23652D01*
G01X77790Y23687D01*
G01X77818Y23732D01*
G01X77839Y23784D01*
G01X77852Y23844D01*
G01X77856Y23912D01*
G01X77852Y23979D01*
G01X77839Y24038D01*
G01X77818Y24090D01*
G01X77790Y24133D01*
G01X77752Y24167D01*
G01X77707Y24192D01*
G01X77652Y24207D01*
G01X77589Y24212D01*
G37*

%LPD*%
G36*
G01X77086Y24287D02*
G01X77022Y24293D01*
G01X76931Y24279D01*
G01X76859Y24239D01*
G01X76811Y24178D01*
G01X76794Y24100D01*
G01X76808Y24029D01*
G01X76843Y23975D01*
G01X76891Y23937D01*
G01X76944Y23910D01*
G01X77053Y23862D01*
G01X77103Y23839D01*
G01X77143Y23812D01*
G01X77170Y23776D01*
G01X77180Y23724D01*
G01X77168Y23673D01*
G01X77135Y23633D01*
G01X77083Y23607D01*
G01X77015Y23597D01*
G01X76956Y23604D01*
G01X76901Y23622D01*
G01X76851Y23652D01*
G01X76807Y23691D01*
G01X76756Y23633D01*
G01X76808Y23588D01*
G01X76869Y23554D01*
G01X76938Y23531D01*
G01X77015Y23524D01*
G01X77069Y23528D01*
G01X77118Y23540D01*
G01X77161Y23559D01*
G01X77197Y23584D01*
G01X77225Y23615D01*
G01X77246Y23650D01*
G01X77259Y23689D01*
G01X77264Y23732D01*
G01X77252Y23804D01*
G01X77219Y23858D01*
G01X77169Y23899D01*
G01X77109Y23930D01*
G01X77002Y23976D01*
G01X76959Y23996D01*
G01X76919Y24022D01*
G01X76889Y24057D01*
G01X76878Y24105D01*
G01X76888Y24153D01*
G01X76918Y24189D01*
G01X76964Y24212D01*
G01X77022Y24220D01*
G01X77073Y24215D01*
G01X77118Y24200D01*
G01X77159Y24178D01*
G01X77195Y24149D01*
G01X77238Y24202D01*
G01X77196Y24239D01*
G01X77145Y24268D01*
G01X77086Y24287D01*
G37*

%LPD*%

%LPD*%
G36*
G01X75600Y24281D02*
G01X75516Y24281D01*
G01X75516Y23537D01*
G01X75930Y23537D01*
G01X75930Y23608D01*
G01X75600Y23608D01*
G01X75600Y24281D01*
G37*

%LPD*%
G36*
G01X75219Y24286D02*
G01X75156Y24293D01*
G01X75087Y24287D01*
G01X75025Y24267D01*
G01X74969Y24234D01*
G01X74921Y24190D01*
G01X74882Y24134D01*
G01X74853Y24068D01*
G01X74835Y23993D01*
G01X74828Y23907D01*
G01X74834Y23823D01*
G01X74852Y23747D01*
G01X74881Y23681D01*
G01X74919Y23626D01*
G01X74966Y23582D01*
G01X75021Y23550D01*
G01X75082Y23530D01*
G01X75148Y23524D01*
G01X75216Y23531D01*
G01X75276Y23551D01*
G01X75330Y23585D01*
G01X75377Y23630D01*
G01X75328Y23684D01*
G01X75291Y23647D01*
G01X75249Y23620D01*
G01X75204Y23603D01*
G01X75153Y23597D01*
G01X75101Y23603D01*
G01X75053Y23619D01*
G01X75013Y23646D01*
G01X74978Y23682D01*
G01X74951Y23728D01*
G01X74931Y23781D01*
G01X74918Y23842D01*
G01X74914Y23910D01*
G01X74919Y23978D01*
G01X74932Y24039D01*
G01X74952Y24092D01*
G01X74981Y24136D01*
G01X75015Y24172D01*
G01X75057Y24198D01*
G01X75104Y24214D01*
G01X75156Y24220D01*
G01X75202Y24215D01*
G01X75243Y24200D01*
G01X75280Y24178D01*
G01X75311Y24149D01*
G01X75356Y24202D01*
G01X75320Y24237D01*
G01X75274Y24266D01*
G01X75219Y24286D01*
G37*

%LPD*%
G36*
G01X74546Y24287D02*
G01X74482Y24293D01*
G01X74391Y24279D01*
G01X74319Y24239D01*
G01X74271Y24178D01*
G01X74254Y24100D01*
G01X74268Y24029D01*
G01X74303Y23975D01*
G01X74351Y23937D01*
G01X74404Y23910D01*
G01X74513Y23862D01*
G01X74563Y23839D01*
G01X74603Y23812D01*
G01X74630Y23776D01*
G01X74640Y23724D01*
G01X74628Y23673D01*
G01X74595Y23633D01*
G01X74543Y23607D01*
G01X74475Y23597D01*
G01X74416Y23604D01*
G01X74361Y23622D01*
G01X74311Y23652D01*
G01X74267Y23691D01*
G01X74216Y23633D01*
G01X74268Y23588D01*
G01X74329Y23554D01*
G01X74398Y23531D01*
G01X74475Y23524D01*
G01X74529Y23528D01*
G01X74578Y23540D01*
G01X74621Y23559D01*
G01X74657Y23584D01*
G01X74685Y23615D01*
G01X74706Y23650D01*
G01X74719Y23689D01*
G01X74724Y23732D01*
G01X74712Y23804D01*
G01X74679Y23858D01*
G01X74629Y23899D01*
G01X74569Y23930D01*
G01X74462Y23976D01*
G01X74419Y23996D01*
G01X74379Y24022D01*
G01X74349Y24057D01*
G01X74338Y24105D01*
G01X74348Y24153D01*
G01X74378Y24189D01*
G01X74424Y24212D01*
G01X74482Y24220D01*
G01X74533Y24215D01*
G01X74578Y24200D01*
G01X74619Y24178D01*
G01X74655Y24149D01*
G01X74698Y24202D01*
G01X74656Y24239D01*
G01X74605Y24268D01*
G01X74546Y24287D01*
G37*

%LPD*%

%LPD*%
G36*
G01X45351Y19709D02*
G01X45262Y19709D01*
G01X45501Y18965D01*
G01X45598Y18965D01*
G01X45836Y19709D01*
G01X45750Y19709D01*
G01X45628Y19297D01*
G01X45609Y19234D01*
G01X45591Y19174D01*
G01X45574Y19114D01*
G01X45554Y19051D01*
G01X45549Y19051D01*
G01X45530Y19114D01*
G01X45512Y19174D01*
G01X45495Y19234D01*
G01X45476Y19297D01*
G01X45351Y19709D01*
G37*

%LPD*%
G36*
G01X45171Y19709D02*
G01X44815Y19709D01*
G01X44792Y19363D01*
G01X44838Y19335D01*
G01X44869Y19354D01*
G01X44898Y19367D01*
G01X44928Y19375D01*
G01X44963Y19379D01*
G01X45028Y19366D01*
G01X45079Y19332D01*
G01X45111Y19277D01*
G01X45123Y19203D01*
G01X45110Y19128D01*
G01X45075Y19070D01*
G01X45023Y19033D01*
G01X44960Y19020D01*
G01X44899Y19028D01*
G01X44849Y19046D01*
G01X44808Y19073D01*
G01X44775Y19104D01*
G01X44731Y19051D01*
G01X44774Y19014D01*
G01X44825Y18982D01*
G01X44888Y18960D01*
G01X44968Y18952D01*
G01X45013Y18956D01*
G01X45057Y18969D01*
G01X45097Y18989D01*
G01X45133Y19018D01*
G01X45163Y19054D01*
G01X45186Y19098D01*
G01X45201Y19148D01*
G01X45206Y19206D01*
G01X45202Y19263D01*
G01X45189Y19312D01*
G01X45168Y19353D01*
G01X45141Y19386D01*
G01X45108Y19411D01*
G01X45070Y19428D01*
G01X45028Y19438D01*
G01X44983Y19442D01*
G01X44950Y19440D01*
G01X44921Y19434D01*
G01X44894Y19425D01*
G01X44869Y19412D01*
G01X44889Y19638D01*
G01X45171Y19638D01*
G01X45171Y19709D01*
G37*

%LPD*%

%LPD*%
G36*
G01X46131Y21741D02*
G01X46047Y21741D01*
G01X46047Y20997D01*
G01X46131Y20997D01*
G01X46131Y21741D01*
G37*

%LPD*%
G36*
G01X45638Y21741D02*
G01X45410Y21741D01*
G01X45410Y20997D01*
G01X45496Y20997D01*
G01X45496Y21317D01*
G01X45633Y21317D01*
G01X45821Y20997D01*
G01X45915Y20997D01*
G01X45722Y21327D01*
G01X45793Y21353D01*
G01X45848Y21396D01*
G01X45883Y21456D01*
G01X45895Y21535D01*
G01X45890Y21588D01*
G01X45876Y21632D01*
G01X45854Y21667D01*
G01X45824Y21695D01*
G01X45787Y21716D01*
G01X45742Y21730D01*
G01X45693Y21738D01*
G01X45638Y21741D01*
G37*

%LPC*%
G36*
G01X45626Y21672D02*
G01X45496Y21672D01*
G01X45496Y21388D01*
G01X45626Y21388D01*
G01X45705Y21396D01*
G01X45763Y21423D01*
G01X45799Y21469D01*
G01X45811Y21535D01*
G01X45799Y21600D01*
G01X45763Y21642D01*
G01X45705Y21665D01*
G01X45626Y21672D01*
G37*

%LPD*%
G36*
G01X45275Y21741D02*
G01X44737Y21741D01*
G01X44737Y21670D01*
G01X44963Y21670D01*
G01X44963Y20997D01*
G01X45049Y20997D01*
G01X45049Y21670D01*
G01X45275Y21670D01*
G01X45275Y21741D01*
G37*

%LPD*%
G36*
G01X47398Y21746D02*
G01X47327Y21753D01*
G01X47280Y21750D01*
G01X47234Y21741D01*
G01X47192Y21727D01*
G01X47153Y21706D01*
G01X47117Y21681D01*
G01X47085Y21650D01*
G01X47057Y21614D01*
G01X47034Y21574D01*
G01X47015Y21528D01*
G01X47001Y21479D01*
G01X46993Y21425D01*
G01X46990Y21367D01*
G01X46996Y21283D01*
G01X47014Y21207D01*
G01X47043Y21141D01*
G01X47082Y21086D01*
G01X47131Y21042D01*
G01X47188Y21010D01*
G01X47252Y20990D01*
G01X47322Y20984D01*
G01X47393Y20990D01*
G01X47455Y21008D01*
G01X47508Y21034D01*
G01X47548Y21068D01*
G01X47548Y21378D01*
G01X47310Y21378D01*
G01X47310Y21306D01*
G01X47472Y21306D01*
G01X47472Y21103D01*
G01X47445Y21084D01*
G01X47411Y21070D01*
G01X47372Y21061D01*
G01X47330Y21057D01*
G01X47272Y21063D01*
G01X47222Y21079D01*
G01X47178Y21106D01*
G01X47142Y21142D01*
G01X47113Y21188D01*
G01X47093Y21241D01*
G01X47080Y21302D01*
G01X47076Y21370D01*
G01X47080Y21438D01*
G01X47094Y21499D01*
G01X47115Y21552D01*
G01X47145Y21596D01*
G01X47182Y21632D01*
G01X47225Y21658D01*
G01X47274Y21674D01*
G01X47330Y21680D01*
G01X47382Y21674D01*
G01X47426Y21658D01*
G01X47463Y21636D01*
G01X47492Y21609D01*
G01X47541Y21662D01*
G01X47504Y21696D01*
G01X47457Y21725D01*
G01X47398Y21746D01*
G37*

%LPD*%
G36*
G01X46703Y21746D02*
G01X46634Y21753D01*
G01X46586Y21750D01*
G01X46540Y21741D01*
G01X46498Y21727D01*
G01X46458Y21706D01*
G01X46423Y21681D01*
G01X46391Y21650D01*
G01X46363Y21614D01*
G01X46340Y21574D01*
G01X46321Y21528D01*
G01X46307Y21479D01*
G01X46299Y21425D01*
G01X46296Y21367D01*
G01X46302Y21283D01*
G01X46320Y21207D01*
G01X46349Y21141D01*
G01X46389Y21086D01*
G01X46437Y21042D01*
G01X46493Y21010D01*
G01X46557Y20990D01*
G01X46626Y20984D01*
G01X46697Y20990D01*
G01X46760Y21008D01*
G01X46813Y21034D01*
G01X46855Y21068D01*
G01X46855Y21378D01*
G01X46614Y21378D01*
G01X46614Y21306D01*
G01X46776Y21306D01*
G01X46776Y21103D01*
G01X46749Y21084D01*
G01X46715Y21070D01*
G01X46676Y21061D01*
G01X46634Y21057D01*
G01X46577Y21063D01*
G01X46527Y21079D01*
G01X46484Y21106D01*
G01X46448Y21142D01*
G01X46420Y21188D01*
G01X46399Y21241D01*
G01X46387Y21302D01*
G01X46382Y21370D01*
G01X46387Y21438D01*
G01X46400Y21499D01*
G01X46422Y21552D01*
G01X46451Y21596D01*
G01X46488Y21632D01*
G01X46530Y21658D01*
G01X46580Y21674D01*
G01X46634Y21680D01*
G01X46688Y21674D01*
G01X46732Y21658D01*
G01X46768Y21636D01*
G01X46799Y21609D01*
G01X46845Y21662D01*
G01X46808Y21696D01*
G01X46761Y21725D01*
G01X46703Y21746D01*
G37*

%LPD*%

%LPD*%
G36*
G01X46128Y23519D02*
G01X46045Y23519D01*
G01X46045Y22775D01*
G01X46128Y22775D01*
G01X46128Y23130D01*
G01X46487Y23130D01*
G01X46487Y22775D01*
G01X46573Y22775D01*
G01X46573Y23519D01*
G01X46487Y23519D01*
G01X46487Y23204D01*
G01X46128Y23204D01*
G01X46128Y23519D01*
G37*

%LPD*%
G36*
G01X45232Y23519D02*
G01X44808Y23519D01*
G01X44808Y22775D01*
G01X45242Y22775D01*
G01X45242Y22846D01*
G01X44891Y22846D01*
G01X44891Y23130D01*
G01X45176Y23130D01*
G01X45176Y23201D01*
G01X44891Y23201D01*
G01X44891Y23448D01*
G01X45232Y23448D01*
G01X45232Y23519D01*
G37*

%LPD*%
G36*
G01X47114Y23525D02*
G01X47048Y23531D01*
G01X46982Y23525D01*
G01X46922Y23505D01*
G01X46869Y23473D01*
G01X46823Y23429D01*
G01X46786Y23375D01*
G01X46758Y23309D01*
G01X46742Y23235D01*
G01X46736Y23150D01*
G01X46742Y23065D01*
G01X46758Y22989D01*
G01X46786Y22922D01*
G01X46823Y22866D01*
G01X46869Y22822D01*
G01X46922Y22789D01*
G01X46982Y22769D01*
G01X47048Y22762D01*
G01X47114Y22769D01*
G01X47175Y22789D01*
G01X47229Y22822D01*
G01X47275Y22866D01*
G01X47312Y22922D01*
G01X47340Y22989D01*
G01X47357Y23065D01*
G01X47363Y23150D01*
G01X47357Y23235D01*
G01X47340Y23309D01*
G01X47312Y23375D01*
G01X47275Y23429D01*
G01X47229Y23473D01*
G01X47175Y23505D01*
G01X47114Y23525D01*
G37*

%LPC*%
G36*
G01X47098Y23452D02*
G01X47048Y23458D01*
G01X46999Y23452D01*
G01X46955Y23436D01*
G01X46916Y23410D01*
G01X46883Y23374D01*
G01X46857Y23330D01*
G01X46838Y23278D01*
G01X46826Y23217D01*
G01X46822Y23150D01*
G01X46826Y23081D01*
G01X46838Y23020D01*
G01X46857Y22966D01*
G01X46883Y22920D01*
G01X46916Y22884D01*
G01X46955Y22857D01*
G01X46999Y22841D01*
G01X47048Y22835D01*
G01X47098Y22841D01*
G01X47142Y22857D01*
G01X47182Y22884D01*
G01X47215Y22920D01*
G01X47241Y22966D01*
G01X47260Y23020D01*
G01X47272Y23081D01*
G01X47277Y23150D01*
G01X47272Y23217D01*
G01X47260Y23278D01*
G01X47241Y23330D01*
G01X47215Y23374D01*
G01X47182Y23410D01*
G01X47142Y23436D01*
G01X47098Y23452D01*
G37*

%LPD*%
G36*
G01X45747Y23524D02*
G01X45684Y23531D01*
G01X45616Y23525D01*
G01X45553Y23505D01*
G01X45498Y23472D01*
G01X45450Y23428D01*
G01X45411Y23372D01*
G01X45381Y23306D01*
G01X45363Y23231D01*
G01X45356Y23145D01*
G01X45362Y23061D01*
G01X45381Y22985D01*
G01X45409Y22919D01*
G01X45448Y22864D01*
G01X45494Y22820D01*
G01X45549Y22788D01*
G01X45610Y22768D01*
G01X45676Y22762D01*
G01X45744Y22769D01*
G01X45805Y22789D01*
G01X45857Y22823D01*
G01X45902Y22868D01*
G01X45857Y22922D01*
G01X45819Y22885D01*
G01X45777Y22858D01*
G01X45732Y22841D01*
G01X45681Y22835D01*
G01X45629Y22841D01*
G01X45582Y22857D01*
G01X45541Y22884D01*
G01X45507Y22920D01*
G01X45479Y22966D01*
G01X45459Y23019D01*
G01X45447Y23080D01*
G01X45443Y23148D01*
G01X45447Y23216D01*
G01X45460Y23277D01*
G01X45481Y23330D01*
G01X45509Y23374D01*
G01X45544Y23410D01*
G01X45585Y23436D01*
G01X45632Y23452D01*
G01X45684Y23458D01*
G01X45731Y23453D01*
G01X45772Y23438D01*
G01X45808Y23416D01*
G01X45839Y23387D01*
G01X45885Y23440D01*
G01X45848Y23475D01*
G01X45801Y23504D01*
G01X45747Y23524D01*
G37*

%LPD*%

%LPD*%
G36*
G01X46288Y25551D02*
G01X46106Y25551D01*
G01X46106Y24807D01*
G01X46291Y24807D01*
G01X46345Y24810D01*
G01X46395Y24818D01*
G01X46440Y24832D01*
G01X46480Y24852D01*
G01X46516Y24877D01*
G01X46547Y24907D01*
G01X46573Y24942D01*
G01X46595Y24981D01*
G01X46612Y25025D01*
G01X46624Y25073D01*
G01X46631Y25126D01*
G01X46634Y25182D01*
G01X46631Y25239D01*
G01X46624Y25291D01*
G01X46612Y25338D01*
G01X46595Y25382D01*
G01X46573Y25420D01*
G01X46547Y25454D01*
G01X46516Y25483D01*
G01X46479Y25507D01*
G01X46439Y25526D01*
G01X46394Y25540D01*
G01X46343Y25548D01*
G01X46288Y25551D01*
G37*

%LPC*%
G36*
G01X46281Y25482D02*
G01X46189Y25482D01*
G01X46189Y24875D01*
G01X46281Y24875D01*
G01X46344Y24881D01*
G01X46399Y24896D01*
G01X46444Y24922D01*
G01X46482Y24957D01*
G01X46511Y25002D01*
G01X46531Y25054D01*
G01X46543Y25114D01*
G01X46548Y25182D01*
G01X46543Y25249D01*
G01X46531Y25308D01*
G01X46511Y25360D01*
G01X46482Y25403D01*
G01X46444Y25437D01*
G01X46399Y25462D01*
G01X46344Y25477D01*
G01X46281Y25482D01*
G37*

%LPD*%
G36*
G01X45460Y25551D02*
G01X45374Y25551D01*
G01X45374Y24807D01*
G01X45455Y24807D01*
G01X45455Y25213D01*
G01X45454Y25271D01*
G01X45445Y25442D01*
G01X45450Y25442D01*
G01X45532Y25289D01*
G01X45811Y24807D01*
G01X45897Y24807D01*
G01X45897Y25551D01*
G01X45816Y25551D01*
G01X45816Y25147D01*
G01X45818Y25089D01*
G01X45821Y25031D01*
G01X45825Y24972D01*
G01X45829Y24916D01*
G01X45824Y24916D01*
G01X45742Y25068D01*
G01X45460Y25551D01*
G37*

%LPD*%
G36*
G01X45044Y25556D02*
G01X44973Y25563D01*
G01X44925Y25560D01*
G01X44880Y25551D01*
G01X44838Y25537D01*
G01X44799Y25516D01*
G01X44763Y25491D01*
G01X44732Y25460D01*
G01X44704Y25424D01*
G01X44681Y25384D01*
G01X44662Y25338D01*
G01X44649Y25289D01*
G01X44641Y25235D01*
G01X44637Y25177D01*
G01X44644Y25093D01*
G01X44662Y25017D01*
G01X44691Y24951D01*
G01X44730Y24896D01*
G01X44778Y24852D01*
G01X44835Y24820D01*
G01X44898Y24800D01*
G01X44968Y24794D01*
G01X45038Y24800D01*
G01X45101Y24818D01*
G01X45154Y24844D01*
G01X45196Y24878D01*
G01X45196Y25188D01*
G01X44955Y25188D01*
G01X44955Y25116D01*
G01X45118Y25116D01*
G01X45118Y24913D01*
G01X45091Y24894D01*
G01X45056Y24880D01*
G01X45017Y24871D01*
G01X44975Y24867D01*
G01X44918Y24873D01*
G01X44869Y24889D01*
G01X44825Y24916D01*
G01X44789Y24952D01*
G01X44761Y24998D01*
G01X44741Y25051D01*
G01X44728Y25112D01*
G01X44724Y25180D01*
G01X44728Y25248D01*
G01X44742Y25309D01*
G01X44762Y25362D01*
G01X44791Y25406D01*
G01X44827Y25442D01*
G01X44871Y25468D01*
G01X44920Y25484D01*
G01X44975Y25490D01*
G01X45029Y25484D01*
G01X45073Y25468D01*
G01X45109Y25446D01*
G01X45140Y25419D01*
G01X45186Y25472D01*
G01X45149Y25506D01*
G01X45102Y25535D01*
G01X45044Y25556D01*
G37*

%LPD*%

%LPD*%
G36*
G01X73131Y17931D02*
G01X73047Y17931D01*
G01X73047Y17187D01*
G01X73131Y17187D01*
G01X73131Y17425D01*
G01X73263Y17583D01*
G01X73492Y17187D01*
G01X73586Y17187D01*
G01X73319Y17649D01*
G01X73553Y17931D01*
G01X73456Y17931D01*
G01X73134Y17547D01*
G01X73131Y17547D01*
G01X73131Y17931D01*
G37*

%LPD*%
G36*
G01X72588Y17931D02*
G01X72501Y17931D01*
G01X72501Y17187D01*
G01X72915Y17187D01*
G01X72915Y17258D01*
G01X72588Y17258D01*
G01X72588Y17931D01*
G37*

%LPD*%
G36*
G01X72205Y17936D02*
G01X72141Y17943D01*
G01X72073Y17937D01*
G01X72011Y17917D01*
G01X71955Y17884D01*
G01X71907Y17840D01*
G01X71869Y17784D01*
G01X71840Y17718D01*
G01X71822Y17643D01*
G01X71815Y17557D01*
G01X71822Y17473D01*
G01X71839Y17397D01*
G01X71868Y17331D01*
G01X71906Y17276D01*
G01X71953Y17232D01*
G01X72007Y17200D01*
G01X72068Y17180D01*
G01X72136Y17174D01*
G01X72204Y17181D01*
G01X72263Y17201D01*
G01X72315Y17235D01*
G01X72362Y17280D01*
G01X72313Y17334D01*
G01X72276Y17297D01*
G01X72235Y17270D01*
G01X72190Y17253D01*
G01X72138Y17247D01*
G01X72086Y17253D01*
G01X72040Y17269D01*
G01X72000Y17296D01*
G01X71966Y17332D01*
G01X71938Y17378D01*
G01X71919Y17431D01*
G01X71906Y17492D01*
G01X71902Y17560D01*
G01X71906Y17628D01*
G01X71919Y17689D01*
G01X71939Y17742D01*
G01X71967Y17786D01*
G01X72001Y17822D01*
G01X72042Y17848D01*
G01X72089Y17864D01*
G01X72141Y17870D01*
G01X72187Y17865D01*
G01X72228Y17850D01*
G01X72265Y17828D01*
G01X72296Y17799D01*
G01X72344Y17852D01*
G01X72307Y17887D01*
G01X72260Y17916D01*
G01X72205Y17936D01*
G37*

%LPD*%

%LPD*%
G36*
G01X72760Y15391D02*
G01X72674Y15391D01*
G01X72674Y14647D01*
G01X72760Y14647D01*
G01X72760Y15391D01*
G37*

%LPD*%
G36*
G01X71963Y15391D02*
G01X71859Y15391D01*
G01X71859Y14647D01*
G01X71935Y14647D01*
G01X71935Y15076D01*
G01X71934Y15127D01*
G01X71931Y15183D01*
G01X71927Y15239D01*
G01X71925Y15292D01*
G01X71927Y15292D01*
G01X71988Y15124D01*
G01X72133Y14723D01*
G01X72191Y14723D01*
G01X72336Y15124D01*
G01X72395Y15292D01*
G01X72400Y15292D01*
G01X72396Y15239D01*
G01X72393Y15183D01*
G01X72391Y15127D01*
G01X72390Y15076D01*
G01X72390Y14647D01*
G01X72468Y14647D01*
G01X72468Y15391D01*
G01X72364Y15391D01*
G01X72219Y14984D01*
G01X72180Y14864D01*
G01X72166Y14824D01*
G01X72161Y14824D01*
G01X72121Y14944D01*
G01X72108Y14984D01*
G01X71963Y15391D01*
G37*

%LPD*%
G36*
G01X73904Y15397D02*
G01X73837Y15403D01*
G01X73771Y15397D01*
G01X73711Y15377D01*
G01X73658Y15345D01*
G01X73613Y15301D01*
G01X73576Y15247D01*
G01X73548Y15181D01*
G01X73531Y15107D01*
G01X73525Y15022D01*
G01X73531Y14937D01*
G01X73548Y14861D01*
G01X73576Y14794D01*
G01X73613Y14738D01*
G01X73658Y14694D01*
G01X73711Y14661D01*
G01X73771Y14641D01*
G01X73837Y14634D01*
G01X73904Y14641D01*
G01X73965Y14661D01*
G01X74019Y14694D01*
G01X74064Y14738D01*
G01X74101Y14794D01*
G01X74129Y14861D01*
G01X74146Y14937D01*
G01X74152Y15022D01*
G01X74146Y15107D01*
G01X74129Y15181D01*
G01X74101Y15247D01*
G01X74064Y15301D01*
G01X74019Y15345D01*
G01X73965Y15377D01*
G01X73904Y15397D01*
G37*

%LPC*%
G36*
G01X73887Y15324D02*
G01X73837Y15330D01*
G01X73788Y15324D01*
G01X73744Y15308D01*
G01X73706Y15282D01*
G01X73673Y15246D01*
G01X73647Y15202D01*
G01X73627Y15150D01*
G01X73615Y15089D01*
G01X73611Y15022D01*
G01X73615Y14953D01*
G01X73627Y14892D01*
G01X73647Y14838D01*
G01X73673Y14792D01*
G01X73706Y14756D01*
G01X73744Y14729D01*
G01X73788Y14713D01*
G01X73837Y14707D01*
G01X73887Y14713D01*
G01X73932Y14729D01*
G01X73971Y14756D01*
G01X74004Y14792D01*
G01X74030Y14838D01*
G01X74050Y14892D01*
G01X74062Y14953D01*
G01X74066Y15022D01*
G01X74062Y15089D01*
G01X74050Y15150D01*
G01X74030Y15202D01*
G01X74004Y15246D01*
G01X73971Y15282D01*
G01X73932Y15308D01*
G01X73887Y15324D01*
G37*

%LPD*%
G36*
G01X73242Y15397D02*
G01X73177Y15403D01*
G01X73085Y15389D01*
G01X73013Y15349D01*
G01X72966Y15288D01*
G01X72948Y15210D01*
G01X72962Y15139D01*
G01X72998Y15085D01*
G01X73047Y15047D01*
G01X73101Y15020D01*
G01X73207Y14972D01*
G01X73257Y14949D01*
G01X73298Y14922D01*
G01X73325Y14886D01*
G01X73334Y14834D01*
G01X73323Y14783D01*
G01X73291Y14743D01*
G01X73240Y14717D01*
G01X73172Y14707D01*
G01X73112Y14714D01*
G01X73057Y14732D01*
G01X73007Y14762D01*
G01X72964Y14801D01*
G01X72913Y14743D01*
G01X72965Y14698D01*
G01X73026Y14664D01*
G01X73094Y14641D01*
G01X73169Y14634D01*
G01X73225Y14638D01*
G01X73274Y14650D01*
G01X73317Y14669D01*
G01X73353Y14694D01*
G01X73382Y14725D01*
G01X73403Y14760D01*
G01X73416Y14799D01*
G01X73421Y14842D01*
G01X73409Y14914D01*
G01X73375Y14968D01*
G01X73325Y15009D01*
G01X73266Y15040D01*
G01X73157Y15086D01*
G01X73114Y15106D01*
G01X73075Y15132D01*
G01X73046Y15167D01*
G01X73035Y15215D01*
G01X73045Y15263D01*
G01X73073Y15299D01*
G01X73118Y15322D01*
G01X73177Y15330D01*
G01X73228Y15325D01*
G01X73273Y15310D01*
G01X73314Y15288D01*
G01X73350Y15259D01*
G01X73395Y15312D01*
G01X73353Y15349D01*
G01X73301Y15378D01*
G01X73242Y15397D01*
G37*

%LPD*%

%LPD*%
G36*
G01X74109Y12851D02*
G01X74025Y12851D01*
G01X74025Y12107D01*
G01X74109Y12107D01*
G01X74109Y12851D01*
G37*

%LPD*%
G36*
G01X71963Y12851D02*
G01X71859Y12851D01*
G01X71859Y12107D01*
G01X71935Y12107D01*
G01X71935Y12536D01*
G01X71934Y12587D01*
G01X71931Y12643D01*
G01X71927Y12699D01*
G01X71925Y12752D01*
G01X71927Y12752D01*
G01X71988Y12584D01*
G01X72133Y12183D01*
G01X72191Y12183D01*
G01X72336Y12584D01*
G01X72395Y12752D01*
G01X72400Y12752D01*
G01X72396Y12699D01*
G01X72393Y12643D01*
G01X72391Y12587D01*
G01X72390Y12536D01*
G01X72390Y12107D01*
G01X72468Y12107D01*
G01X72468Y12851D01*
G01X72364Y12851D01*
G01X72219Y12444D01*
G01X72180Y12324D01*
G01X72166Y12284D01*
G01X72161Y12284D01*
G01X72121Y12404D01*
G01X72108Y12444D01*
G01X71963Y12851D01*
G37*

%LPD*%
G36*
G01X73700Y12857D02*
G01X73634Y12863D01*
G01X73543Y12849D01*
G01X73471Y12809D01*
G01X73423Y12748D01*
G01X73406Y12670D01*
G01X73419Y12599D01*
G01X73455Y12545D01*
G01X73504Y12507D01*
G01X73558Y12480D01*
G01X73665Y12432D01*
G01X73714Y12409D01*
G01X73755Y12382D01*
G01X73782Y12346D01*
G01X73792Y12294D01*
G01X73780Y12243D01*
G01X73748Y12203D01*
G01X73697Y12177D01*
G01X73629Y12167D01*
G01X73570Y12174D01*
G01X73514Y12192D01*
G01X73464Y12222D01*
G01X73421Y12261D01*
G01X73370Y12203D01*
G01X73422Y12158D01*
G01X73483Y12124D01*
G01X73551Y12101D01*
G01X73626Y12094D01*
G01X73682Y12098D01*
G01X73731Y12110D01*
G01X73774Y12129D01*
G01X73810Y12154D01*
G01X73839Y12185D01*
G01X73861Y12220D01*
G01X73873Y12259D01*
G01X73878Y12302D01*
G01X73866Y12374D01*
G01X73832Y12428D01*
G01X73782Y12469D01*
G01X73723Y12500D01*
G01X73614Y12546D01*
G01X73571Y12566D01*
G01X73532Y12592D01*
G01X73503Y12627D01*
G01X73492Y12675D01*
G01X73502Y12723D01*
G01X73530Y12759D01*
G01X73576Y12782D01*
G01X73634Y12790D01*
G01X73685Y12785D01*
G01X73730Y12770D01*
G01X73771Y12748D01*
G01X73807Y12719D01*
G01X73853Y12772D01*
G01X73810Y12809D01*
G01X73759Y12838D01*
G01X73700Y12857D01*
G37*

%LPD*%
G36*
G01X73012Y12857D02*
G01X72946Y12863D01*
G01X72879Y12857D01*
G01X72818Y12837D01*
G01X72764Y12805D01*
G01X72719Y12761D01*
G01X72682Y12707D01*
G01X72654Y12641D01*
G01X72637Y12567D01*
G01X72631Y12482D01*
G01X72637Y12397D01*
G01X72654Y12321D01*
G01X72682Y12254D01*
G01X72719Y12198D01*
G01X72764Y12154D01*
G01X72818Y12121D01*
G01X72879Y12101D01*
G01X72946Y12094D01*
G01X73012Y12101D01*
G01X73073Y12121D01*
G01X73127Y12154D01*
G01X73173Y12198D01*
G01X73210Y12254D01*
G01X73237Y12321D01*
G01X73255Y12397D01*
G01X73261Y12482D01*
G01X73255Y12567D01*
G01X73237Y12641D01*
G01X73210Y12707D01*
G01X73173Y12761D01*
G01X73127Y12805D01*
G01X73073Y12837D01*
G01X73012Y12857D01*
G37*

%LPC*%
G36*
G01X72995Y12784D02*
G01X72946Y12790D01*
G01X72896Y12784D01*
G01X72852Y12768D01*
G01X72813Y12742D01*
G01X72780Y12706D01*
G01X72753Y12662D01*
G01X72733Y12610D01*
G01X72721Y12549D01*
G01X72717Y12482D01*
G01X72721Y12413D01*
G01X72733Y12352D01*
G01X72753Y12298D01*
G01X72780Y12252D01*
G01X72813Y12216D01*
G01X72852Y12189D01*
G01X72896Y12173D01*
G01X72946Y12167D01*
G01X72995Y12173D01*
G01X73039Y12189D01*
G01X73078Y12216D01*
G01X73111Y12252D01*
G01X73138Y12298D01*
G01X73158Y12352D01*
G01X73170Y12413D01*
G01X73174Y12482D01*
G01X73170Y12549D01*
G01X73158Y12610D01*
G01X73138Y12662D01*
G01X73111Y12706D01*
G01X73078Y12742D01*
G01X73039Y12768D01*
G01X72995Y12784D01*
G37*

%LPD*%

%LPD*%
G36*
G01X73179Y10184D02*
G01X72997Y10184D01*
G01X72997Y9440D01*
G01X73182Y9440D01*
G01X73236Y9443D01*
G01X73286Y9451D01*
G01X73331Y9465D01*
G01X73372Y9485D01*
G01X73408Y9510D01*
G01X73440Y9540D01*
G01X73466Y9575D01*
G01X73488Y9614D01*
G01X73505Y9658D01*
G01X73518Y9706D01*
G01X73525Y9759D01*
G01X73527Y9815D01*
G01X73525Y9872D01*
G01X73518Y9924D01*
G01X73505Y9971D01*
G01X73488Y10015D01*
G01X73466Y10053D01*
G01X73439Y10087D01*
G01X73408Y10116D01*
G01X73371Y10140D01*
G01X73330Y10159D01*
G01X73285Y10173D01*
G01X73234Y10181D01*
G01X73179Y10184D01*
G37*

%LPC*%
G36*
G01X73172Y10115D02*
G01X73080Y10115D01*
G01X73080Y9508D01*
G01X73172Y9508D01*
G01X73235Y9514D01*
G01X73290Y9529D01*
G01X73336Y9555D01*
G01X73374Y9590D01*
G01X73403Y9635D01*
G01X73424Y9687D01*
G01X73437Y9747D01*
G01X73441Y9815D01*
G01X73437Y9882D01*
G01X73424Y9941D01*
G01X73403Y9993D01*
G01X73374Y10036D01*
G01X73336Y10070D01*
G01X73290Y10095D01*
G01X73235Y10110D01*
G01X73172Y10115D01*
G37*

%LPD*%
G36*
G01X72826Y10184D02*
G01X72402Y10184D01*
G01X72402Y9440D01*
G01X72837Y9440D01*
G01X72837Y9511D01*
G01X72486Y9511D01*
G01X72486Y9795D01*
G01X72773Y9795D01*
G01X72773Y9866D01*
G01X72486Y9866D01*
G01X72486Y10113D01*
G01X72826Y10113D01*
G01X72826Y10184D01*
G37*

%LPD*%
G36*
G01X71942Y10184D02*
G01X71859Y10184D01*
G01X71859Y9440D01*
G01X72273Y9440D01*
G01X72273Y9511D01*
G01X71942Y9511D01*
G01X71942Y10184D01*
G37*

%LPD*%

%LPD*%
G36*
G01X50534Y27909D02*
G01X50518Y27910D01*
G01X50473Y27902D01*
G01X50431Y27879D01*
G01X50394Y27842D01*
G01X50363Y27794D01*
G01X50360Y27794D01*
G01X50350Y27895D01*
G01X50284Y27895D01*
G01X50284Y27347D01*
G01X50365Y27347D01*
G01X50365Y27705D01*
G01X50397Y27765D01*
G01X50433Y27805D01*
G01X50471Y27827D01*
G01X50507Y27834D01*
G01X50521Y27834D01*
G01X50534Y27832D01*
G01X50546Y27829D01*
G01X50558Y27824D01*
G01X50576Y27898D01*
G01X50562Y27903D01*
G01X50549Y27907D01*
G01X50534Y27909D01*
G37*

%LPD*%
G36*
G01X49089Y27896D02*
G01X49014Y27910D01*
G01X48961Y27903D01*
G01X48914Y27882D01*
G01X48871Y27851D01*
G01X48831Y27814D01*
G01X48826Y27814D01*
G01X48818Y27895D01*
G01X48752Y27895D01*
G01X48752Y27347D01*
G01X48834Y27347D01*
G01X48834Y27748D01*
G01X48875Y27786D01*
G01X48912Y27814D01*
G01X48950Y27831D01*
G01X48991Y27837D01*
G01X49040Y27828D01*
G01X49074Y27801D01*
G01X49094Y27753D01*
G01X49100Y27684D01*
G01X49100Y27347D01*
G01X49182Y27347D01*
G01X49182Y27694D01*
G01X49172Y27787D01*
G01X49141Y27855D01*
G01X49089Y27896D01*
G37*

%LPD*%
G36*
G01X48552Y28091D02*
G01X48468Y28091D01*
G01X48468Y27347D01*
G01X48552Y27347D01*
G01X48552Y28091D01*
G37*

%LPD*%
G36*
G01X51986Y28050D02*
G01X51915Y28050D01*
G01X51904Y27895D01*
G01X51818Y27890D01*
G01X51818Y27827D01*
G01X51902Y27827D01*
G01X51902Y27512D01*
G01X51909Y27439D01*
G01X51935Y27383D01*
G01X51982Y27347D01*
G01X52054Y27334D01*
G01X52078Y27335D01*
G01X52103Y27340D01*
G01X52151Y27354D01*
G01X52136Y27418D01*
G01X52121Y27411D01*
G01X52105Y27406D01*
G01X52088Y27403D01*
G01X52072Y27402D01*
G01X52030Y27410D01*
G01X52004Y27431D01*
G01X51990Y27464D01*
G01X51986Y27509D01*
G01X51986Y27827D01*
G01X52136Y27827D01*
G01X52136Y27895D01*
G01X51986Y27895D01*
G01X51986Y28050D01*
G37*

%LPD*%
G36*
G01X50744Y27895D02*
G01X50660Y27895D01*
G01X50660Y27547D01*
G01X50670Y27455D01*
G01X50700Y27388D01*
G01X50753Y27348D01*
G01X50827Y27334D01*
G01X50881Y27341D01*
G01X50929Y27361D01*
G01X50971Y27393D01*
G01X51010Y27433D01*
G01X51013Y27433D01*
G01X51020Y27347D01*
G01X51089Y27347D01*
G01X51089Y27895D01*
G01X51005Y27895D01*
G01X51005Y27501D01*
G01X50967Y27458D01*
G01X50930Y27428D01*
G01X50892Y27411D01*
G01X50853Y27405D01*
G01X50803Y27414D01*
G01X50769Y27442D01*
G01X50750Y27490D01*
G01X50744Y27557D01*
G01X50744Y27895D01*
G37*

%LPD*%
G36*
G01X49977Y27906D02*
G01X49928Y27910D01*
G01X49881Y27905D01*
G01X49836Y27890D01*
G01X49795Y27866D01*
G01X49759Y27832D01*
G01X49728Y27791D01*
G01X49705Y27741D01*
G01X49690Y27684D01*
G01X49684Y27621D01*
G01X49690Y27557D01*
G01X49704Y27500D01*
G01X49728Y27451D01*
G01X49760Y27410D01*
G01X49798Y27377D01*
G01X49842Y27353D01*
G01X49891Y27339D01*
G01X49944Y27334D01*
G01X49997Y27338D01*
G01X50044Y27351D01*
G01X50086Y27368D01*
G01X50124Y27390D01*
G01X50093Y27443D01*
G01X50062Y27426D01*
G01X50028Y27412D01*
G01X49992Y27403D01*
G01X49954Y27400D01*
G01X49879Y27415D01*
G01X49821Y27456D01*
G01X49782Y27520D01*
G01X49766Y27603D01*
G01X50142Y27603D01*
G01X50143Y27613D01*
G01X50144Y27625D01*
G01X50144Y27651D01*
G01X50141Y27708D01*
G01X50129Y27760D01*
G01X50112Y27804D01*
G01X50088Y27841D01*
G01X50057Y27871D01*
G01X50020Y27893D01*
G01X49977Y27906D01*
G37*

%LPC*%
G36*
G01X49989Y27831D02*
G01X49928Y27842D01*
G01X49870Y27830D01*
G01X49820Y27795D01*
G01X49784Y27739D01*
G01X49766Y27664D01*
G01X50071Y27664D01*
G01X50061Y27741D01*
G01X50033Y27797D01*
G01X49989Y27831D01*
G37*

%LPD*%
G36*
G01X49463Y28050D02*
G01X49395Y28050D01*
G01X49385Y27895D01*
G01X49298Y27890D01*
G01X49298Y27827D01*
G01X49382Y27827D01*
G01X49382Y27512D01*
G01X49389Y27439D01*
G01X49414Y27383D01*
G01X49460Y27347D01*
G01X49532Y27334D01*
G01X49556Y27335D01*
G01X49581Y27340D01*
G01X49607Y27347D01*
G01X49631Y27354D01*
G01X49613Y27418D01*
G01X49599Y27411D01*
G01X49582Y27406D01*
G01X49566Y27403D01*
G01X49550Y27402D01*
G01X49508Y27410D01*
G01X49482Y27431D01*
G01X49468Y27464D01*
G01X49463Y27509D01*
G01X49463Y27827D01*
G01X49616Y27827D01*
G01X49616Y27895D01*
G01X49463Y27895D01*
G01X49463Y28050D01*
G37*

%LPD*%
G36*
G01X51586Y27905D02*
G01X51536Y27910D01*
G01X51488Y27904D01*
G01X51442Y27886D01*
G01X51398Y27861D01*
G01X51358Y27832D01*
G01X51356Y27832D01*
G01X51348Y27895D01*
G01X51280Y27895D01*
G01X51280Y27110D01*
G01X51363Y27110D01*
G01X51363Y27301D01*
G01X51361Y27397D01*
G01X51399Y27370D01*
G01X51438Y27350D01*
G01X51477Y27338D01*
G01X51516Y27334D01*
G01X51563Y27339D01*
G01X51607Y27354D01*
G01X51647Y27379D01*
G01X51683Y27412D01*
G01X51712Y27454D01*
G01X51735Y27505D01*
G01X51749Y27564D01*
G01X51755Y27631D01*
G01X51751Y27691D01*
G01X51740Y27745D01*
G01X51723Y27793D01*
G01X51699Y27834D01*
G01X51668Y27866D01*
G01X51630Y27890D01*
G01X51586Y27905D01*
G37*

%LPC*%
G36*
G01X51585Y27824D02*
G01X51516Y27839D01*
G01X51479Y27834D01*
G01X51442Y27819D01*
G01X51404Y27794D01*
G01X51363Y27761D01*
G01X51363Y27463D01*
G01X51401Y27434D01*
G01X51438Y27416D01*
G01X51472Y27405D01*
G01X51503Y27402D01*
G01X51570Y27418D01*
G01X51622Y27463D01*
G01X51656Y27534D01*
G01X51668Y27628D01*
G01X51660Y27714D01*
G01X51633Y27780D01*
G01X51585Y27824D01*
G37*

%LPD*%

%LPD*%
G36*
G01X51973Y22890D02*
G01X51909Y22896D01*
G01X51818Y22882D01*
G01X51745Y22842D01*
G01X51698Y22781D01*
G01X51681Y22703D01*
G01X51695Y22632D01*
G01X51730Y22578D01*
G01X51778Y22540D01*
G01X51831Y22513D01*
G01X51940Y22465D01*
G01X51990Y22442D01*
G01X52030Y22415D01*
G01X52057Y22379D01*
G01X52067Y22327D01*
G01X52055Y22276D01*
G01X52022Y22236D01*
G01X51970Y22210D01*
G01X51902Y22200D01*
G01X51844Y22207D01*
G01X51789Y22225D01*
G01X51739Y22255D01*
G01X51694Y22294D01*
G01X51643Y22236D01*
G01X51696Y22191D01*
G01X51757Y22157D01*
G01X51826Y22134D01*
G01X51902Y22127D01*
G01X51956Y22131D01*
G01X52005Y22143D01*
G01X52048Y22162D01*
G01X52083Y22187D01*
G01X52112Y22218D01*
G01X52134Y22253D01*
G01X52146Y22292D01*
G01X52151Y22335D01*
G01X52139Y22407D01*
G01X52106Y22461D01*
G01X52057Y22502D01*
G01X51998Y22533D01*
G01X51889Y22579D01*
G01X51846Y22599D01*
G01X51806Y22625D01*
G01X51776Y22660D01*
G01X51765Y22708D01*
G01X51775Y22756D01*
G01X51805Y22792D01*
G01X51851Y22815D01*
G01X51909Y22823D01*
G01X51960Y22818D01*
G01X52005Y22803D01*
G01X52046Y22781D01*
G01X52082Y22752D01*
G01X52125Y22805D01*
G01X52083Y22842D01*
G01X52032Y22871D01*
G01X51973Y22890D01*
G37*

%LPD*%
G36*
G01X51427Y22889D02*
G01X51363Y22896D01*
G01X51295Y22890D01*
G01X51233Y22870D01*
G01X51178Y22837D01*
G01X51130Y22793D01*
G01X51092Y22737D01*
G01X51063Y22671D01*
G01X51044Y22596D01*
G01X51038Y22510D01*
G01X51044Y22426D01*
G01X51062Y22350D01*
G01X51091Y22284D01*
G01X51129Y22229D01*
G01X51175Y22185D01*
G01X51230Y22153D01*
G01X51291Y22133D01*
G01X51358Y22127D01*
G01X51426Y22134D01*
G01X51486Y22154D01*
G01X51538Y22188D01*
G01X51584Y22233D01*
G01X51536Y22287D01*
G01X51499Y22250D01*
G01X51458Y22223D01*
G01X51413Y22206D01*
G01X51361Y22200D01*
G01X51309Y22206D01*
G01X51263Y22222D01*
G01X51223Y22249D01*
G01X51189Y22285D01*
G01X51161Y22331D01*
G01X51141Y22384D01*
G01X51129Y22445D01*
G01X51125Y22513D01*
G01X51129Y22581D01*
G01X51141Y22642D01*
G01X51162Y22695D01*
G01X51190Y22739D01*
G01X51224Y22775D01*
G01X51265Y22801D01*
G01X51312Y22817D01*
G01X51363Y22823D01*
G01X51410Y22818D01*
G01X51451Y22803D01*
G01X51487Y22781D01*
G01X51518Y22752D01*
G01X51567Y22805D01*
G01X51529Y22840D01*
G01X51483Y22869D01*
G01X51427Y22889D01*
G37*

%LPD*%

%LPD*%
G36*
G01X51160Y18121D02*
G01X51079Y18121D01*
G01X51079Y17314D01*
G01X51160Y17314D01*
G01X51160Y17715D01*
G01X51200Y17753D01*
G01X51238Y17781D01*
G01X51277Y17798D01*
G01X51318Y17804D01*
G01X51366Y17795D01*
G01X51399Y17768D01*
G01X51418Y17720D01*
G01X51424Y17651D01*
G01X51424Y17314D01*
G01X51508Y17314D01*
G01X51508Y17661D01*
G01X51498Y17754D01*
G01X51467Y17822D01*
G01X51415Y17863D01*
G01X51341Y17877D01*
G01X51288Y17870D01*
G01X51241Y17849D01*
G01X51198Y17819D01*
G01X51158Y17783D01*
G01X51160Y17898D01*
G01X51160Y18121D01*
G37*

%LPD*%
G36*
G01X50413Y18058D02*
G01X49989Y18058D01*
G01X49989Y17314D01*
G01X50424Y17314D01*
G01X50424Y17385D01*
G01X50073Y17385D01*
G01X50073Y17669D01*
G01X50358Y17669D01*
G01X50358Y17740D01*
G01X50073Y17740D01*
G01X50073Y17987D01*
G01X50413Y17987D01*
G01X50413Y18058D01*
G37*

%LPD*%
G36*
G01X51949Y17872D02*
G01X51899Y17877D01*
G01X51850Y17872D01*
G01X51803Y17858D01*
G01X51761Y17834D01*
G01X51723Y17801D01*
G01X51692Y17760D01*
G01X51668Y17710D01*
G01X51653Y17653D01*
G01X51648Y17588D01*
G01X51653Y17523D01*
G01X51668Y17466D01*
G01X51692Y17417D01*
G01X51723Y17375D01*
G01X51761Y17343D01*
G01X51803Y17320D01*
G01X51850Y17306D01*
G01X51899Y17301D01*
G01X51949Y17306D01*
G01X51995Y17320D01*
G01X52038Y17343D01*
G01X52076Y17375D01*
G01X52107Y17417D01*
G01X52130Y17466D01*
G01X52146Y17523D01*
G01X52151Y17588D01*
G01X52146Y17653D01*
G01X52130Y17710D01*
G01X52107Y17760D01*
G01X52076Y17801D01*
G01X52038Y17834D01*
G01X51995Y17858D01*
G01X51949Y17872D01*
G37*

%LPC*%
G36*
G01X51967Y17791D02*
G01X51899Y17806D01*
G01X51831Y17791D01*
G01X51778Y17746D01*
G01X51744Y17677D01*
G01X51732Y17588D01*
G01X51744Y17498D01*
G01X51778Y17429D01*
G01X51831Y17385D01*
G01X51899Y17369D01*
G01X51967Y17385D01*
G01X52020Y17429D01*
G01X52055Y17498D01*
G01X52067Y17588D01*
G01X52055Y17677D01*
G01X52020Y17746D01*
G01X51967Y17791D01*
G37*

%LPD*%
G36*
G01X50833Y17872D02*
G01X50782Y17877D01*
G01X50730Y17872D01*
G01X50682Y17858D01*
G01X50637Y17834D01*
G01X50598Y17801D01*
G01X50566Y17760D01*
G01X50541Y17710D01*
G01X50526Y17653D01*
G01X50520Y17588D01*
G01X50525Y17523D01*
G01X50540Y17466D01*
G01X50563Y17417D01*
G01X50594Y17375D01*
G01X50632Y17343D01*
G01X50676Y17320D01*
G01X50724Y17306D01*
G01X50777Y17301D01*
G01X50825Y17305D01*
G01X50871Y17319D01*
G01X50913Y17340D01*
G01X50952Y17369D01*
G01X50916Y17425D01*
G01X50888Y17403D01*
G01X50856Y17386D01*
G01X50821Y17374D01*
G01X50784Y17369D01*
G01X50712Y17385D01*
G01X50655Y17429D01*
G01X50619Y17498D01*
G01X50606Y17588D01*
G01X50620Y17677D01*
G01X50657Y17746D01*
G01X50714Y17791D01*
G01X50784Y17806D01*
G01X50817Y17803D01*
G01X50846Y17792D01*
G01X50873Y17776D01*
G01X50899Y17755D01*
G01X50942Y17811D01*
G01X50911Y17837D01*
G01X50875Y17858D01*
G01X50833Y17872D01*
G37*

%LPD*%

%LPD*%
G36*
G01X51485Y20502D02*
G01X51462Y20506D01*
G01X51438Y20502D01*
G01X51420Y20491D01*
G01X51408Y20473D01*
G01X51404Y20450D01*
G01X51408Y20426D01*
G01X51420Y20408D01*
G01X51438Y20396D01*
G01X51462Y20392D01*
G01X51485Y20396D01*
G01X51503Y20408D01*
G01X51514Y20426D01*
G01X51518Y20450D01*
G01X51514Y20473D01*
G01X51503Y20491D01*
G01X51485Y20502D01*
G37*

%LPD*%
G36*
G01X51503Y20275D02*
G01X51419Y20275D01*
G01X51419Y19727D01*
G01X51503Y19727D01*
G01X51503Y20275D01*
G37*

%LPD*%
G36*
G01X51285Y20289D02*
G01X51269Y20290D01*
G01X51223Y20282D01*
G01X51182Y20259D01*
G01X51145Y20222D01*
G01X51114Y20174D01*
G01X51109Y20174D01*
G01X51102Y20275D01*
G01X51036Y20275D01*
G01X51036Y19727D01*
G01X51117Y19727D01*
G01X51117Y20085D01*
G01X51148Y20145D01*
G01X51184Y20185D01*
G01X51222Y20207D01*
G01X51259Y20214D01*
G01X51273Y20214D01*
G01X51286Y20212D01*
G01X51297Y20209D01*
G01X51310Y20204D01*
G01X51328Y20278D01*
G01X51313Y20283D01*
G01X51299Y20287D01*
G01X51285Y20289D01*
G37*

%LPD*%
G36*
G01X50960Y20471D02*
G01X50421Y20471D01*
G01X50421Y20400D01*
G01X50647Y20400D01*
G01X50647Y19727D01*
G01X50733Y19727D01*
G01X50733Y20400D01*
G01X50960Y20400D01*
G01X50960Y20471D01*
G37*

%LPD*%
G36*
G01X51896Y20289D02*
G01X51874Y20290D01*
G01X51796Y20276D01*
G01X51731Y20237D01*
G01X51687Y20175D01*
G01X51671Y20095D01*
G01X51677Y20048D01*
G01X51693Y20006D01*
G01X51716Y19972D01*
G01X51742Y19945D01*
G01X51742Y19942D01*
G01X51721Y19925D01*
G01X51701Y19901D01*
G01X51686Y19873D01*
G01X51681Y19841D01*
G01X51685Y19811D01*
G01X51696Y19785D01*
G01X51712Y19765D01*
G01X51732Y19749D01*
G01X51732Y19747D01*
G01X51698Y19718D01*
G01X51672Y19687D01*
G01X51656Y19654D01*
G01X51650Y19620D01*
G01X51667Y19557D01*
G01X51713Y19511D01*
G01X51785Y19482D01*
G01X51876Y19473D01*
G01X51936Y19477D01*
G01X51990Y19488D01*
G01X52037Y19505D01*
G01X52077Y19528D01*
G01X52108Y19556D01*
G01X52131Y19588D01*
G01X52146Y19623D01*
G01X52151Y19660D01*
G01X52139Y19718D01*
G01X52103Y19759D01*
G01X52044Y19782D01*
G01X51960Y19790D01*
G01X51851Y19790D01*
G01X51804Y19795D01*
G01X51774Y19807D01*
G01X51759Y19827D01*
G01X51755Y19851D01*
G01X51757Y19873D01*
G01X51765Y19892D01*
G01X51776Y19907D01*
G01X51790Y19920D01*
G01X51810Y19911D01*
G01X51831Y19905D01*
G01X51853Y19901D01*
G01X51874Y19899D01*
G01X51952Y19913D01*
G01X52015Y19952D01*
G01X52057Y20013D01*
G01X52072Y20092D01*
G01X52068Y20128D01*
G01X52058Y20160D01*
G01X52043Y20188D01*
G01X52024Y20212D01*
G01X52141Y20212D01*
G01X52141Y20275D01*
G01X51950Y20275D01*
G01X51935Y20281D01*
G01X51917Y20286D01*
G01X51896Y20289D01*
G37*

%LPC*%
G36*
G01X51802Y19724D02*
G01X51782Y19729D01*
G01X51756Y19705D01*
G01X51738Y19680D01*
G01X51728Y19655D01*
G01X51724Y19630D01*
G01X51735Y19588D01*
G01X51767Y19556D01*
G01X51819Y19536D01*
G01X51887Y19528D01*
G01X51962Y19539D01*
G01X52020Y19566D01*
G01X52057Y19605D01*
G01X52070Y19648D01*
G01X52062Y19681D01*
G01X52040Y19703D01*
G01X52003Y19715D01*
G01X51953Y19719D01*
G01X51838Y19719D01*
G01X51821Y19721D01*
G01X51802Y19724D01*
G37*
G36*
G01X51922Y20218D02*
G01X51874Y20227D01*
G01X51826Y20218D01*
G01X51787Y20192D01*
G01X51762Y20151D01*
G01X51752Y20095D01*
G01X51762Y20038D01*
G01X51788Y19995D01*
G01X51827Y19967D01*
G01X51874Y19958D01*
G01X51921Y19967D01*
G01X51961Y19995D01*
G01X51988Y20038D01*
G01X51998Y20095D01*
G01X51989Y20150D01*
G01X51962Y20191D01*
G01X51922Y20218D01*
G37*

%LPD*%

%LPD*%
G36*
G01X50881Y10311D02*
G01X50794Y10311D01*
G01X50954Y9567D01*
G01X51054Y9567D01*
G01X51168Y10029D01*
G01X51177Y10072D01*
G01X51188Y10114D01*
G01X51197Y10156D01*
G01X51206Y10199D01*
G01X51211Y10199D01*
G01X51221Y10156D01*
G01X51230Y10114D01*
G01X51238Y10072D01*
G01X51247Y10029D01*
G01X51366Y9567D01*
G01X51465Y9567D01*
G01X51622Y10311D01*
G01X51541Y10311D01*
G01X51460Y9897D01*
G01X51438Y9777D01*
G01X51427Y9716D01*
G01X51417Y9655D01*
G01X51412Y9655D01*
G01X51398Y9716D01*
G01X51369Y9837D01*
G01X51356Y9897D01*
G01X51249Y10311D01*
G01X51170Y10311D01*
G01X51066Y9897D01*
G01X51052Y9837D01*
G01X51025Y9716D01*
G01X51013Y9655D01*
G01X51008Y9655D01*
G01X50997Y9716D01*
G01X50985Y9777D01*
G01X50974Y9837D01*
G01X50962Y9897D01*
G01X50881Y10311D01*
G37*

%LPD*%
G36*
G01X51999Y10311D02*
G01X51915Y10323D01*
G01X51855Y10317D01*
G01X51801Y10299D01*
G01X51753Y10271D01*
G01X51709Y10237D01*
G01X51755Y10181D01*
G01X51789Y10211D01*
G01X51827Y10235D01*
G01X51868Y10250D01*
G01X51912Y10257D01*
G01X51966Y10247D01*
G01X52008Y10222D01*
G01X52033Y10183D01*
G01X52042Y10133D01*
G01X52031Y10075D01*
G01X51995Y10028D01*
G01X51931Y9997D01*
G01X51833Y9986D01*
G01X51833Y9922D01*
G01X51943Y9911D01*
G01X52016Y9879D01*
G01X52057Y9830D01*
G01X52070Y9767D01*
G01X52058Y9707D01*
G01X52025Y9662D01*
G01X51975Y9633D01*
G01X51912Y9622D01*
G01X51853Y9630D01*
G01X51803Y9648D01*
G01X51761Y9676D01*
G01X51724Y9709D01*
G01X51683Y9655D01*
G01X51723Y9617D01*
G01X51774Y9585D01*
G01X51839Y9562D01*
G01X51917Y9554D01*
G01X51965Y9557D01*
G01X52010Y9568D01*
G01X52049Y9586D01*
G01X52084Y9610D01*
G01X52112Y9640D01*
G01X52133Y9676D01*
G01X52146Y9718D01*
G01X52151Y9765D01*
G01X52138Y9834D01*
G01X52105Y9890D01*
G01X52054Y9931D01*
G01X51993Y9955D01*
G01X51993Y9958D01*
G01X52047Y9986D01*
G01X52089Y10025D01*
G01X52116Y10077D01*
G01X52125Y10141D01*
G01X52110Y10218D01*
G01X52066Y10276D01*
G01X51999Y10311D01*
G37*

%LPD*%
G36*
G01X50543Y10317D02*
G01X50479Y10323D01*
G01X50388Y10309D01*
G01X50316Y10269D01*
G01X50268Y10208D01*
G01X50251Y10130D01*
G01X50265Y10059D01*
G01X50300Y10005D01*
G01X50348Y9967D01*
G01X50401Y9940D01*
G01X50510Y9892D01*
G01X50560Y9869D01*
G01X50600Y9842D01*
G01X50627Y9806D01*
G01X50637Y9754D01*
G01X50625Y9703D01*
G01X50592Y9663D01*
G01X50540Y9637D01*
G01X50472Y9627D01*
G01X50413Y9634D01*
G01X50358Y9652D01*
G01X50308Y9682D01*
G01X50264Y9721D01*
G01X50213Y9663D01*
G01X50265Y9618D01*
G01X50326Y9584D01*
G01X50395Y9561D01*
G01X50472Y9554D01*
G01X50526Y9558D01*
G01X50575Y9570D01*
G01X50618Y9589D01*
G01X50654Y9614D01*
G01X50682Y9645D01*
G01X50703Y9680D01*
G01X50716Y9719D01*
G01X50721Y9762D01*
G01X50709Y9834D01*
G01X50676Y9888D01*
G01X50626Y9929D01*
G01X50566Y9960D01*
G01X50459Y10006D01*
G01X50416Y10026D01*
G01X50376Y10052D01*
G01X50346Y10087D01*
G01X50335Y10135D01*
G01X50345Y10183D01*
G01X50375Y10219D01*
G01X50421Y10242D01*
G01X50479Y10250D01*
G01X50530Y10245D01*
G01X50575Y10230D01*
G01X50616Y10208D01*
G01X50652Y10179D01*
G01X50695Y10232D01*
G01X50653Y10269D01*
G01X50602Y10298D01*
G01X50543Y10317D01*
G37*

%LPD*%

%LPD*%
G36*
G01X51949Y12859D02*
G01X51902Y12863D01*
G01X51837Y12856D01*
G01X51780Y12833D01*
G01X51731Y12799D01*
G01X51686Y12754D01*
G01X51734Y12708D01*
G01X51768Y12743D01*
G01X51806Y12771D01*
G01X51848Y12790D01*
G01X51892Y12797D01*
G01X51955Y12786D01*
G01X51999Y12753D01*
G01X52025Y12704D01*
G01X52034Y12642D01*
G01X52029Y12593D01*
G01X52014Y12541D01*
G01X51988Y12486D01*
G01X51951Y12429D01*
G01X51903Y12367D01*
G01X51844Y12302D01*
G01X51773Y12232D01*
G01X51691Y12157D01*
G01X51691Y12107D01*
G01X52151Y12107D01*
G01X52151Y12178D01*
G01X51937Y12178D01*
G01X51907Y12177D01*
G01X51845Y12175D01*
G01X51816Y12173D01*
G01X51880Y12236D01*
G01X51938Y12297D01*
G01X51990Y12357D01*
G01X52033Y12416D01*
G01X52068Y12474D01*
G01X52094Y12532D01*
G01X52110Y12589D01*
G01X52115Y12645D01*
G01X52112Y12692D01*
G01X52100Y12735D01*
G01X52083Y12772D01*
G01X52058Y12804D01*
G01X52027Y12829D01*
G01X51991Y12848D01*
G01X51949Y12859D01*
G37*

%LPD*%
G36*
G01X50873Y12851D02*
G01X50787Y12851D01*
G01X50947Y12107D01*
G01X51046Y12107D01*
G01X51160Y12569D01*
G01X51170Y12612D01*
G01X51190Y12696D01*
G01X51198Y12739D01*
G01X51203Y12739D01*
G01X51213Y12696D01*
G01X51231Y12612D01*
G01X51239Y12569D01*
G01X51358Y12107D01*
G01X51457Y12107D01*
G01X51615Y12851D01*
G01X51534Y12851D01*
G01X51452Y12437D01*
G01X51441Y12377D01*
G01X51419Y12256D01*
G01X51409Y12195D01*
G01X51404Y12195D01*
G01X51390Y12256D01*
G01X51362Y12377D01*
G01X51348Y12437D01*
G01X51241Y12851D01*
G01X51163Y12851D01*
G01X51059Y12437D01*
G01X51045Y12377D01*
G01X51017Y12256D01*
G01X51005Y12195D01*
G01X51000Y12195D01*
G01X50988Y12256D01*
G01X50977Y12317D01*
G01X50966Y12377D01*
G01X50954Y12437D01*
G01X50873Y12851D01*
G37*

%LPD*%
G36*
G01X50536Y12857D02*
G01X50472Y12863D01*
G01X50380Y12849D01*
G01X50308Y12809D01*
G01X50261Y12748D01*
G01X50243Y12670D01*
G01X50257Y12599D01*
G01X50293Y12545D01*
G01X50341Y12507D01*
G01X50393Y12480D01*
G01X50502Y12432D01*
G01X50552Y12409D01*
G01X50592Y12382D01*
G01X50620Y12346D01*
G01X50629Y12294D01*
G01X50618Y12243D01*
G01X50585Y12203D01*
G01X50533Y12177D01*
G01X50464Y12167D01*
G01X50406Y12174D01*
G01X50350Y12192D01*
G01X50300Y12222D01*
G01X50256Y12261D01*
G01X50205Y12203D01*
G01X50257Y12158D01*
G01X50318Y12124D01*
G01X50388Y12101D01*
G01X50464Y12094D01*
G01X50519Y12098D01*
G01X50567Y12110D01*
G01X50610Y12129D01*
G01X50646Y12154D01*
G01X50675Y12185D01*
G01X50696Y12220D01*
G01X50709Y12259D01*
G01X50713Y12302D01*
G01X50701Y12374D01*
G01X50668Y12428D01*
G01X50619Y12469D01*
G01X50558Y12500D01*
G01X50452Y12546D01*
G01X50408Y12566D01*
G01X50368Y12592D01*
G01X50339Y12627D01*
G01X50327Y12675D01*
G01X50338Y12723D01*
G01X50367Y12759D01*
G01X50413Y12782D01*
G01X50472Y12790D01*
G01X50522Y12785D01*
G01X50568Y12770D01*
G01X50608Y12748D01*
G01X50645Y12719D01*
G01X50688Y12772D01*
G01X50645Y12809D01*
G01X50594Y12838D01*
G01X50536Y12857D01*
G37*

%LPD*%

%LPD*%
G36*
G01X51998Y15391D02*
G01X51935Y15391D01*
G01X51904Y15374D01*
G01X51869Y15361D01*
G01X51830Y15349D01*
G01X51785Y15340D01*
G01X51785Y15287D01*
G01X51917Y15287D01*
G01X51917Y14715D01*
G01X51749Y14715D01*
G01X51749Y14647D01*
G01X52151Y14647D01*
G01X52151Y14715D01*
G01X51998Y14715D01*
G01X51998Y15391D01*
G37*

%LPD*%
G36*
G01X50888Y15391D02*
G01X50802Y15391D01*
G01X50962Y14647D01*
G01X51061Y14647D01*
G01X51175Y15109D01*
G01X51186Y15152D01*
G01X51195Y15194D01*
G01X51205Y15236D01*
G01X51214Y15279D01*
G01X51219Y15279D01*
G01X51228Y15236D01*
G01X51246Y15152D01*
G01X51254Y15109D01*
G01X51374Y14647D01*
G01X51473Y14647D01*
G01X51630Y15391D01*
G01X51549Y15391D01*
G01X51468Y14977D01*
G01X51456Y14917D01*
G01X51445Y14857D01*
G01X51435Y14796D01*
G01X51424Y14735D01*
G01X51419Y14735D01*
G01X51406Y14796D01*
G01X51377Y14917D01*
G01X51363Y14977D01*
G01X51257Y15391D01*
G01X51178Y15391D01*
G01X51074Y14977D01*
G01X51060Y14917D01*
G01X51033Y14796D01*
G01X51020Y14735D01*
G01X51015Y14735D01*
G01X50993Y14857D01*
G01X50981Y14917D01*
G01X50970Y14977D01*
G01X50888Y15391D01*
G37*

%LPD*%
G36*
G01X50551Y15397D02*
G01X50487Y15403D01*
G01X50396Y15389D01*
G01X50324Y15349D01*
G01X50276Y15288D01*
G01X50258Y15210D01*
G01X50272Y15139D01*
G01X50308Y15085D01*
G01X50356Y15047D01*
G01X50408Y15020D01*
G01X50518Y14972D01*
G01X50567Y14949D01*
G01X50608Y14922D01*
G01X50635Y14886D01*
G01X50645Y14834D01*
G01X50633Y14783D01*
G01X50600Y14743D01*
G01X50548Y14717D01*
G01X50479Y14707D01*
G01X50421Y14714D01*
G01X50366Y14732D01*
G01X50315Y14762D01*
G01X50271Y14801D01*
G01X50220Y14743D01*
G01X50273Y14698D01*
G01X50334Y14664D01*
G01X50403Y14641D01*
G01X50479Y14634D01*
G01X50534Y14638D01*
G01X50583Y14650D01*
G01X50625Y14669D01*
G01X50661Y14694D01*
G01X50690Y14725D01*
G01X50711Y14760D01*
G01X50724Y14799D01*
G01X50728Y14842D01*
G01X50716Y14914D01*
G01X50683Y14968D01*
G01X50634Y15009D01*
G01X50573Y15040D01*
G01X50467Y15086D01*
G01X50424Y15106D01*
G01X50383Y15132D01*
G01X50354Y15167D01*
G01X50342Y15215D01*
G01X50353Y15263D01*
G01X50382Y15299D01*
G01X50428Y15322D01*
G01X50487Y15330D01*
G01X50538Y15325D01*
G01X50583Y15310D01*
G01X50624Y15288D01*
G01X50660Y15259D01*
G01X50703Y15312D01*
G01X50660Y15349D01*
G01X50610Y15378D01*
G01X50551Y15397D01*
G37*

%LPD*%

%LPD*%
G36*
G01X14889Y27796D02*
G01X14820Y27796D01*
G01X14810Y27641D01*
G01X14724Y27636D01*
G01X14724Y27573D01*
G01X14808Y27573D01*
G01X14808Y27258D01*
G01X14815Y27185D01*
G01X14840Y27129D01*
G01X14886Y27093D01*
G01X14958Y27080D01*
G01X14981Y27081D01*
G01X15007Y27086D01*
G01X15033Y27093D01*
G01X15057Y27100D01*
G01X15039Y27164D01*
G01X15024Y27157D01*
G01X15008Y27152D01*
G01X14991Y27149D01*
G01X14975Y27148D01*
G01X14934Y27156D01*
G01X14907Y27177D01*
G01X14893Y27210D01*
G01X14889Y27255D01*
G01X14889Y27573D01*
G01X15041Y27573D01*
G01X15041Y27641D01*
G01X14889Y27641D01*
G01X14889Y27796D01*
G37*

%LPD*%
G36*
G01X14254Y27641D02*
G01X14173Y27641D01*
G01X14173Y27293D01*
G01X14182Y27201D01*
G01X14212Y27134D01*
G01X14264Y27094D01*
G01X14338Y27080D01*
G01X14391Y27087D01*
G01X14439Y27107D01*
G01X14482Y27139D01*
G01X14521Y27179D01*
G01X14523Y27179D01*
G01X14531Y27093D01*
G01X14599Y27093D01*
G01X14599Y27641D01*
G01X14518Y27641D01*
G01X14518Y27247D01*
G01X14479Y27204D01*
G01X14441Y27174D01*
G01X14404Y27157D01*
G01X14363Y27151D01*
G01X14313Y27160D01*
G01X14279Y27188D01*
G01X14260Y27236D01*
G01X14254Y27303D01*
G01X14254Y27641D01*
G37*

%LPD*%
G36*
G01X13774Y27843D02*
G01X13708Y27849D01*
G01X13642Y27843D01*
G01X13582Y27823D01*
G01X13529Y27791D01*
G01X13483Y27747D01*
G01X13446Y27693D01*
G01X13418Y27627D01*
G01X13402Y27553D01*
G01X13395Y27468D01*
G01X13402Y27383D01*
G01X13418Y27307D01*
G01X13446Y27240D01*
G01X13483Y27184D01*
G01X13529Y27140D01*
G01X13582Y27107D01*
G01X13642Y27087D01*
G01X13708Y27080D01*
G01X13774Y27087D01*
G01X13835Y27107D01*
G01X13889Y27140D01*
G01X13935Y27184D01*
G01X13972Y27240D01*
G01X13999Y27307D01*
G01X14017Y27383D01*
G01X14023Y27468D01*
G01X14017Y27553D01*
G01X13999Y27627D01*
G01X13972Y27693D01*
G01X13935Y27747D01*
G01X13889Y27791D01*
G01X13835Y27823D01*
G01X13774Y27843D01*
G37*

%LPC*%
G36*
G01X13758Y27770D02*
G01X13708Y27776D01*
G01X13659Y27770D01*
G01X13615Y27754D01*
G01X13576Y27728D01*
G01X13543Y27692D01*
G01X13517Y27648D01*
G01X13498Y27596D01*
G01X13486Y27535D01*
G01X13482Y27468D01*
G01X13486Y27399D01*
G01X13498Y27338D01*
G01X13517Y27284D01*
G01X13543Y27238D01*
G01X13576Y27202D01*
G01X13615Y27175D01*
G01X13659Y27159D01*
G01X13708Y27153D01*
G01X13758Y27159D01*
G01X13802Y27175D01*
G01X13841Y27202D01*
G01X13875Y27238D01*
G01X13901Y27284D01*
G01X13920Y27338D01*
G01X13932Y27399D01*
G01X13936Y27468D01*
G01X13932Y27535D01*
G01X13920Y27596D01*
G01X13901Y27648D01*
G01X13875Y27692D01*
G01X13841Y27728D01*
G01X13802Y27754D01*
G01X13758Y27770D01*
G37*

%LPD*%

%LPD*%
G36*
G01X14060Y25610D02*
G01X13985Y25624D01*
G01X13932Y25617D01*
G01X13885Y25596D01*
G01X13841Y25565D01*
G01X13802Y25528D01*
G01X13797Y25528D01*
G01X13789Y25609D01*
G01X13723Y25609D01*
G01X13723Y25061D01*
G01X13804Y25061D01*
G01X13804Y25462D01*
G01X13846Y25500D01*
G01X13883Y25528D01*
G01X13921Y25545D01*
G01X13962Y25551D01*
G01X14011Y25542D01*
G01X14045Y25515D01*
G01X14065Y25467D01*
G01X14071Y25398D01*
G01X14071Y25061D01*
G01X14152Y25061D01*
G01X14152Y25408D01*
G01X14143Y25501D01*
G01X14112Y25569D01*
G01X14060Y25610D01*
G37*

%LPD*%
G36*
G01X13522Y25805D02*
G01X13439Y25805D01*
G01X13439Y25061D01*
G01X13522Y25061D01*
G01X13522Y25805D01*
G37*

%LPD*%

%LPD*%
G36*
G01X3870Y26821D02*
G01X3688Y26821D01*
G01X3688Y26077D01*
G01X3873Y26077D01*
G01X3927Y26080D01*
G01X3977Y26088D01*
G01X4022Y26102D01*
G01X4062Y26122D01*
G01X4098Y26147D01*
G01X4129Y26177D01*
G01X4155Y26212D01*
G01X4177Y26251D01*
G01X4194Y26295D01*
G01X4206Y26343D01*
G01X4213Y26396D01*
G01X4216Y26452D01*
G01X4213Y26509D01*
G01X4206Y26561D01*
G01X4194Y26608D01*
G01X4177Y26652D01*
G01X4155Y26690D01*
G01X4129Y26724D01*
G01X4098Y26753D01*
G01X4061Y26777D01*
G01X4021Y26796D01*
G01X3976Y26810D01*
G01X3925Y26818D01*
G01X3870Y26821D01*
G37*

%LPC*%
G36*
G01X3863Y26752D02*
G01X3771Y26752D01*
G01X3771Y26145D01*
G01X3863Y26145D01*
G01X3926Y26151D01*
G01X3981Y26166D01*
G01X4026Y26192D01*
G01X4064Y26227D01*
G01X4092Y26272D01*
G01X4113Y26324D01*
G01X4125Y26384D01*
G01X4130Y26452D01*
G01X4125Y26519D01*
G01X4113Y26578D01*
G01X4092Y26630D01*
G01X4064Y26673D01*
G01X4026Y26707D01*
G01X3981Y26732D01*
G01X3926Y26747D01*
G01X3863Y26752D01*
G37*

%LPD*%
G36*
G01X3042Y26821D02*
G01X2956Y26821D01*
G01X2956Y26077D01*
G01X3037Y26077D01*
G01X3037Y26483D01*
G01X3036Y26541D01*
G01X3027Y26712D01*
G01X3032Y26712D01*
G01X3114Y26559D01*
G01X3393Y26077D01*
G01X3479Y26077D01*
G01X3479Y26821D01*
G01X3398Y26821D01*
G01X3398Y26417D01*
G01X3400Y26359D01*
G01X3403Y26301D01*
G01X3407Y26242D01*
G01X3411Y26186D01*
G01X3406Y26186D01*
G01X3324Y26338D01*
G01X3042Y26821D01*
G37*

%LPD*%
G36*
G01X2626Y26826D02*
G01X2555Y26833D01*
G01X2507Y26830D01*
G01X2462Y26821D01*
G01X2420Y26807D01*
G01X2381Y26786D01*
G01X2345Y26761D01*
G01X2314Y26730D01*
G01X2286Y26694D01*
G01X2263Y26654D01*
G01X2244Y26608D01*
G01X2231Y26559D01*
G01X2223Y26505D01*
G01X2219Y26447D01*
G01X2226Y26363D01*
G01X2244Y26287D01*
G01X2273Y26221D01*
G01X2312Y26166D01*
G01X2360Y26122D01*
G01X2417Y26090D01*
G01X2480Y26070D01*
G01X2550Y26064D01*
G01X2620Y26070D01*
G01X2683Y26088D01*
G01X2736Y26114D01*
G01X2778Y26148D01*
G01X2778Y26458D01*
G01X2537Y26458D01*
G01X2537Y26386D01*
G01X2700Y26386D01*
G01X2700Y26183D01*
G01X2672Y26164D01*
G01X2638Y26150D01*
G01X2599Y26141D01*
G01X2557Y26137D01*
G01X2500Y26143D01*
G01X2451Y26159D01*
G01X2407Y26186D01*
G01X2371Y26222D01*
G01X2343Y26268D01*
G01X2323Y26321D01*
G01X2310Y26382D01*
G01X2306Y26450D01*
G01X2310Y26518D01*
G01X2323Y26579D01*
G01X2344Y26632D01*
G01X2373Y26676D01*
G01X2409Y26712D01*
G01X2453Y26738D01*
G01X2502Y26754D01*
G01X2557Y26760D01*
G01X2611Y26754D01*
G01X2655Y26738D01*
G01X2691Y26716D01*
G01X2722Y26689D01*
G01X2768Y26742D01*
G01X2731Y26776D01*
G01X2684Y26805D01*
G01X2626Y26826D01*
G37*

%LPD*%

%LPD*%
G36*
G01X2377Y24408D02*
G01X2288Y24408D01*
G01X2527Y23664D01*
G01X2623Y23664D01*
G01X2860Y24408D01*
G01X2776Y24408D01*
G01X2651Y23996D01*
G01X2633Y23933D01*
G01X2597Y23813D01*
G01X2578Y23750D01*
G01X2575Y23750D01*
G01X2554Y23813D01*
G01X2536Y23873D01*
G01X2519Y23933D01*
G01X2501Y23996D01*
G01X2377Y24408D01*
G37*

%LPD*%
G36*
G01X3914Y24413D02*
G01X3850Y24420D01*
G01X3782Y24414D01*
G01X3720Y24394D01*
G01X3665Y24361D01*
G01X3617Y24317D01*
G01X3578Y24261D01*
G01X3549Y24195D01*
G01X3531Y24120D01*
G01X3525Y24034D01*
G01X3531Y23950D01*
G01X3549Y23874D01*
G01X3577Y23808D01*
G01X3615Y23753D01*
G01X3662Y23709D01*
G01X3717Y23677D01*
G01X3778Y23657D01*
G01X3845Y23651D01*
G01X3913Y23658D01*
G01X3973Y23678D01*
G01X4025Y23712D01*
G01X4071Y23757D01*
G01X4023Y23811D01*
G01X3985Y23774D01*
G01X3945Y23747D01*
G01X3899Y23730D01*
G01X3848Y23724D01*
G01X3796Y23730D01*
G01X3750Y23746D01*
G01X3709Y23773D01*
G01X3675Y23809D01*
G01X3648Y23855D01*
G01X3628Y23908D01*
G01X3615Y23969D01*
G01X3611Y24037D01*
G01X3616Y24105D01*
G01X3628Y24166D01*
G01X3649Y24219D01*
G01X3676Y24263D01*
G01X3711Y24299D01*
G01X3752Y24325D01*
G01X3798Y24341D01*
G01X3850Y24347D01*
G01X3897Y24342D01*
G01X3938Y24327D01*
G01X3974Y24305D01*
G01X4005Y24276D01*
G01X4053Y24329D01*
G01X4016Y24364D01*
G01X3970Y24393D01*
G01X3914Y24413D01*
G37*

%LPD*%
G36*
G01X3299Y24413D02*
G01X3235Y24420D01*
G01X3167Y24414D01*
G01X3105Y24394D01*
G01X3050Y24361D01*
G01X3002Y24317D01*
G01X2964Y24261D01*
G01X2935Y24195D01*
G01X2916Y24120D01*
G01X2910Y24034D01*
G01X2916Y23950D01*
G01X2935Y23874D01*
G01X2963Y23808D01*
G01X3002Y23753D01*
G01X3049Y23709D01*
G01X3103Y23677D01*
G01X3164Y23657D01*
G01X3230Y23651D01*
G01X3298Y23658D01*
G01X3358Y23678D01*
G01X3410Y23712D01*
G01X3456Y23757D01*
G01X3411Y23811D01*
G01X3373Y23774D01*
G01X3331Y23747D01*
G01X3286Y23730D01*
G01X3235Y23724D01*
G01X3183Y23730D01*
G01X3136Y23746D01*
G01X3095Y23773D01*
G01X3061Y23809D01*
G01X3033Y23855D01*
G01X3013Y23908D01*
G01X3001Y23969D01*
G01X2997Y24037D01*
G01X3001Y24105D01*
G01X3014Y24166D01*
G01X3035Y24219D01*
G01X3063Y24263D01*
G01X3098Y24299D01*
G01X3139Y24325D01*
G01X3186Y24341D01*
G01X3238Y24347D01*
G01X3283Y24342D01*
G01X3324Y24327D01*
G01X3360Y24305D01*
G01X3393Y24276D01*
G01X3439Y24329D01*
G01X3402Y24364D01*
G01X3355Y24393D01*
G01X3299Y24413D01*
G37*

%LPD*%
G54D29*
G01X37211Y29135D02*
G01X37211Y28355D01*
G01X37261Y28200D01*
G01X37365Y28096D01*
G01X37523Y28045D01*
G01X37627Y28045D01*
G01X37782Y28096D01*
G01X37886Y28200D01*
G01X37937Y28355D01*
G01X37937Y29135D01*
G01X39009Y28980D02*
G01X38905Y29084D01*
G01X38747Y29135D01*
G01X38541Y29135D01*
G01X38384Y29084D01*
G01X38280Y28980D01*
G01X38280Y28876D01*
G01X38333Y28771D01*
G01X38384Y28718D01*
G01X38488Y28667D01*
G01X38801Y28563D01*
G01X38905Y28512D01*
G01X38955Y28459D01*
G01X39009Y28355D01*
G01X39009Y28200D01*
G01X38905Y28096D01*
G01X38747Y28045D01*
G01X38541Y28045D01*
G01X38384Y28096D01*
G01X38280Y28200D01*
G01X39352Y27679D02*
G01X40286Y27679D01*
G01X41356Y28980D02*
G01X41252Y29084D01*
G01X41097Y29135D01*
G01X40888Y29135D01*
G01X40733Y29084D01*
G01X40629Y28980D01*
G01X40629Y28876D01*
G01X40680Y28771D01*
G01X40733Y28718D01*
G01X40838Y28667D01*
G01X41148Y28563D01*
G01X41252Y28512D01*
G01X41305Y28459D01*
G01X41356Y28355D01*
G01X41356Y28200D01*
G01X41252Y28096D01*
G01X41097Y28045D01*
G01X40888Y28045D01*
G01X40733Y28096D01*
G01X40629Y28200D01*
G01X41699Y29135D02*
G01X41699Y28045D01*
G01X41699Y29135D02*
G01X42374Y29135D01*
G01X41699Y28617D02*
G01X42115Y28617D01*
G01X41699Y28045D02*
G01X42374Y28045D01*
G01X42717Y29135D02*
G01X42717Y28045D01*
G01X42717Y29135D02*
G01X43446Y28045D01*
G01X43446Y29135D02*
G01X43446Y28045D01*
G01X44516Y28980D02*
G01X44411Y29084D01*
G01X44256Y29135D01*
G01X44048Y29135D01*
G01X43891Y29084D01*
G01X43789Y28980D01*
G01X43789Y28876D01*
G01X43840Y28771D01*
G01X43891Y28718D01*
G01X43995Y28667D01*
G01X44307Y28563D01*
G01X44411Y28512D01*
G01X44462Y28459D01*
G01X44516Y28355D01*
G01X44516Y28200D01*
G01X44411Y28096D01*
G01X44256Y28045D01*
G01X44048Y28045D01*
G01X43891Y28096D01*
G01X43789Y28200D01*
G01X45171Y29135D02*
G01X45067Y29084D01*
G01X44963Y28980D01*
G01X44909Y28876D01*
G01X44858Y28718D01*
G01X44858Y28459D01*
G01X44909Y28304D01*
G01X44963Y28200D01*
G01X45067Y28096D01*
G01X45171Y28045D01*
G01X45377Y28045D01*
G01X45481Y28096D01*
G01X45585Y28200D01*
G01X45638Y28304D01*
G01X45689Y28459D01*
G01X45689Y28718D01*
G01X45638Y28876D01*
G01X45585Y28980D01*
G01X45481Y29084D01*
G01X45377Y29135D01*
G01X45171Y29135D01*
G01X46032Y29135D02*
G01X46032Y28045D01*
G01X46032Y29135D02*
G01X46499Y29135D01*
G01X46657Y29084D01*
G01X46708Y29031D01*
G01X46761Y28926D01*
G01X46761Y28822D01*
G01X46708Y28718D01*
G01X46657Y28667D01*
G01X46499Y28617D01*
G01X46032Y28617D01*
G01X46395Y28617D02*
G01X46761Y28045D01*
G01X47734Y9196D02*
G01X47734Y8106D01*
G01X47371Y9196D02*
G01X48097Y9196D01*
G01X48961Y9196D02*
G01X48440Y8469D01*
G01X49220Y8469D01*
G01X48961Y9196D02*
G01X48961Y8106D01*

%LPD*%
G36*
G01X69148Y3177D02*
G01X68966Y3177D01*
G01X68966Y2433D01*
G01X69151Y2433D01*
G01X69205Y2436D01*
G01X69255Y2444D01*
G01X69300Y2459D01*
G01X69340Y2478D01*
G01X69376Y2503D01*
G01X69407Y2533D01*
G01X69433Y2568D01*
G01X69455Y2607D01*
G01X69472Y2652D01*
G01X69484Y2700D01*
G01X69491Y2752D01*
G01X69494Y2809D01*
G01X69491Y2865D01*
G01X69484Y2917D01*
G01X69472Y2965D01*
G01X69455Y3008D01*
G01X69433Y3047D01*
G01X69407Y3080D01*
G01X69376Y3110D01*
G01X69339Y3134D01*
G01X69299Y3153D01*
G01X69254Y3166D01*
G01X69203Y3174D01*
G01X69148Y3177D01*
G37*

%LPC*%
G36*
G01X69141Y3108D02*
G01X69049Y3108D01*
G01X69049Y2501D01*
G01X69141Y2501D01*
G01X69204Y2507D01*
G01X69259Y2523D01*
G01X69304Y2548D01*
G01X69342Y2584D01*
G01X69370Y2628D01*
G01X69391Y2681D01*
G01X69403Y2741D01*
G01X69408Y2809D01*
G01X69403Y2876D01*
G01X69391Y2935D01*
G01X69370Y2986D01*
G01X69342Y3029D01*
G01X69304Y3063D01*
G01X69259Y3088D01*
G01X69204Y3103D01*
G01X69141Y3108D01*
G37*

%LPD*%
G36*
G01X68320Y3177D02*
G01X68234Y3177D01*
G01X68234Y2433D01*
G01X68315Y2433D01*
G01X68315Y2839D01*
G01X68314Y2897D01*
G01X68305Y3068D01*
G01X68310Y3068D01*
G01X68392Y2915D01*
G01X68671Y2433D01*
G01X68757Y2433D01*
G01X68757Y3177D01*
G01X68676Y3177D01*
G01X68676Y2773D01*
G01X68678Y2716D01*
G01X68681Y2657D01*
G01X68685Y2599D01*
G01X68689Y2542D01*
G01X68684Y2542D01*
G01X68602Y2694D01*
G01X68320Y3177D01*
G37*

%LPD*%
G36*
G01X67904Y3182D02*
G01X67833Y3190D01*
G01X67785Y3187D01*
G01X67740Y3178D01*
G01X67698Y3163D01*
G01X67659Y3143D01*
G01X67623Y3117D01*
G01X67592Y3086D01*
G01X67564Y3050D01*
G01X67541Y3010D01*
G01X67522Y2965D01*
G01X67509Y2915D01*
G01X67501Y2861D01*
G01X67497Y2804D01*
G01X67504Y2719D01*
G01X67522Y2643D01*
G01X67551Y2577D01*
G01X67590Y2523D01*
G01X67638Y2478D01*
G01X67695Y2446D01*
G01X67758Y2427D01*
G01X67828Y2420D01*
G01X67898Y2427D01*
G01X67961Y2444D01*
G01X68014Y2471D01*
G01X68056Y2504D01*
G01X68056Y2814D01*
G01X67815Y2814D01*
G01X67815Y2743D01*
G01X67978Y2743D01*
G01X67978Y2539D01*
G01X67950Y2521D01*
G01X67916Y2506D01*
G01X67877Y2497D01*
G01X67835Y2494D01*
G01X67778Y2500D01*
G01X67729Y2516D01*
G01X67685Y2542D01*
G01X67649Y2578D01*
G01X67621Y2624D01*
G01X67601Y2677D01*
G01X67588Y2738D01*
G01X67584Y2806D01*
G01X67588Y2874D01*
G01X67601Y2935D01*
G01X67622Y2988D01*
G01X67651Y3033D01*
G01X67687Y3068D01*
G01X67731Y3095D01*
G01X67780Y3111D01*
G01X67835Y3116D01*
G01X67889Y3110D01*
G01X67933Y3095D01*
G01X67969Y3072D01*
G01X68000Y3045D01*
G01X68046Y3098D01*
G01X68009Y3132D01*
G01X67962Y3161D01*
G01X67904Y3182D01*
G37*

%LPD*%

%LPD*%
G36*
G01X65101Y3177D02*
G01X65012Y3177D01*
G01X65251Y2433D01*
G01X65347Y2433D01*
G01X65583Y3177D01*
G01X65499Y3177D01*
G01X65375Y2765D01*
G01X65357Y2702D01*
G01X65339Y2642D01*
G01X65321Y2583D01*
G01X65301Y2519D01*
G01X65299Y2519D01*
G01X65278Y2583D01*
G01X65260Y2642D01*
G01X65243Y2702D01*
G01X65225Y2765D01*
G01X65101Y3177D01*
G37*

%LPD*%
G36*
G01X66638Y3182D02*
G01X66574Y3190D01*
G01X66506Y3183D01*
G01X66444Y3163D01*
G01X66388Y3131D01*
G01X66341Y3086D01*
G01X66302Y3031D01*
G01X66273Y2965D01*
G01X66255Y2889D01*
G01X66249Y2804D01*
G01X66255Y2719D01*
G01X66273Y2643D01*
G01X66301Y2577D01*
G01X66339Y2523D01*
G01X66386Y2478D01*
G01X66441Y2446D01*
G01X66502Y2427D01*
G01X66569Y2420D01*
G01X66637Y2427D01*
G01X66696Y2448D01*
G01X66749Y2481D01*
G01X66795Y2527D01*
G01X66747Y2580D01*
G01X66710Y2543D01*
G01X66668Y2516D01*
G01X66623Y2500D01*
G01X66571Y2494D01*
G01X66520Y2500D01*
G01X66473Y2516D01*
G01X66433Y2542D01*
G01X66399Y2578D01*
G01X66372Y2624D01*
G01X66352Y2677D01*
G01X66339Y2738D01*
G01X66335Y2806D01*
G01X66340Y2874D01*
G01X66352Y2935D01*
G01X66373Y2988D01*
G01X66400Y3033D01*
G01X66435Y3068D01*
G01X66476Y3095D01*
G01X66522Y3111D01*
G01X66574Y3116D01*
G01X66621Y3111D01*
G01X66662Y3097D01*
G01X66698Y3074D01*
G01X66729Y3045D01*
G01X66777Y3098D01*
G01X66740Y3133D01*
G01X66694Y3162D01*
G01X66638Y3182D01*
G37*

%LPD*%
G36*
G01X66024Y3182D02*
G01X65959Y3190D01*
G01X65891Y3183D01*
G01X65829Y3163D01*
G01X65774Y3131D01*
G01X65726Y3086D01*
G01X65687Y3031D01*
G01X65659Y2965D01*
G01X65641Y2889D01*
G01X65634Y2804D01*
G01X65641Y2719D01*
G01X65659Y2643D01*
G01X65687Y2577D01*
G01X65726Y2523D01*
G01X65773Y2478D01*
G01X65827Y2446D01*
G01X65888Y2427D01*
G01X65954Y2420D01*
G01X66022Y2427D01*
G01X66082Y2448D01*
G01X66134Y2481D01*
G01X66180Y2527D01*
G01X66134Y2580D01*
G01X66097Y2543D01*
G01X66056Y2516D01*
G01X66010Y2500D01*
G01X65959Y2494D01*
G01X65907Y2500D01*
G01X65860Y2516D01*
G01X65819Y2542D01*
G01X65784Y2578D01*
G01X65757Y2624D01*
G01X65737Y2677D01*
G01X65725Y2738D01*
G01X65720Y2806D01*
G01X65725Y2874D01*
G01X65738Y2935D01*
G01X65759Y2988D01*
G01X65787Y3033D01*
G01X65822Y3068D01*
G01X65863Y3095D01*
G01X65910Y3111D01*
G01X65962Y3116D01*
G01X66007Y3111D01*
G01X66048Y3097D01*
G01X66084Y3074D01*
G01X66117Y3045D01*
G01X66162Y3098D01*
G01X66125Y3133D01*
G01X66079Y3162D01*
G01X66024Y3182D01*
G37*

%LPD*%

%LPD*%
G36*
G01X64055Y3177D02*
G01X63964Y3177D01*
G01X63710Y2433D01*
G01X63794Y2433D01*
G01X63870Y2666D01*
G01X64147Y2666D01*
G01X64220Y2433D01*
G01X64309Y2433D01*
G01X64055Y3177D01*
G37*

%LPC*%
G36*
G01X64010Y3106D02*
G01X64004Y3106D01*
G01X63987Y3041D01*
G01X63968Y2978D01*
G01X63949Y2917D01*
G01X63928Y2854D01*
G01X63890Y2732D01*
G01X64126Y2732D01*
G01X64086Y2854D01*
G01X64065Y2917D01*
G01X64047Y2979D01*
G01X64028Y3042D01*
G01X64010Y3106D01*
G37*

%LPD*%
G36*
G01X63308Y3177D02*
G01X63126Y3177D01*
G01X63126Y2433D01*
G01X63311Y2433D01*
G01X63365Y2436D01*
G01X63415Y2444D01*
G01X63460Y2459D01*
G01X63501Y2478D01*
G01X63536Y2503D01*
G01X63567Y2533D01*
G01X63593Y2568D01*
G01X63615Y2607D01*
G01X63632Y2652D01*
G01X63644Y2700D01*
G01X63651Y2752D01*
G01X63654Y2809D01*
G01X63651Y2865D01*
G01X63644Y2917D01*
G01X63632Y2965D01*
G01X63615Y3008D01*
G01X63593Y3047D01*
G01X63567Y3080D01*
G01X63536Y3110D01*
G01X63500Y3134D01*
G01X63459Y3153D01*
G01X63414Y3166D01*
G01X63363Y3174D01*
G01X63308Y3177D01*
G37*

%LPC*%
G36*
G01X63301Y3108D02*
G01X63209Y3108D01*
G01X63209Y2501D01*
G01X63301Y2501D01*
G01X63364Y2507D01*
G01X63419Y2523D01*
G01X63464Y2548D01*
G01X63502Y2584D01*
G01X63531Y2628D01*
G01X63551Y2681D01*
G01X63564Y2741D01*
G01X63568Y2809D01*
G01X63564Y2876D01*
G01X63551Y2935D01*
G01X63531Y2986D01*
G01X63502Y3029D01*
G01X63464Y3063D01*
G01X63419Y3088D01*
G01X63364Y3103D01*
G01X63301Y3108D01*
G37*

%LPD*%
G36*
G01X62798Y3183D02*
G01X62734Y3190D01*
G01X62643Y3175D01*
G01X62571Y3135D01*
G01X62523Y3074D01*
G01X62506Y2997D01*
G01X62520Y2925D01*
G01X62555Y2872D01*
G01X62603Y2833D01*
G01X62656Y2806D01*
G01X62765Y2758D01*
G01X62815Y2735D01*
G01X62855Y2709D01*
G01X62882Y2672D01*
G01X62892Y2621D01*
G01X62880Y2569D01*
G01X62848Y2529D01*
G01X62795Y2503D01*
G01X62727Y2494D01*
G01X62668Y2500D01*
G01X62613Y2519D01*
G01X62563Y2548D01*
G01X62519Y2588D01*
G01X62468Y2529D01*
G01X62520Y2484D01*
G01X62581Y2450D01*
G01X62650Y2428D01*
G01X62727Y2420D01*
G01X62781Y2425D01*
G01X62830Y2436D01*
G01X62873Y2456D01*
G01X62909Y2480D01*
G01X62937Y2511D01*
G01X62958Y2546D01*
G01X62971Y2586D01*
G01X62976Y2628D01*
G01X62964Y2700D01*
G01X62931Y2754D01*
G01X62881Y2795D01*
G01X62821Y2826D01*
G01X62714Y2872D01*
G01X62671Y2892D01*
G01X62631Y2918D01*
G01X62601Y2953D01*
G01X62590Y3002D01*
G01X62600Y3050D01*
G01X62630Y3085D01*
G01X62676Y3108D01*
G01X62734Y3116D01*
G01X62785Y3111D01*
G01X62830Y3097D01*
G01X62871Y3074D01*
G01X62907Y3045D01*
G01X62950Y3098D01*
G01X62908Y3135D01*
G01X62857Y3164D01*
G01X62798Y3183D01*
G37*

%LPD*%

%LPD*%
G36*
G01X61435Y3177D02*
G01X61351Y3177D01*
G01X61351Y2433D01*
G01X61765Y2433D01*
G01X61765Y2504D01*
G01X61435Y2504D01*
G01X61435Y3177D01*
G37*

%LPD*%
G36*
G01X61053Y3182D02*
G01X60990Y3190D01*
G01X60922Y3183D01*
G01X60860Y3163D01*
G01X60804Y3131D01*
G01X60756Y3086D01*
G01X60717Y3031D01*
G01X60688Y2965D01*
G01X60669Y2889D01*
G01X60663Y2804D01*
G01X60669Y2719D01*
G01X60687Y2643D01*
G01X60716Y2577D01*
G01X60754Y2523D01*
G01X60802Y2478D01*
G01X60856Y2446D01*
G01X60917Y2427D01*
G01X60983Y2420D01*
G01X61051Y2427D01*
G01X61111Y2448D01*
G01X61165Y2481D01*
G01X61211Y2527D01*
G01X61163Y2580D01*
G01X61126Y2543D01*
G01X61084Y2516D01*
G01X61039Y2500D01*
G01X60988Y2494D01*
G01X60936Y2500D01*
G01X60888Y2516D01*
G01X60848Y2542D01*
G01X60813Y2578D01*
G01X60786Y2624D01*
G01X60766Y2677D01*
G01X60753Y2738D01*
G01X60749Y2806D01*
G01X60754Y2874D01*
G01X60766Y2935D01*
G01X60787Y2988D01*
G01X60816Y3033D01*
G01X60851Y3068D01*
G01X60892Y3095D01*
G01X60939Y3111D01*
G01X60990Y3116D01*
G01X61037Y3111D01*
G01X61078Y3097D01*
G01X61114Y3074D01*
G01X61145Y3045D01*
G01X61191Y3098D01*
G01X61155Y3133D01*
G01X61109Y3162D01*
G01X61053Y3182D01*
G37*

%LPD*%
G36*
G01X60381Y3183D02*
G01X60317Y3190D01*
G01X60226Y3175D01*
G01X60154Y3135D01*
G01X60106Y3074D01*
G01X60089Y2997D01*
G01X60103Y2925D01*
G01X60138Y2872D01*
G01X60186Y2833D01*
G01X60239Y2806D01*
G01X60348Y2758D01*
G01X60398Y2735D01*
G01X60438Y2709D01*
G01X60465Y2672D01*
G01X60475Y2621D01*
G01X60463Y2569D01*
G01X60431Y2529D01*
G01X60378Y2503D01*
G01X60310Y2494D01*
G01X60251Y2500D01*
G01X60196Y2519D01*
G01X60146Y2548D01*
G01X60101Y2588D01*
G01X60051Y2529D01*
G01X60103Y2484D01*
G01X60164Y2450D01*
G01X60233Y2428D01*
G01X60310Y2420D01*
G01X60364Y2425D01*
G01X60413Y2436D01*
G01X60456Y2456D01*
G01X60492Y2480D01*
G01X60520Y2511D01*
G01X60541Y2546D01*
G01X60554Y2586D01*
G01X60559Y2628D01*
G01X60546Y2700D01*
G01X60513Y2754D01*
G01X60464Y2795D01*
G01X60404Y2826D01*
G01X60297Y2872D01*
G01X60254Y2892D01*
G01X60214Y2918D01*
G01X60184Y2953D01*
G01X60173Y3002D01*
G01X60183Y3050D01*
G01X60213Y3085D01*
G01X60258Y3108D01*
G01X60317Y3116D01*
G01X60368Y3111D01*
G01X60413Y3097D01*
G01X60454Y3074D01*
G01X60490Y3045D01*
G01X60533Y3098D01*
G01X60491Y3135D01*
G01X60440Y3164D01*
G01X60381Y3183D01*
G37*

%LPD*%

%LPD*%
G36*
G01X58604Y3262D02*
G01X58518Y3262D01*
G01X58678Y2518D01*
G01X58777Y2518D01*
G01X58893Y2980D01*
G01X58903Y3023D01*
G01X58913Y3065D01*
G01X58922Y3107D01*
G01X58932Y3150D01*
G01X58937Y3150D01*
G01X58945Y3107D01*
G01X58953Y3065D01*
G01X58963Y3023D01*
G01X58972Y2980D01*
G01X59092Y2518D01*
G01X59191Y2518D01*
G01X59348Y3262D01*
G01X59267Y3262D01*
G01X59186Y2848D01*
G01X59174Y2789D01*
G01X59151Y2668D01*
G01X59140Y2607D01*
G01X59135Y2607D01*
G01X59122Y2668D01*
G01X59108Y2728D01*
G01X59095Y2789D01*
G01X59081Y2848D01*
G01X58975Y3262D01*
G01X58896Y3262D01*
G01X58789Y2848D01*
G01X58776Y2789D01*
G01X58763Y2728D01*
G01X58749Y2668D01*
G01X58736Y2607D01*
G01X58733Y2607D01*
G01X58722Y2668D01*
G01X58711Y2728D01*
G01X58699Y2789D01*
G01X58688Y2848D01*
G01X58604Y3262D01*
G37*

%LPD*%
G36*
G01X57527Y3268D02*
G01X57463Y3275D01*
G01X57372Y3261D01*
G01X57300Y3221D01*
G01X57252Y3159D01*
G01X57235Y3082D01*
G01X57249Y3010D01*
G01X57284Y2957D01*
G01X57332Y2919D01*
G01X57385Y2891D01*
G01X57494Y2843D01*
G01X57544Y2820D01*
G01X57584Y2793D01*
G01X57611Y2757D01*
G01X57621Y2706D01*
G01X57609Y2654D01*
G01X57577Y2614D01*
G01X57524Y2588D01*
G01X57456Y2579D01*
G01X57397Y2586D01*
G01X57342Y2604D01*
G01X57292Y2634D01*
G01X57248Y2673D01*
G01X57197Y2615D01*
G01X57249Y2570D01*
G01X57310Y2535D01*
G01X57379Y2513D01*
G01X57456Y2505D01*
G01X57510Y2509D01*
G01X57559Y2522D01*
G01X57602Y2540D01*
G01X57637Y2566D01*
G01X57666Y2596D01*
G01X57687Y2632D01*
G01X57700Y2671D01*
G01X57705Y2714D01*
G01X57693Y2785D01*
G01X57660Y2839D01*
G01X57610Y2880D01*
G01X57550Y2912D01*
G01X57443Y2957D01*
G01X57400Y2978D01*
G01X57360Y3003D01*
G01X57330Y3038D01*
G01X57319Y3087D01*
G01X57329Y3135D01*
G01X57359Y3171D01*
G01X57405Y3194D01*
G01X57463Y3201D01*
G01X57514Y3196D01*
G01X57559Y3182D01*
G01X57600Y3160D01*
G01X57636Y3130D01*
G01X57679Y3183D01*
G01X57637Y3220D01*
G01X57586Y3249D01*
G01X57527Y3268D01*
G37*

%LPD*%
G36*
G01X58190Y3268D02*
G01X58124Y3275D01*
G01X58058Y3268D01*
G01X57997Y3249D01*
G01X57944Y3217D01*
G01X57898Y3173D01*
G01X57860Y3118D01*
G01X57832Y3053D01*
G01X57815Y2978D01*
G01X57809Y2894D01*
G01X57814Y2815D01*
G01X57829Y2743D01*
G01X57853Y2680D01*
G01X57885Y2626D01*
G01X57925Y2580D01*
G01X57972Y2545D01*
G01X58025Y2521D01*
G01X58083Y2508D01*
G01X58123Y2438D01*
G01X58181Y2383D01*
G01X58257Y2348D01*
G01X58350Y2335D01*
G01X58381Y2336D01*
G01X58409Y2339D01*
G01X58433Y2344D01*
G01X58452Y2350D01*
G01X58436Y2416D01*
G01X58421Y2413D01*
G01X58403Y2409D01*
G01X58382Y2407D01*
G01X58358Y2406D01*
G01X58299Y2412D01*
G01X58247Y2431D01*
G01X58204Y2463D01*
G01X58172Y2508D01*
G01X58230Y2523D01*
G01X58281Y2548D01*
G01X58327Y2584D01*
G01X58366Y2628D01*
G01X58397Y2683D01*
G01X58420Y2745D01*
G01X58434Y2816D01*
G01X58439Y2894D01*
G01X58433Y2978D01*
G01X58415Y3053D01*
G01X58388Y3118D01*
G01X58351Y3173D01*
G01X58305Y3217D01*
G01X58251Y3249D01*
G01X58190Y3268D01*
G37*

%LPC*%
G36*
G01X58173Y3196D02*
G01X58124Y3201D01*
G01X58075Y3196D01*
G01X58030Y3179D01*
G01X57991Y3154D01*
G01X57958Y3118D01*
G01X57931Y3074D01*
G01X57912Y3021D01*
G01X57899Y2961D01*
G01X57895Y2894D01*
G01X57899Y2824D01*
G01X57912Y2761D01*
G01X57931Y2706D01*
G01X57958Y2661D01*
G01X57991Y2624D01*
G01X58030Y2596D01*
G01X58075Y2579D01*
G01X58124Y2574D01*
G01X58173Y2579D01*
G01X58217Y2596D01*
G01X58256Y2624D01*
G01X58289Y2661D01*
G01X58316Y2706D01*
G01X58336Y2761D01*
G01X58348Y2824D01*
G01X58352Y2894D01*
G01X58348Y2961D01*
G01X58336Y3021D01*
G01X58316Y3074D01*
G01X58289Y3118D01*
G01X58256Y3154D01*
G01X58217Y3179D01*
G01X58173Y3196D01*
G37*

%LPD*%

%LPD*%
G36*
G01X56040Y3177D02*
G01X55956Y3177D01*
G01X55956Y2433D01*
G01X56040Y2433D01*
G01X56040Y2671D01*
G01X56174Y2829D01*
G01X56403Y2433D01*
G01X56494Y2433D01*
G01X56227Y2895D01*
G01X56461Y3177D01*
G01X56365Y3177D01*
G01X56042Y2793D01*
G01X56040Y2793D01*
G01X56040Y3177D01*
G37*

%LPD*%
G36*
G01X55599Y3186D02*
G01X55552Y3190D01*
G01X55487Y3182D01*
G01X55430Y3160D01*
G01X55381Y3126D01*
G01X55336Y3080D01*
G01X55384Y3035D01*
G01X55418Y3069D01*
G01X55456Y3098D01*
G01X55497Y3117D01*
G01X55542Y3124D01*
G01X55605Y3112D01*
G01X55649Y3080D01*
G01X55675Y3031D01*
G01X55684Y2969D01*
G01X55679Y2919D01*
G01X55664Y2868D01*
G01X55638Y2813D01*
G01X55601Y2755D01*
G01X55553Y2693D01*
G01X55494Y2628D01*
G01X55424Y2558D01*
G01X55341Y2483D01*
G01X55341Y2433D01*
G01X55801Y2433D01*
G01X55801Y2504D01*
G01X55557Y2504D01*
G01X55495Y2501D01*
G01X55465Y2499D01*
G01X55530Y2562D01*
G01X55588Y2624D01*
G01X55640Y2684D01*
G01X55683Y2743D01*
G01X55718Y2801D01*
G01X55744Y2858D01*
G01X55760Y2915D01*
G01X55765Y2971D01*
G01X55762Y3019D01*
G01X55750Y3061D01*
G01X55733Y3099D01*
G01X55708Y3130D01*
G01X55677Y3156D01*
G01X55641Y3174D01*
G01X55599Y3186D01*
G37*

%LPD*%
G36*
G01X55085Y3178D02*
G01X55001Y3190D01*
G01X54940Y3183D01*
G01X54885Y3165D01*
G01X54838Y3137D01*
G01X54795Y3103D01*
G01X54841Y3047D01*
G01X54874Y3077D01*
G01X54910Y3101D01*
G01X54951Y3117D01*
G01X54996Y3124D01*
G01X55050Y3114D01*
G01X55092Y3088D01*
G01X55119Y3049D01*
G01X55128Y2999D01*
G01X55116Y2941D01*
G01X55080Y2894D01*
G01X55015Y2863D01*
G01X54917Y2852D01*
G01X54917Y2788D01*
G01X55027Y2777D01*
G01X55100Y2746D01*
G01X55140Y2696D01*
G01X55153Y2633D01*
G01X55141Y2573D01*
G01X55109Y2528D01*
G01X55060Y2499D01*
G01X54998Y2489D01*
G01X54937Y2496D01*
G01X54887Y2515D01*
G01X54845Y2542D01*
G01X54810Y2575D01*
G01X54767Y2522D01*
G01X54808Y2483D01*
G01X54859Y2451D01*
G01X54924Y2429D01*
G01X55003Y2420D01*
G01X55050Y2424D01*
G01X55094Y2435D01*
G01X55134Y2452D01*
G01X55169Y2476D01*
G01X55197Y2506D01*
G01X55219Y2542D01*
G01X55232Y2584D01*
G01X55237Y2631D01*
G01X55224Y2701D01*
G01X55190Y2757D01*
G01X55139Y2797D01*
G01X55077Y2821D01*
G01X55077Y2824D01*
G01X55132Y2852D01*
G01X55175Y2892D01*
G01X55202Y2943D01*
G01X55211Y3007D01*
G01X55196Y3085D01*
G01X55152Y3142D01*
G01X55085Y3178D01*
G37*

%LPD*%
G01X57404Y7291D02*
G01X57404Y6201D01*
G01X57404Y7291D02*
G01X57871Y7291D01*
G01X58026Y7240D01*
G01X58079Y7187D01*
G01X58130Y7082D01*
G01X58130Y6978D01*
G01X58079Y6874D01*
G01X58026Y6823D01*
G01X57871Y6773D01*
G01X57404Y6773D01*
G01X57767Y6773D02*
G01X58130Y6201D01*
G01X58839Y7291D02*
G01X58839Y6201D01*
G01X58473Y7291D02*
G01X59202Y7291D01*
G01X60325Y7032D02*
G01X60271Y7136D01*
G01X60167Y7240D01*
G01X60063Y7291D01*
G01X59855Y7291D01*
G01X59753Y7240D01*
G01X59649Y7136D01*
G01X59596Y7032D01*
G01X59545Y6874D01*
G01X59545Y6615D01*
G01X59596Y6460D01*
G01X59649Y6356D01*
G01X59753Y6252D01*
G01X59855Y6201D01*
G01X60063Y6201D01*
G01X60167Y6252D01*
G01X60271Y6356D01*
G01X60325Y6460D01*
G01X61468Y7291D02*
G01X61468Y6201D01*
G01X61468Y7291D02*
G01X61831Y7291D01*
G01X61986Y7240D01*
G01X62090Y7136D01*
G01X62141Y7032D01*
G01X62194Y6874D01*
G01X62194Y6615D01*
G01X62141Y6460D01*
G01X62090Y6356D01*
G01X61986Y6252D01*
G01X61831Y6201D01*
G01X61468Y6201D01*
G01X63263Y7136D02*
G01X63159Y7240D01*
G01X63004Y7291D01*
G01X62796Y7291D01*
G01X62641Y7240D01*
G01X62537Y7136D01*
G01X62537Y7032D01*
G01X62588Y6927D01*
G01X62641Y6874D01*
G01X62745Y6823D01*
G01X63055Y6719D01*
G01X63159Y6668D01*
G01X63212Y6615D01*
G01X63263Y6511D01*
G01X63263Y6356D01*
G01X63159Y6252D01*
G01X63004Y6201D01*
G01X62796Y6201D01*
G01X62641Y6252D01*
G01X62537Y6356D01*
G01X63710Y7291D02*
G01X64282Y7291D01*
G01X63969Y6874D01*
G01X64127Y6874D01*
G01X64231Y6823D01*
G01X64282Y6773D01*
G01X64335Y6615D01*
G01X64335Y6511D01*
G01X64282Y6356D01*
G01X64178Y6252D01*
G01X64023Y6201D01*
G01X63868Y6201D01*
G01X63710Y6252D01*
G01X63660Y6303D01*
G01X63606Y6407D01*
G01X64729Y7032D02*
G01X64729Y7082D01*
G01X64782Y7187D01*
G01X64833Y7240D01*
G01X64937Y7291D01*
G01X65145Y7291D01*
G01X65250Y7240D01*
G01X65300Y7187D01*
G01X65354Y7082D01*
G01X65354Y6978D01*
G01X65300Y6874D01*
G01X65196Y6719D01*
G01X64678Y6201D01*
G01X65405Y6201D01*
G01X65852Y7291D02*
G01X66423Y7291D01*
G01X66111Y6874D01*
G01X66268Y6874D01*
G01X66370Y6823D01*
G01X66423Y6773D01*
G01X66474Y6615D01*
G01X66474Y6511D01*
G01X66423Y6356D01*
G01X66319Y6252D01*
G01X66164Y6201D01*
G01X66006Y6201D01*
G01X65852Y6252D01*
G01X65798Y6303D01*
G01X65747Y6407D01*
G01X66817Y7082D02*
G01X66921Y7136D01*
G01X67078Y7291D01*
G01X67078Y6201D01*
G01X39751Y16054D02*
G01X39751Y14964D01*
G01X39751Y16054D02*
G01X40218Y16054D01*
G01X40373Y16003D01*
G01X40426Y15950D01*
G01X40477Y15845D01*
G01X40477Y15741D01*
G01X40426Y15637D01*
G01X40373Y15586D01*
G01X40218Y15536D01*
G01X39751Y15536D01*
G01X40114Y15536D02*
G01X40477Y14964D01*
G01X40820Y15845D02*
G01X40924Y15899D01*
G01X41081Y16054D01*
G01X41081Y14964D01*
G01X42799Y16054D02*
G01X42799Y14964D01*
G01X42799Y16054D02*
G01X43266Y16054D01*
G01X43421Y16003D01*
G01X43474Y15950D01*
G01X43525Y15845D01*
G01X43525Y15741D01*
G01X43474Y15637D01*
G01X43421Y15586D01*
G01X43266Y15536D01*
G01X42799Y15536D01*
G01X43162Y15536D02*
G01X43525Y14964D01*
G01X43921Y15795D02*
G01X43921Y15845D01*
G01X43972Y15950D01*
G01X44025Y16003D01*
G01X44129Y16054D01*
G01X44335Y16054D01*
G01X44439Y16003D01*
G01X44493Y15950D01*
G01X44543Y15845D01*
G01X44543Y15741D01*
G01X44493Y15637D01*
G01X44389Y15482D01*
G01X43868Y14964D01*
G01X44597Y14964D01*
G01X45847Y16054D02*
G01X45847Y14964D01*
G01X45847Y16054D02*
G01X46314Y16054D01*
G01X46469Y16003D01*
G01X46522Y15950D01*
G01X46573Y15845D01*
G01X46573Y15741D01*
G01X46522Y15637D01*
G01X46469Y15586D01*
G01X46314Y15536D01*
G01X45847Y15536D01*
G01X46210Y15536D02*
G01X46573Y14964D01*
G01X47020Y16054D02*
G01X47591Y16054D01*
G01X47282Y15637D01*
G01X47437Y15637D01*
G01X47541Y15586D01*
G01X47591Y15536D01*
G01X47645Y15378D01*
G01X47645Y15274D01*
G01X47591Y15119D01*
G01X47487Y15015D01*
G01X47332Y14964D01*
G01X47177Y14964D01*
G01X47020Y15015D01*
G01X46969Y15066D01*
G01X46916Y15170D01*
G01X73787Y42597D02*
G01X73787Y41507D01*
G01X73787Y42597D02*
G01X74254Y42597D01*
G01X74409Y42546D01*
G01X74462Y42493D01*
G01X74513Y42388D01*
G01X74513Y42284D01*
G01X74462Y42180D01*
G01X74409Y42129D01*
G01X74254Y42079D01*
G01X73787Y42079D01*
G01X74150Y42079D02*
G01X74513Y41507D01*
G01X75377Y42597D02*
G01X74856Y41870D01*
G01X75636Y41870D01*
G01X75377Y42597D02*
G01X75377Y41507D01*
G54D30*
G01X56311Y37959D02*
G01X56311Y37230D01*
G01X56070Y37959D02*
G01X56555Y37959D01*
G01X56783Y37959D02*
G01X57268Y37230D01*
G01X57268Y37959D02*
G01X56783Y37230D01*
G01X56070Y35673D02*
G01X56070Y34944D01*
G01X56070Y35673D02*
G01X56382Y35673D01*
G01X56486Y35637D01*
G01X56519Y35602D01*
G01X56555Y35533D01*
G01X56555Y35465D01*
G01X56519Y35396D01*
G01X56486Y35361D01*
G01X56382Y35325D01*
G01X56070Y35325D01*
G01X56311Y35325D02*
G01X56555Y34944D01*
G01X56783Y35673D02*
G01X57268Y34944D01*
G01X57268Y35673D02*
G01X56783Y34944D01*
G01X56070Y33133D02*
G01X56070Y32404D01*
G01X56070Y33133D02*
G01X56382Y33133D01*
G01X56486Y33097D01*
G01X56519Y33062D01*
G01X56555Y32993D01*
G01X56555Y32925D01*
G01X56519Y32856D01*
G01X56486Y32821D01*
G01X56382Y32785D01*
G01X56070Y32785D01*
G01X56311Y32785D02*
G01X56555Y32404D01*
G01X57268Y33029D02*
G01X57200Y33097D01*
G01X57096Y33133D01*
G01X56956Y33133D01*
G01X56852Y33097D01*
G01X56783Y33029D01*
G01X56783Y32958D01*
G01X56819Y32889D01*
G01X56852Y32856D01*
G01X56921Y32821D01*
G01X57129Y32752D01*
G01X57200Y32716D01*
G01X57233Y32681D01*
G01X57268Y32612D01*
G01X57268Y32508D01*
G01X57200Y32440D01*
G01X57096Y32404D01*
G01X56956Y32404D01*
G01X56852Y32440D01*
G01X56783Y32508D01*
G01X57738Y33133D02*
G01X57738Y32404D01*
G01X57497Y33133D02*
G01X57982Y33133D01*
G01X56590Y30418D02*
G01X56555Y30489D01*
G01X56486Y30557D01*
G01X56415Y30593D01*
G01X56278Y30593D01*
G01X56209Y30557D01*
G01X56138Y30489D01*
G01X56105Y30418D01*
G01X56070Y30316D01*
G01X56070Y30141D01*
G01X56105Y30037D01*
G01X56138Y29968D01*
G01X56209Y29900D01*
G01X56278Y29864D01*
G01X56415Y29864D01*
G01X56486Y29900D01*
G01X56555Y29968D01*
G01X56590Y30037D01*
G01X56590Y30141D01*
G01X56415Y30141D02*
G01X56590Y30141D01*
G01X56819Y30593D02*
G01X56819Y29864D01*
G01X56819Y30593D02*
G01X57302Y29864D01*
G01X57302Y30593D02*
G01X57302Y29864D01*
G01X57530Y30593D02*
G01X57530Y29864D01*
G01X57530Y30593D02*
G01X57774Y30593D01*
G01X57878Y30557D01*
G01X57947Y30489D01*
G01X57982Y30418D01*
G01X58015Y30316D01*
G01X58015Y30141D01*
G01X57982Y30037D01*
G01X57947Y29968D01*
G01X57878Y29900D01*
G01X57774Y29864D01*
G01X57530Y29864D01*
G01X56232Y27878D02*
G01X56232Y27913D01*
G01X56265Y27982D01*
G01X56301Y28017D01*
G01X56369Y28053D01*
G01X56509Y28053D01*
G01X56578Y28017D01*
G01X56613Y27982D01*
G01X56646Y27913D01*
G01X56646Y27845D01*
G01X56613Y27776D01*
G01X56542Y27672D01*
G01X56197Y27324D01*
G01X56682Y27324D01*
G01X56138Y25513D02*
G01X56519Y25513D01*
G01X56311Y25236D01*
G01X56415Y25236D01*
G01X56486Y25201D01*
G01X56519Y25165D01*
G01X56555Y25061D01*
G01X56555Y24992D01*
G01X56519Y24888D01*
G01X56451Y24820D01*
G01X56346Y24784D01*
G01X56242Y24784D01*
G01X56138Y24820D01*
G01X56105Y24855D01*
G01X56070Y24924D01*
G01X56415Y22973D02*
G01X56070Y22488D01*
G01X56590Y22488D01*
G01X56415Y22973D02*
G01X56415Y22244D01*
G01X56486Y20433D02*
G01X56138Y20433D01*
G01X56105Y20121D01*
G01X56138Y20156D01*
G01X56242Y20189D01*
G01X56346Y20189D01*
G01X56451Y20156D01*
G01X56519Y20085D01*
G01X56555Y19981D01*
G01X56555Y19912D01*
G01X56519Y19808D01*
G01X56451Y19740D01*
G01X56346Y19704D01*
G01X56242Y19704D01*
G01X56138Y19740D01*
G01X56105Y19775D01*
G01X56070Y19844D01*
G01X56486Y17789D02*
G01X56451Y17857D01*
G01X56346Y17893D01*
G01X56278Y17893D01*
G01X56174Y17857D01*
G01X56105Y17753D01*
G01X56070Y17581D01*
G01X56070Y17408D01*
G01X56105Y17268D01*
G01X56174Y17200D01*
G01X56278Y17164D01*
G01X56311Y17164D01*
G01X56415Y17200D01*
G01X56486Y17268D01*
G01X56519Y17372D01*
G01X56519Y17408D01*
G01X56486Y17512D01*
G01X56415Y17581D01*
G01X56311Y17616D01*
G01X56278Y17616D01*
G01X56174Y17581D01*
G01X56105Y17512D01*
G01X56070Y17408D01*
G01X56555Y15353D02*
G01X56209Y14624D01*
G01X56070Y15353D02*
G01X56555Y15353D01*
G01X56242Y12813D02*
G01X56138Y12777D01*
G01X56105Y12709D01*
G01X56105Y12638D01*
G01X56138Y12569D01*
G01X56209Y12536D01*
G01X56346Y12501D01*
G01X56451Y12465D01*
G01X56519Y12396D01*
G01X56555Y12328D01*
G01X56555Y12224D01*
G01X56519Y12155D01*
G01X56486Y12120D01*
G01X56382Y12084D01*
G01X56242Y12084D01*
G01X56138Y12120D01*
G01X56105Y12155D01*
G01X56070Y12224D01*
G01X56070Y12328D01*
G01X56105Y12396D01*
G01X56174Y12465D01*
G01X56278Y12501D01*
G01X56415Y12536D01*
G01X56486Y12569D01*
G01X56519Y12638D01*
G01X56519Y12709D01*
G01X56486Y12777D01*
G01X56382Y12813D01*
G01X56242Y12813D01*
G01X56519Y10029D02*
G01X56486Y9925D01*
G01X56415Y9856D01*
G01X56311Y9821D01*
G01X56278Y9821D01*
G01X56174Y9856D01*
G01X56105Y9925D01*
G01X56070Y10029D01*
G01X56070Y10065D01*
G01X56105Y10169D01*
G01X56174Y10237D01*
G01X56278Y10273D01*
G01X56311Y10273D01*
G01X56415Y10237D01*
G01X56486Y10169D01*
G01X56519Y10029D01*
G01X56519Y9856D01*
G01X56486Y9684D01*
G01X56415Y9580D01*
G01X56311Y9544D01*
G01X56242Y9544D01*
G01X56138Y9580D01*
G01X56105Y9648D01*
G01X67296Y36653D02*
G01X68024Y36653D01*
G01X67296Y36653D02*
G01X67296Y36965D01*
G01X67331Y37070D01*
G01X67367Y37103D01*
G01X67435Y37138D01*
G01X67504Y37138D01*
G01X67572Y37103D01*
G01X67608Y37070D01*
G01X67643Y36965D01*
G01X67643Y36653D01*
G01X67643Y36894D02*
G01X68024Y37138D01*
G01X67296Y37644D02*
G01X68024Y37367D01*
G01X67296Y37644D02*
G01X68024Y37920D01*
G01X67781Y37471D02*
G01X67781Y37816D01*
G01X67296Y38149D02*
G01X68024Y38322D01*
G01X67296Y38494D02*
G01X68024Y38322D01*
G01X67296Y38494D02*
G01X68024Y38670D01*
G01X67296Y38842D02*
G01X68024Y38670D01*
G01X66743Y35481D02*
G01X66708Y35552D01*
G01X66639Y35621D01*
G01X66568Y35656D01*
G01X66431Y35656D01*
G01X66362Y35621D01*
G01X66291Y35552D01*
G01X66258Y35481D01*
G01X66222Y35380D01*
G01X66222Y35204D01*
G01X66258Y35100D01*
G01X66291Y35032D01*
G01X66362Y34963D01*
G01X66431Y34927D01*
G01X66568Y34927D01*
G01X66639Y34963D01*
G01X66708Y35032D01*
G01X66743Y35100D01*
G01X66743Y35204D01*
G01X66568Y35204D02*
G01X66743Y35204D01*
G01X66972Y35656D02*
G01X66972Y34927D01*
G01X66972Y35656D02*
G01X67454Y34927D01*
G01X67454Y35656D02*
G01X67454Y34927D01*
G01X67683Y35656D02*
G01X67683Y34927D01*
G01X67683Y35656D02*
G01X67927Y35656D01*
G01X68031Y35621D01*
G01X68100Y35552D01*
G01X68135Y35481D01*
G01X68168Y35380D01*
G01X68168Y35204D01*
G01X68135Y35100D01*
G01X68100Y35032D01*
G01X68031Y34963D01*
G01X67927Y34927D01*
G01X67683Y34927D01*
G01X66222Y33116D02*
G01X66222Y32387D01*
G01X66222Y33116D02*
G01X66535Y33116D01*
G01X66639Y33081D01*
G01X66672Y33045D01*
G01X66708Y32977D01*
G01X66708Y32908D01*
G01X66672Y32840D01*
G01X66639Y32804D01*
G01X66535Y32768D01*
G01X66222Y32768D01*
G01X66464Y32768D02*
G01X66708Y32387D01*
G01X67421Y33012D02*
G01X67353Y33081D01*
G01X67249Y33116D01*
G01X67109Y33116D01*
G01X67005Y33081D01*
G01X66936Y33012D01*
G01X66936Y32941D01*
G01X66972Y32873D01*
G01X67005Y32840D01*
G01X67073Y32804D01*
G01X67282Y32735D01*
G01X67353Y32700D01*
G01X67386Y32664D01*
G01X67421Y32596D01*
G01X67421Y32492D01*
G01X67353Y32423D01*
G01X67249Y32387D01*
G01X67109Y32387D01*
G01X67005Y32423D01*
G01X66936Y32492D01*
G01X67891Y33116D02*
G01X67891Y32387D01*
G01X67650Y33116D02*
G01X68135Y33116D01*
G01X66222Y31211D02*
G01X66499Y30482D01*
G01X66776Y31211D02*
G01X66499Y30482D01*
G01X67526Y31036D02*
G01X67490Y31107D01*
G01X67421Y31176D01*
G01X67353Y31211D01*
G01X67213Y31211D01*
G01X67145Y31176D01*
G01X67073Y31107D01*
G01X67040Y31036D01*
G01X67005Y30935D01*
G01X67005Y30759D01*
G01X67040Y30655D01*
G01X67073Y30587D01*
G01X67145Y30518D01*
G01X67213Y30482D01*
G01X67353Y30482D01*
G01X67421Y30518D01*
G01X67490Y30587D01*
G01X67526Y30655D01*
G01X68272Y31036D02*
G01X68239Y31107D01*
G01X68168Y31176D01*
G01X68100Y31211D01*
G01X67962Y31211D01*
G01X67891Y31176D01*
G01X67823Y31107D01*
G01X67787Y31036D01*
G01X67754Y30935D01*
G01X67754Y30759D01*
G01X67787Y30655D01*
G01X67823Y30587D01*
G01X67891Y30518D01*
G01X67962Y30482D01*
G01X68100Y30482D01*
G01X68168Y30518D01*
G01X68239Y30587D01*
G01X68272Y30655D01*
G01X64594Y29179D02*
G01X64317Y28450D01*
G01X64594Y29179D02*
G01X64871Y28450D01*
G01X64422Y28694D02*
G01X64767Y28694D01*
G01X65516Y29179D02*
G01X65168Y29179D01*
G01X65135Y28867D01*
G01X65168Y28903D01*
G01X65273Y28936D01*
G01X65377Y28936D01*
G01X65481Y28903D01*
G01X65549Y28831D01*
G01X65585Y28727D01*
G01X65585Y28659D01*
G01X65549Y28555D01*
G01X65481Y28486D01*
G01X65377Y28450D01*
G01X65273Y28450D01*
G01X65168Y28486D01*
G01X65135Y28522D01*
G01X65100Y28590D01*
G01X67261Y28036D02*
G01X66984Y27307D01*
G01X67261Y28036D02*
G01X67538Y27307D01*
G01X67089Y27551D02*
G01X67434Y27551D01*
G01X67835Y28036D02*
G01X68216Y28036D01*
G01X68011Y27760D01*
G01X68115Y27760D01*
G01X68183Y27724D01*
G01X68216Y27688D01*
G01X68252Y27584D01*
G01X68252Y27516D01*
G01X68216Y27412D01*
G01X68148Y27343D01*
G01X68044Y27307D01*
G01X67940Y27307D01*
G01X67835Y27343D01*
G01X67802Y27379D01*
G01X67767Y27447D01*
G01X64594Y26766D02*
G01X64317Y26037D01*
G01X64594Y26766D02*
G01X64871Y26037D01*
G01X64422Y26281D02*
G01X64767Y26281D01*
G01X65448Y26766D02*
G01X65100Y26281D01*
G01X65621Y26281D01*
G01X65448Y26766D02*
G01X65448Y26037D01*
G01X67134Y25369D02*
G01X66857Y24640D01*
G01X67134Y25369D02*
G01X67411Y24640D01*
G01X66962Y24884D02*
G01X67307Y24884D01*
G01X67675Y25194D02*
G01X67675Y25230D01*
G01X67708Y25298D01*
G01X67744Y25334D01*
G01X67813Y25369D01*
G01X67952Y25369D01*
G01X68021Y25334D01*
G01X68056Y25298D01*
G01X68089Y25230D01*
G01X68089Y25161D01*
G01X68056Y25093D01*
G01X67988Y24988D01*
G01X67640Y24640D01*
G01X68125Y24640D01*
G01X67261Y22829D02*
G01X66984Y22100D01*
G01X67261Y22829D02*
G01X67538Y22100D01*
G01X67089Y22344D02*
G01X67434Y22344D01*
G01X67767Y22690D02*
G01X67835Y22725D01*
G01X67940Y22829D01*
G01X67940Y22100D01*
G01X67007Y20416D02*
G01X66730Y19687D01*
G01X67007Y20416D02*
G01X67284Y19687D01*
G01X66835Y19931D02*
G01X67180Y19931D01*
G01X67721Y20416D02*
G01X67617Y20381D01*
G01X67548Y20277D01*
G01X67513Y20104D01*
G01X67513Y20000D01*
G01X67548Y19827D01*
G01X67617Y19723D01*
G01X67721Y19687D01*
G01X67790Y19687D01*
G01X67894Y19723D01*
G01X67962Y19827D01*
G01X67998Y20000D01*
G01X67998Y20104D01*
G01X67962Y20277D01*
G01X67894Y20381D01*
G01X67790Y20416D01*
G01X67721Y20416D01*
G01X66984Y17737D02*
G01X67053Y17772D01*
G01X67157Y17876D01*
G01X67157Y17147D01*
G01X67454Y17876D02*
G01X67835Y17876D01*
G01X67630Y17600D01*
G01X67734Y17600D01*
G01X67802Y17564D01*
G01X67835Y17528D01*
G01X67871Y17424D01*
G01X67871Y17356D01*
G01X67835Y17252D01*
G01X67767Y17183D01*
G01X67663Y17147D01*
G01X67559Y17147D01*
G01X67454Y17183D01*
G01X67421Y17219D01*
G01X67386Y17287D01*
G01X67111Y15197D02*
G01X67180Y15232D01*
G01X67284Y15336D01*
G01X67284Y14607D01*
G01X67548Y15161D02*
G01X67548Y15197D01*
G01X67581Y15265D01*
G01X67617Y15301D01*
G01X67686Y15336D01*
G01X67825Y15336D01*
G01X67894Y15301D01*
G01X67929Y15265D01*
G01X67962Y15197D01*
G01X67962Y15128D01*
G01X67929Y15060D01*
G01X67861Y14955D01*
G01X67513Y14607D01*
G01X67998Y14607D01*
G01X67365Y12657D02*
G01X67434Y12692D01*
G01X67538Y12796D01*
G01X67538Y12067D01*
G01X67767Y12657D02*
G01X67835Y12692D01*
G01X67940Y12796D01*
G01X67940Y12067D01*
G01X54624Y41542D02*
G01X53895Y41542D01*
G01X54624Y41542D02*
G01X54624Y41301D01*
G01X54589Y41197D01*
G01X54520Y41126D01*
G01X54449Y41093D01*
G01X54348Y41057D01*
G01X54172Y41057D01*
G01X54068Y41093D01*
G01X54000Y41126D01*
G01X53931Y41197D01*
G01X53895Y41301D01*
G01X53895Y41542D01*
G01X54624Y40587D02*
G01X53895Y40587D01*
G01X54624Y40829D02*
G01X54624Y40344D01*
G01X54624Y40115D02*
G01X53895Y40115D01*
G01X54624Y40115D02*
G01X54624Y39803D01*
G01X54589Y39701D01*
G01X54553Y39665D01*
G01X54485Y39630D01*
G01X54416Y39630D01*
G01X54348Y39665D01*
G01X54312Y39701D01*
G01X54276Y39803D01*
G01X54276Y40115D01*
G01X54276Y39874D02*
G01X53895Y39630D01*
G01X58558Y38574D02*
G01X57829Y38574D01*
G01X58558Y38815D02*
G01X58558Y38330D01*
G01X58558Y38102D02*
G01X57829Y37617D01*
G01X58558Y37617D02*
G01X57829Y38102D01*
G01X61098Y38815D02*
G01X60369Y38815D01*
G01X61098Y38815D02*
G01X61098Y38503D01*
G01X61063Y38399D01*
G01X61027Y38366D01*
G01X60959Y38330D01*
G01X60890Y38330D01*
G01X60822Y38366D01*
G01X60786Y38399D01*
G01X60750Y38503D01*
G01X60750Y38815D01*
G01X60750Y38574D02*
G01X60369Y38330D01*
G01X61098Y38102D02*
G01X60369Y37617D01*
G01X61098Y37617D02*
G01X60369Y38102D01*
G01X63638Y38942D02*
G01X62909Y38666D01*
G01X63638Y38389D02*
G01X62909Y38666D01*
G01X63463Y37639D02*
G01X63534Y37675D01*
G01X63603Y37744D01*
G01X63638Y37812D01*
G01X63638Y37952D01*
G01X63603Y38020D01*
G01X63534Y38092D01*
G01X63463Y38125D01*
G01X63362Y38160D01*
G01X63186Y38160D01*
G01X63082Y38125D01*
G01X63014Y38092D01*
G01X62945Y38020D01*
G01X62909Y37952D01*
G01X62909Y37812D01*
G01X62945Y37744D01*
G01X63014Y37675D01*
G01X63082Y37639D01*
G01X63463Y36893D02*
G01X63534Y36926D01*
G01X63603Y36997D01*
G01X63638Y37065D01*
G01X63638Y37203D01*
G01X63603Y37274D01*
G01X63534Y37342D01*
G01X63463Y37378D01*
G01X63362Y37411D01*
G01X63186Y37411D01*
G01X63082Y37378D01*
G01X63014Y37342D01*
G01X62945Y37274D01*
G01X62909Y37203D01*
G01X62909Y37065D01*
G01X62945Y36997D01*
G01X63014Y36926D01*
G01X63082Y36893D01*
G01X65749Y38422D02*
G01X65820Y38457D01*
G01X65889Y38526D01*
G01X65924Y38597D01*
G01X65924Y38734D01*
G01X65889Y38803D01*
G01X65820Y38874D01*
G01X65749Y38907D01*
G01X65648Y38942D01*
G01X65472Y38942D01*
G01X65368Y38907D01*
G01X65300Y38874D01*
G01X65231Y38803D01*
G01X65195Y38734D01*
G01X65195Y38597D01*
G01X65231Y38526D01*
G01X65300Y38457D01*
G01X65368Y38422D01*
G01X65472Y38422D01*
G01X65472Y38597D02*
G01X65472Y38422D01*
G01X65924Y38193D02*
G01X65195Y38193D01*
G01X65924Y38193D02*
G01X65195Y37711D01*
G01X65924Y37711D02*
G01X65195Y37711D01*
G01X65924Y37482D02*
G01X65195Y37482D01*
G01X65924Y37482D02*
G01X65924Y37238D01*
G01X65889Y37134D01*
G01X65820Y37065D01*
G01X65749Y37030D01*
G01X65648Y36997D01*
G01X65472Y36997D01*
G01X65368Y37030D01*
G01X65300Y37065D01*
G01X65231Y37134D01*
G01X65195Y37238D01*
G01X65195Y37482D01*
G01X69671Y39818D02*
G01X69600Y39782D01*
G01X69531Y39713D01*
G01X69495Y39642D01*
G01X69495Y39505D01*
G01X69531Y39437D01*
G01X69600Y39365D01*
G01X69671Y39332D01*
G01X69772Y39297D01*
G01X69948Y39297D01*
G01X70052Y39332D01*
G01X70120Y39365D01*
G01X70189Y39437D01*
G01X70224Y39505D01*
G01X70224Y39642D01*
G01X70189Y39713D01*
G01X70120Y39782D01*
G01X70052Y39818D01*
G01X69948Y39818D01*
G01X69948Y39642D02*
G01X69948Y39818D01*
G01X69495Y40046D02*
G01X70224Y40046D01*
G01X69495Y40046D02*
G01X70224Y40529D01*
G01X69495Y40529D02*
G01X70224Y40529D01*
G01X69495Y40757D02*
G01X70224Y40757D01*
G01X69495Y40757D02*
G01X69495Y41001D01*
G01X69531Y41105D01*
G01X69600Y41174D01*
G01X69671Y41209D01*
G01X69772Y41242D01*
G01X69948Y41242D01*
G01X70052Y41209D01*
G01X70120Y41174D01*
G01X70189Y41105D01*
G01X70224Y41001D01*
G01X70224Y40757D01*
G01X68016Y11149D02*
G01X68084Y11185D01*
G01X68188Y11289D01*
G01X68188Y10560D01*
G01X68625Y11289D02*
G01X68521Y11253D01*
G01X68453Y11149D01*
G01X68417Y10977D01*
G01X68417Y10872D01*
G01X68453Y10700D01*
G01X68521Y10596D01*
G01X68625Y10560D01*
G01X68694Y10560D01*
G01X68798Y10596D01*
G01X68867Y10700D01*
G01X68902Y10872D01*
G01X68902Y10977D01*
G01X68867Y11149D01*
G01X68798Y11253D01*
G01X68694Y11289D01*
G01X68625Y11289D01*
G01X66479Y11679D02*
G01X67208Y11402D01*
G01X66479Y11679D02*
G01X67208Y11956D01*
G01X66964Y11506D02*
G01X66964Y11852D01*
G01X66479Y12669D02*
G01X67208Y12324D01*
G01X66479Y12184D02*
G01X66479Y12669D01*
G01X64320Y11587D02*
G01X65049Y11311D01*
G01X64320Y11587D02*
G01X65049Y11864D01*
G01X64805Y11415D02*
G01X64805Y11760D01*
G01X64424Y12509D02*
G01X64355Y12474D01*
G01X64320Y12370D01*
G01X64320Y12301D01*
G01X64355Y12197D01*
G01X64460Y12128D01*
G01X64632Y12093D01*
G01X64805Y12093D01*
G01X64945Y12128D01*
G01X65013Y12197D01*
G01X65049Y12301D01*
G01X65049Y12337D01*
G01X65013Y12441D01*
G01X64945Y12509D01*
G01X64841Y12542D01*
G01X64805Y12542D01*
G01X64701Y12509D01*
G01X64632Y12441D01*
G01X64597Y12337D01*
G01X64597Y12301D01*
G01X64632Y12197D01*
G01X64701Y12128D01*
G01X64805Y12093D01*
G01X61955Y12007D02*
G01X61884Y11971D01*
G01X61815Y11902D01*
G01X61780Y11831D01*
G01X61780Y11694D01*
G01X61815Y11626D01*
G01X61884Y11554D01*
G01X61955Y11521D01*
G01X62057Y11486D01*
G01X62232Y11486D01*
G01X62336Y11521D01*
G01X62405Y11554D01*
G01X62473Y11626D01*
G01X62509Y11694D01*
G01X62509Y11831D01*
G01X62473Y11902D01*
G01X62405Y11971D01*
G01X62336Y12007D01*
G01X62232Y12007D01*
G01X62232Y11831D02*
G01X62232Y12007D01*
G01X61780Y12235D02*
G01X62509Y12235D01*
G01X61780Y12235D02*
G01X62509Y12718D01*
G01X61780Y12718D02*
G01X62509Y12718D01*
G01X61780Y12946D02*
G01X62509Y12946D01*
G01X61780Y12946D02*
G01X61780Y13190D01*
G01X61815Y13294D01*
G01X61884Y13363D01*
G01X61955Y13399D01*
G01X62057Y13432D01*
G01X62232Y13432D01*
G01X62336Y13399D01*
G01X62405Y13363D01*
G01X62473Y13294D01*
G01X62509Y13190D01*
G01X62509Y12946D01*
G54D31*
G01X58895Y17389D02*
G01X60326Y16843D01*
G01X58895Y17389D02*
G01X60326Y17933D01*
G01X59851Y17049D02*
G01X59851Y17729D01*
G01X58895Y18385D02*
G01X60326Y18385D01*
G01X58895Y18385D02*
G01X58895Y18997D01*
G01X58964Y19203D01*
G01X59030Y19271D01*
G01X59167Y19337D01*
G01X59304Y19337D01*
G01X59439Y19271D01*
G01X59508Y19203D01*
G01X59576Y18997D01*
G01X59576Y18385D01*
G01X59576Y18862D02*
G01X60326Y19337D01*
G01X58895Y19789D02*
G01X60326Y19789D01*
G01X58895Y19789D02*
G01X58895Y20267D01*
G01X58964Y20470D01*
G01X59099Y20607D01*
G01X59236Y20676D01*
G01X59439Y20742D01*
G01X59782Y20742D01*
G01X59985Y20676D01*
G01X60122Y20607D01*
G01X60259Y20470D01*
G01X60326Y20267D01*
G01X60326Y19789D01*
G01X58895Y21194D02*
G01X59917Y21194D01*
G01X60122Y21260D01*
G01X60259Y21397D01*
G01X60326Y21603D01*
G01X60326Y21738D01*
G01X60259Y21943D01*
G01X60122Y22080D01*
G01X59917Y22146D01*
G01X58895Y22146D01*
G01X58895Y22599D02*
G01X60326Y22599D01*
G01X58895Y23048D02*
G01X60326Y23048D01*
G01X58895Y23048D02*
G01X60326Y24003D01*
G01X58895Y24003D02*
G01X60326Y24003D01*
G01X58895Y24862D02*
G01X58964Y24725D01*
G01X59099Y24587D01*
G01X59236Y24521D01*
G01X59439Y24453D01*
G01X59782Y24453D01*
G01X59985Y24521D01*
G01X60122Y24587D01*
G01X60259Y24725D01*
G01X60326Y24862D01*
G01X60326Y25134D01*
G01X60259Y25271D01*
G01X60122Y25408D01*
G01X59985Y25474D01*
G01X59782Y25542D01*
G01X59439Y25542D01*
G01X59236Y25474D01*
G01X59099Y25408D01*
G01X58964Y25271D01*
G01X58895Y25134D01*
G01X58895Y24862D01*
G01X61410Y16843D02*
G01X62843Y16843D01*
G01X61410Y16843D02*
G01X61410Y17458D01*
G01X61479Y17661D01*
G01X61547Y17729D01*
G01X61684Y17798D01*
G01X61888Y17798D01*
G01X62025Y17729D01*
G01X62093Y17661D01*
G01X62162Y17458D01*
G01X62162Y16843D01*
G01X61410Y18248D02*
G01X62843Y18248D01*
G01X61410Y18248D02*
G01X61410Y18862D01*
G01X61479Y19065D01*
G01X61547Y19134D01*
G01X61684Y19203D01*
G01X61819Y19203D01*
G01X61956Y19134D01*
G01X62025Y19065D01*
G01X62093Y18862D01*
G01X62093Y18248D01*
G01X62093Y18725D02*
G01X62843Y19203D01*
G01X61410Y20061D02*
G01X61479Y19924D01*
G01X61616Y19789D01*
G01X61750Y19721D01*
G01X61956Y19652D01*
G01X62297Y19652D01*
G01X62502Y19721D01*
G01X62637Y19789D01*
G01X62774Y19924D01*
G01X62843Y20061D01*
G01X62843Y20333D01*
G01X62774Y20470D01*
G01X62637Y20607D01*
G01X62502Y20676D01*
G01X62297Y20742D01*
G01X61956Y20742D01*
G01X61750Y20676D01*
G01X61616Y20607D01*
G01X61479Y20470D01*
G01X61410Y20333D01*
G01X61410Y20061D01*
G01X63927Y16843D02*
G01X65360Y16843D01*
G01X63927Y16843D02*
G01X65360Y17389D01*
G01X63927Y17933D02*
G01X65360Y17389D01*
G01X63927Y17933D02*
G01X65360Y17933D01*
G01X63927Y18385D02*
G01X65360Y18385D01*
G01X63927Y18834D02*
G01X65360Y18834D01*
G01X63927Y18834D02*
G01X65360Y19789D01*
G01X63927Y19789D02*
G01X65360Y19789D01*
G01X63927Y20239D02*
G01X65360Y20239D01*
G54D29*
G01X79629Y39803D02*
G01X79629Y38713D01*
G01X79629Y38713D02*
G01X80251Y38713D01*
G01X80594Y39803D02*
G01X80594Y38713D01*
G01X80594Y39803D02*
G01X81269Y39803D01*
G01X80594Y39285D02*
G01X81010Y39285D01*
G01X80594Y38713D02*
G01X81269Y38713D01*
G01X81612Y39803D02*
G01X81612Y38713D01*
G01X81612Y39803D02*
G01X81978Y39803D01*
G01X82133Y39752D01*
G01X82237Y39648D01*
G01X82288Y39544D01*
G01X82341Y39386D01*
G01X82341Y39127D01*
G01X82288Y38972D01*
G01X82237Y38868D01*
G01X82133Y38764D01*
G01X81978Y38713D01*
G01X81612Y38713D01*
G01X25255Y8434D02*
G01X25255Y7344D01*
G01X24892Y8434D02*
G01X25618Y8434D01*
G01X26014Y8175D02*
G01X26014Y8225D01*
G01X26065Y8330D01*
G01X26118Y8383D01*
G01X26222Y8434D01*
G01X26428Y8434D01*
G01X26532Y8383D01*
G01X26586Y8330D01*
G01X26636Y8225D01*
G01X26636Y8121D01*
G01X26586Y8017D01*
G01X26482Y7862D01*
G01X25961Y7344D01*
G01X26690Y7344D01*
G01X29827Y14149D02*
G01X29827Y13059D01*
G01X29464Y14149D02*
G01X30190Y14149D01*
G01X30637Y14149D02*
G01X31208Y14149D01*
G01X30899Y13732D01*
G01X31054Y13732D01*
G01X31158Y13681D01*
G01X31208Y13631D01*
G01X31262Y13473D01*
G01X31262Y13369D01*
G01X31208Y13214D01*
G01X31104Y13110D01*
G01X30949Y13059D01*
G01X30794Y13059D01*
G01X30637Y13110D01*
G01X30586Y13161D01*
G01X30533Y13265D01*
G01X33383Y8561D02*
G01X33383Y7471D01*
G01X33020Y8561D02*
G01X33746Y8561D01*
G01X34089Y8352D02*
G01X34193Y8406D01*
G01X34350Y8561D01*
G01X34350Y7471D01*
G01X32882Y17314D02*
G01X33662Y17314D01*
G01X33817Y17364D01*
G01X33921Y17468D01*
G01X33972Y17626D01*
G01X33972Y17730D01*
G01X33921Y17885D01*
G01X33817Y17989D01*
G01X33662Y18040D01*
G01X32882Y18040D01*
G01X32882Y18904D02*
G01X33609Y18383D01*
G01X33609Y19163D01*
G01X32882Y18904D02*
G01X33972Y18904D01*
G01X48270Y42841D02*
G01X47180Y42841D01*
G01X48270Y42841D02*
G01X48270Y42373D01*
G01X48219Y42218D01*
G01X48166Y42165D01*
G01X48061Y42114D01*
G01X47906Y42114D01*
G01X47802Y42165D01*
G01X47752Y42218D01*
G01X47698Y42373D01*
G01X47698Y42841D01*
G01X48011Y40991D02*
G01X48115Y41042D01*
G01X48219Y41146D01*
G01X48270Y41250D01*
G01X48270Y41459D01*
G01X48219Y41563D01*
G01X48115Y41667D01*
G01X48011Y41718D01*
G01X47853Y41771D01*
G01X47594Y41771D01*
G01X47439Y41718D01*
G01X47335Y41667D01*
G01X47231Y41563D01*
G01X47180Y41459D01*
G01X47180Y41250D01*
G01X47231Y41146D01*
G01X47335Y41042D01*
G01X47439Y40991D01*
G01X46814Y40648D02*
G01X46814Y39714D01*
G01X48270Y39371D02*
G01X47180Y39371D01*
G01X48270Y39028D02*
G01X47180Y39028D01*
G01X48270Y39028D02*
G01X47180Y38299D01*
G01X48270Y38299D02*
G01X47180Y38299D01*
G01X48270Y37593D02*
G01X47180Y37593D01*
G01X48270Y37956D02*
G01X48270Y37230D01*
G01X48270Y36887D02*
G01X47180Y36887D01*
G01X48270Y36887D02*
G01X48270Y36211D01*
G01X47752Y36887D02*
G01X47752Y36470D01*
G01X47180Y36887D02*
G01X47180Y36211D01*
G01X48270Y35868D02*
G01X47180Y35868D01*
G01X48270Y35868D02*
G01X48270Y35401D01*
G01X48219Y35246D01*
G01X48166Y35193D01*
G01X48061Y35142D01*
G01X47957Y35142D01*
G01X47853Y35193D01*
G01X47802Y35246D01*
G01X47752Y35401D01*
G01X47752Y35868D01*
G01X47752Y35505D02*
G01X47180Y35142D01*
G01X48270Y34799D02*
G01X47180Y34799D01*
G01X48270Y34799D02*
G01X48270Y34123D01*
G01X47752Y34799D02*
G01X47752Y34382D01*
G01X48270Y33364D02*
G01X47180Y33780D01*
G01X48270Y33364D02*
G01X47180Y32947D01*
G01X47543Y33623D02*
G01X47543Y33105D01*
G01X48011Y31827D02*
G01X48115Y31878D01*
G01X48219Y31982D01*
G01X48270Y32086D01*
G01X48270Y32294D01*
G01X48219Y32399D01*
G01X48115Y32503D01*
G01X48011Y32554D01*
G01X47853Y32604D01*
G01X47594Y32604D01*
G01X47439Y32554D01*
G01X47335Y32503D01*
G01X47231Y32399D01*
G01X47180Y32294D01*
G01X47180Y32086D01*
G01X47231Y31982D01*
G01X47335Y31878D01*
G01X47439Y31827D01*
G01X48270Y31484D02*
G01X47180Y31484D01*
G01X48270Y31484D02*
G01X48270Y30809D01*
G01X47752Y31484D02*
G01X47752Y31068D01*
G01X47180Y31484D02*
G01X47180Y30809D01*
G01X76073Y28500D02*
G01X76073Y27410D01*
G01X76073Y28500D02*
G01X76436Y28500D01*
G01X76593Y28449D01*
G01X76695Y28345D01*
G01X76748Y28241D01*
G01X76799Y28083D01*
G01X76799Y27824D01*
G01X76748Y27669D01*
G01X76695Y27565D01*
G01X76593Y27461D01*
G01X76436Y27410D01*
G01X76073Y27410D01*
G01X77142Y28500D02*
G01X77142Y27410D01*
G01X78214Y28345D02*
G01X78110Y28449D01*
G01X77952Y28500D01*
G01X77746Y28500D01*
G01X77589Y28449D01*
G01X77485Y28345D01*
G01X77485Y28241D01*
G01X77538Y28136D01*
G01X77589Y28083D01*
G01X77693Y28032D01*
G01X78005Y27928D01*
G01X78110Y27877D01*
G01X78160Y27824D01*
G01X78214Y27720D01*
G01X78214Y27565D01*
G01X78110Y27461D01*
G01X77952Y27410D01*
G01X77746Y27410D01*
G01X77589Y27461D01*
G01X77485Y27565D01*
G01X78557Y28500D02*
G01X78557Y27410D01*
G01X78557Y28500D02*
G01X79024Y28500D01*
G01X79179Y28449D01*
G01X79232Y28396D01*
G01X79283Y28291D01*
G01X79283Y28136D01*
G01X79232Y28032D01*
G01X79179Y27982D01*
G01X79024Y27928D01*
G01X78557Y27928D01*
G01X79626Y28500D02*
G01X79626Y27410D01*
G01X79626Y27410D02*
G01X80251Y27410D01*
G01X81008Y28500D02*
G01X80594Y27410D01*
G01X81008Y28500D02*
G01X81424Y27410D01*
G01X80749Y27773D02*
G01X81267Y27773D01*
G01X81767Y28500D02*
G01X82181Y27982D01*
G01X82181Y27410D01*
G01X82598Y28500D02*
G01X82181Y27982D01*
G01X76708Y21134D02*
G01X76708Y20044D01*
G01X77101Y20875D02*
G01X77101Y20925D01*
G01X77155Y21030D01*
G01X77205Y21083D01*
G01X77309Y21134D01*
G01X77518Y21134D01*
G01X77622Y21083D01*
G01X77673Y21030D01*
G01X77726Y20925D01*
G01X77726Y20821D01*
G01X77673Y20717D01*
G01X77571Y20562D01*
G01X77050Y20044D01*
G01X77777Y20044D01*
G01X78900Y20875D02*
G01X78849Y20979D01*
G01X78745Y21083D01*
G01X78640Y21134D01*
G01X78432Y21134D01*
G01X78328Y21083D01*
G01X78224Y20979D01*
G01X78173Y20875D01*
G01X78120Y20717D01*
G01X78120Y20458D01*
G01X78173Y20303D01*
G01X78224Y20199D01*
G01X78328Y20095D01*
G01X78432Y20044D01*
G01X78640Y20044D01*
G01X78745Y20095D01*
G01X78849Y20199D01*
G01X78900Y20303D01*
G01X79242Y19678D02*
G01X80177Y19678D01*
G01X80573Y20875D02*
G01X80573Y20925D01*
G01X80624Y21030D01*
G01X80678Y21083D01*
G01X80782Y21134D01*
G01X80987Y21134D01*
G01X81092Y21083D01*
G01X81145Y21030D01*
G01X81196Y20925D01*
G01X81196Y20821D01*
G01X81145Y20717D01*
G01X81041Y20562D01*
G01X80520Y20044D01*
G01X81249Y20044D01*
G01X76962Y13387D02*
G01X76962Y12297D01*
G01X77355Y13128D02*
G01X77355Y13178D01*
G01X77409Y13283D01*
G01X77459Y13336D01*
G01X77563Y13387D01*
G01X77772Y13387D01*
G01X77876Y13336D01*
G01X77927Y13283D01*
G01X77980Y13178D01*
G01X77980Y13074D01*
G01X77927Y12970D01*
G01X77825Y12815D01*
G01X77304Y12297D01*
G01X78031Y12297D01*
G01X79154Y13128D02*
G01X79103Y13232D01*
G01X78999Y13336D01*
G01X78894Y13387D01*
G01X78686Y13387D01*
G01X78582Y13336D01*
G01X78478Y13232D01*
G01X78427Y13128D01*
G01X78374Y12970D01*
G01X78374Y12711D01*
G01X78427Y12556D01*
G01X78478Y12452D01*
G01X78582Y12348D01*
G01X78686Y12297D01*
G01X78894Y12297D01*
G01X78999Y12348D01*
G01X79103Y12452D01*
G01X79154Y12556D01*
G01X79496Y11931D02*
G01X80431Y11931D01*
G01X80878Y13387D02*
G01X81450Y13387D01*
G01X81140Y12970D01*
G01X81295Y12970D01*
G01X81399Y12919D01*
G01X81450Y12869D01*
G01X81503Y12711D01*
G01X81503Y12607D01*
G01X81450Y12452D01*
G01X81346Y12348D01*
G01X81191Y12297D01*
G01X81036Y12297D01*
G01X80878Y12348D01*
G01X80827Y12399D01*
G01X80774Y12503D01*
G01X19921Y27636D02*
G01X20025Y27740D01*
G01X20076Y27895D01*
G01X20076Y28103D01*
G01X20025Y28258D01*
G01X19921Y28363D01*
G01X19817Y28363D01*
G01X19712Y28312D01*
G01X19659Y28258D01*
G01X19608Y28154D01*
G01X19504Y27842D01*
G01X19453Y27740D01*
G01X19400Y27687D01*
G01X19296Y27636D01*
G01X19141Y27636D01*
G01X19037Y27740D01*
G01X18986Y27895D01*
G01X18986Y28103D01*
G01X19037Y28258D01*
G01X19141Y28363D01*
G01X20076Y27293D02*
G01X18986Y27032D01*
G01X20076Y26772D02*
G01X18986Y27032D01*
G01X20076Y26772D02*
G01X18986Y26513D01*
G01X20076Y26254D02*
G01X18986Y26513D01*
G01X20076Y25911D02*
G01X18986Y25911D01*
G01X20076Y25203D02*
G01X18986Y25203D01*
G01X20076Y25569D02*
G01X20076Y24840D01*
G01X19817Y23717D02*
G01X19921Y23770D01*
G01X20025Y23874D01*
G01X20076Y23978D01*
G01X20076Y24184D01*
G01X20025Y24288D01*
G01X19921Y24392D01*
G01X19817Y24446D01*
G01X19659Y24497D01*
G01X19400Y24497D01*
G01X19245Y24446D01*
G01X19141Y24392D01*
G01X19037Y24288D01*
G01X18986Y24184D01*
G01X18986Y23978D01*
G01X19037Y23874D01*
G01X19141Y23770D01*
G01X19245Y23717D01*
G01X20076Y23374D02*
G01X18986Y23374D01*
G01X20076Y22648D02*
G01X18986Y22648D01*
G01X19558Y23374D02*
G01X19558Y22648D01*
G01X5819Y43740D02*
G01X6390Y43740D01*
G01X6078Y43323D01*
G01X6235Y43323D01*
G01X6337Y43272D01*
G01X6390Y43222D01*
G01X6441Y43064D01*
G01X6441Y42960D01*
G01X6390Y42805D01*
G01X6286Y42701D01*
G01X6131Y42650D01*
G01X5974Y42650D01*
G01X5819Y42701D01*
G01X5765Y42752D01*
G01X5715Y42856D01*
G01X6837Y42909D02*
G01X6784Y42856D01*
G01X6837Y42805D01*
G01X6888Y42856D01*
G01X6837Y42909D01*
G01X7335Y43740D02*
G01X7907Y43740D01*
G01X7594Y43323D01*
G01X7752Y43323D01*
G01X7856Y43272D01*
G01X7907Y43222D01*
G01X7960Y43064D01*
G01X7960Y42960D01*
G01X7907Y42805D01*
G01X7802Y42701D01*
G01X7647Y42650D01*
G01X7493Y42650D01*
G01X7335Y42701D01*
G01X7284Y42752D01*
G01X7231Y42856D01*
G01X8303Y43740D02*
G01X8717Y42650D01*
G01X9133Y43740D02*
G01X8717Y42650D01*
G01X9476Y42284D02*
G01X10411Y42284D01*
G01X10754Y43740D02*
G01X10754Y42650D01*
G01X10754Y43740D02*
G01X11221Y43740D01*
G01X11379Y43689D01*
G01X11430Y43636D01*
G01X11480Y43531D01*
G01X11480Y43427D01*
G01X11430Y43323D01*
G01X11379Y43272D01*
G01X11221Y43222D01*
G01X10754Y43222D01*
G01X11117Y43222D02*
G01X11480Y42650D01*
G01X11823Y43740D02*
G01X11823Y42650D01*
G01X11823Y43740D02*
G01X12499Y43740D01*
G01X11823Y43222D02*
G01X12240Y43222D01*
G01X11823Y42650D02*
G01X12499Y42650D01*
G01X13622Y43481D02*
G01X13571Y43585D01*
G01X13467Y43689D01*
G01X13362Y43740D01*
G01X13154Y43740D01*
G01X13050Y43689D01*
G01X12946Y43585D01*
G01X12895Y43481D01*
G01X12842Y43323D01*
G01X12842Y43064D01*
G01X12895Y42909D01*
G01X12946Y42805D01*
G01X13050Y42701D01*
G01X13154Y42650D01*
G01X13362Y42650D01*
G01X13467Y42701D01*
G01X13571Y42805D01*
G01X13622Y42909D01*
G01X13622Y43064D01*
G01X13362Y43064D02*
G01X13622Y43064D01*
G01X13964Y43740D02*
G01X13964Y42960D01*
G01X14018Y42805D01*
G01X14122Y42701D01*
G01X14277Y42650D01*
G01X14381Y42650D01*
G01X14536Y42701D01*
G01X14640Y42805D01*
G01X14693Y42960D01*
G01X14693Y43740D01*
G01X15036Y43740D02*
G01X15036Y42650D01*
G01X15036Y42650D02*
G01X15659Y42650D01*
G01X16418Y43740D02*
G01X16002Y42650D01*
G01X16418Y43740D02*
G01X16832Y42650D01*
G01X16156Y43013D02*
G01X16677Y43013D01*
G01X17538Y43740D02*
G01X17538Y42650D01*
G01X17175Y43740D02*
G01X17904Y43740D01*
G01X18557Y43740D02*
G01X18453Y43689D01*
G01X18351Y43585D01*
G01X18298Y43481D01*
G01X18247Y43323D01*
G01X18247Y43064D01*
G01X18298Y42909D01*
G01X18351Y42805D01*
G01X18453Y42701D01*
G01X18557Y42650D01*
G01X18765Y42650D01*
G01X18869Y42701D01*
G01X18973Y42805D01*
G01X19024Y42909D01*
G01X19077Y43064D01*
G01X19077Y43323D01*
G01X19024Y43481D01*
G01X18973Y43585D01*
G01X18869Y43689D01*
G01X18765Y43740D01*
G01X18557Y43740D01*
G01X19420Y43740D02*
G01X19420Y42650D01*
G01X19420Y43740D02*
G01X19888Y43740D01*
G01X20043Y43689D01*
G01X20096Y43636D01*
G01X20147Y43531D01*
G01X20147Y43427D01*
G01X20096Y43323D01*
G01X20043Y43272D01*
G01X19888Y43222D01*
G01X19420Y43222D01*
G01X19784Y43222D02*
G01X20147Y42650D01*
G01X25133Y43613D02*
G01X24615Y43613D01*
G01X24561Y43145D01*
G01X24615Y43196D01*
G01X24770Y43249D01*
G01X24927Y43249D01*
G01X25082Y43196D01*
G01X25186Y43095D01*
G01X25237Y42937D01*
G01X25237Y42833D01*
G01X25186Y42678D01*
G01X25082Y42574D01*
G01X24927Y42523D01*
G01X24770Y42523D01*
G01X24615Y42574D01*
G01X24561Y42625D01*
G01X24511Y42729D01*
G01X25580Y43613D02*
G01X25996Y42523D01*
G01X26413Y43613D02*
G01X25996Y42523D01*
G01X26756Y42157D02*
G01X27691Y42157D01*
G01X28033Y43613D02*
G01X28033Y42523D01*
G01X28033Y43613D02*
G01X28501Y43613D01*
G01X28656Y43562D01*
G01X28709Y43509D01*
G01X28760Y43404D01*
G01X28760Y43300D01*
G01X28709Y43196D01*
G01X28656Y43145D01*
G01X28501Y43095D01*
G01X28033Y43095D01*
G01X28397Y43095D02*
G01X28760Y42523D01*
G01X29103Y43613D02*
G01X29103Y42523D01*
G01X29103Y43613D02*
G01X29778Y43613D01*
G01X29103Y43095D02*
G01X29519Y43095D01*
G01X29103Y42523D02*
G01X29778Y42523D01*
G01X30901Y43354D02*
G01X30848Y43458D01*
G01X30746Y43562D01*
G01X30642Y43613D01*
G01X30434Y43613D01*
G01X30330Y43562D01*
G01X30226Y43458D01*
G01X30175Y43354D01*
G01X30121Y43196D01*
G01X30121Y42937D01*
G01X30175Y42782D01*
G01X30226Y42678D01*
G01X30330Y42574D01*
G01X30434Y42523D01*
G01X30642Y42523D01*
G01X30746Y42574D01*
G01X30848Y42678D01*
G01X30901Y42782D01*
G01X30901Y42937D01*
G01X30642Y42937D02*
G01X30901Y42937D01*
G01X31244Y43613D02*
G01X31244Y42833D01*
G01X31295Y42678D01*
G01X31399Y42574D01*
G01X31556Y42523D01*
G01X31661Y42523D01*
G01X31816Y42574D01*
G01X31920Y42678D01*
G01X31970Y42833D01*
G01X31970Y43613D01*
G01X32313Y43613D02*
G01X32313Y42523D01*
G01X32313Y42523D02*
G01X32938Y42523D01*
G01X33695Y43613D02*
G01X33281Y42523D01*
G01X33695Y43613D02*
G01X34112Y42523D01*
G01X33436Y42886D02*
G01X33957Y42886D01*
G01X34818Y43613D02*
G01X34818Y42523D01*
G01X34455Y43613D02*
G01X35181Y43613D01*
G01X35836Y43613D02*
G01X35732Y43562D01*
G01X35628Y43458D01*
G01X35577Y43354D01*
G01X35524Y43196D01*
G01X35524Y42937D01*
G01X35577Y42782D01*
G01X35628Y42678D01*
G01X35732Y42574D01*
G01X35836Y42523D01*
G01X36045Y42523D01*
G01X36149Y42574D01*
G01X36253Y42678D01*
G01X36304Y42782D01*
G01X36357Y42937D01*
G01X36357Y43196D01*
G01X36304Y43354D01*
G01X36253Y43458D01*
G01X36149Y43562D01*
G01X36045Y43613D01*
G01X35836Y43613D01*
G01X36700Y43613D02*
G01X36700Y42523D01*
G01X36700Y43613D02*
G01X37167Y43613D01*
G01X37322Y43562D01*
G01X37376Y43509D01*
G01X37426Y43404D01*
G01X37426Y43300D01*
G01X37376Y43196D01*
G01X37322Y43145D01*
G01X37167Y43095D01*
G01X36700Y43095D01*
G01X37063Y43095D02*
G01X37426Y42523D01*
G01X9027Y29379D02*
G01X7937Y29379D01*
G01X9027Y29379D02*
G01X9027Y28911D01*
G01X8976Y28756D01*
G01X8923Y28703D01*
G01X8818Y28652D01*
G01X8663Y28652D01*
G01X8559Y28703D01*
G01X8509Y28756D01*
G01X8455Y28911D01*
G01X8455Y29379D01*
G01X9027Y27997D02*
G01X8976Y28101D01*
G01X8872Y28205D01*
G01X8768Y28256D01*
G01X8610Y28309D01*
G01X8351Y28309D01*
G01X8196Y28256D01*
G01X8092Y28205D01*
G01X7988Y28101D01*
G01X7937Y27997D01*
G01X7937Y27788D01*
G01X7988Y27684D01*
G01X8092Y27580D01*
G01X8196Y27529D01*
G01X8351Y27476D01*
G01X8610Y27476D01*
G01X8768Y27529D01*
G01X8872Y27580D01*
G01X8976Y27684D01*
G01X9027Y27788D01*
G01X9027Y27997D01*
G01X9027Y27133D02*
G01X7937Y26874D01*
G01X9027Y26615D02*
G01X7937Y26874D01*
G01X9027Y26615D02*
G01X7937Y26356D01*
G01X9027Y26094D02*
G01X7937Y26356D01*
G01X9027Y25751D02*
G01X7937Y25751D01*
G01X9027Y25751D02*
G01X9027Y25076D01*
G01X8509Y25751D02*
G01X8509Y25337D01*
G01X7937Y25751D02*
G01X7937Y25076D01*
G01X9027Y24733D02*
G01X7937Y24733D01*
G01X9027Y24733D02*
G01X9027Y24265D01*
G01X8976Y24111D01*
G01X8923Y24057D01*
G01X8818Y24006D01*
G01X8714Y24006D01*
G01X8610Y24057D01*
G01X8559Y24111D01*
G01X8509Y24265D01*
G01X8509Y24733D01*
G01X8509Y24370D02*
G01X7937Y24006D01*
G01X7571Y23664D02*
G01X7571Y22729D01*
G01X9027Y22386D02*
G01X7937Y22386D01*
G01X9027Y22043D02*
G01X7937Y22043D01*
G01X9027Y22043D02*
G01X7937Y21314D01*
G01X9027Y21314D02*
G01X7937Y21314D01*
G01X5298Y11962D02*
G01X5194Y12066D01*
G01X5039Y12117D01*
G01X4831Y12117D01*
G01X4676Y12066D01*
G01X4572Y11962D01*
G01X4572Y11858D01*
G01X4622Y11753D01*
G01X4676Y11700D01*
G01X4780Y11649D01*
G01X5092Y11545D01*
G01X5194Y11494D01*
G01X5247Y11441D01*
G01X5298Y11337D01*
G01X5298Y11182D01*
G01X5194Y11078D01*
G01X5039Y11027D01*
G01X4831Y11027D01*
G01X4676Y11078D01*
G01X4572Y11182D01*
G01X5641Y12117D02*
G01X5641Y11027D01*
G01X5641Y12117D02*
G01X6007Y12117D01*
G01X6162Y12066D01*
G01X6266Y11962D01*
G01X6316Y11858D01*
G01X6370Y11700D01*
G01X6370Y11441D01*
G01X6316Y11286D01*
G01X6266Y11182D01*
G01X6162Y11078D01*
G01X6007Y11027D01*
G01X5641Y11027D01*
G01X6713Y10661D02*
G01X7647Y10661D01*
G01X8770Y11858D02*
G01X8717Y11962D01*
G01X8613Y12066D01*
G01X8509Y12117D01*
G01X8303Y12117D01*
G01X8199Y12066D01*
G01X8094Y11962D01*
G01X8041Y11858D01*
G01X7990Y11700D01*
G01X7990Y11441D01*
G01X8041Y11286D01*
G01X8094Y11182D01*
G01X8199Y11078D01*
G01X8303Y11027D01*
G01X8509Y11027D01*
G01X8613Y11078D01*
G01X8717Y11182D01*
G01X8770Y11286D01*
G01X9527Y12117D02*
G01X9113Y11027D01*
G01X9527Y12117D02*
G01X9944Y11027D01*
G01X9268Y11390D02*
G01X9789Y11390D01*
G01X10287Y12117D02*
G01X10287Y11027D01*
G01X10287Y12117D02*
G01X10754Y12117D01*
G01X10909Y12066D01*
G01X10962Y12013D01*
G01X11013Y11908D01*
G01X11013Y11804D01*
G01X10962Y11700D01*
G01X10909Y11649D01*
G01X10754Y11599D01*
G01X10287Y11599D01*
G01X10650Y11599D02*
G01X11013Y11027D01*
G01X11356Y12117D02*
G01X11356Y11027D01*
G01X11356Y12117D02*
G01X11722Y12117D01*
G01X11877Y12066D01*
G01X11981Y11962D01*
G01X12031Y11858D01*
G01X12085Y11700D01*
G01X12085Y11441D01*
G01X12031Y11286D01*
G01X11981Y11182D01*
G01X11877Y11078D01*
G01X11722Y11027D01*
G01X11356Y11027D01*
G54D17*
G01X16682Y18139D02*
G01X16639Y18230D01*
G01X16548Y18322D01*
G01X16456Y18368D01*
G01X16273Y18368D01*
G01X16184Y18322D01*
G01X16093Y18230D01*
G01X16047Y18139D01*
G01X16002Y18004D01*
G01X16002Y17776D01*
G01X16047Y17639D01*
G01X16093Y17550D01*
G01X16184Y17458D01*
G01X16273Y17413D01*
G01X16456Y17413D01*
G01X16548Y17458D01*
G01X16639Y17550D01*
G01X16682Y17639D01*
G01X16682Y17776D01*
G01X16456Y17776D02*
G01X16682Y17776D01*
G01X16984Y18368D02*
G01X16984Y17413D01*
G01X16984Y18368D02*
G01X17619Y17413D01*
G01X17619Y18368D02*
G01X17619Y17413D01*
G01X17919Y18368D02*
G01X17919Y17413D01*
G01X17919Y18368D02*
G01X18237Y18368D01*
G01X18374Y18322D01*
G01X18465Y18230D01*
G01X18511Y18139D01*
G01X18557Y18004D01*
G01X18557Y17776D01*
G01X18511Y17639D01*
G01X18465Y17550D01*
G01X18374Y17458D01*
G01X18237Y17413D01*
G01X17919Y17413D01*
G01X15621Y15955D02*
G01X15621Y15000D01*
G01X15621Y15955D02*
G01X15984Y15000D01*
G01X16347Y15955D02*
G01X15984Y15000D01*
G01X16347Y15955D02*
G01X16347Y15000D01*
G01X16647Y15955D02*
G01X16647Y15000D01*
G01X17584Y15817D02*
G01X17492Y15909D01*
G01X17358Y15955D01*
G01X17175Y15955D01*
G01X17038Y15909D01*
G01X16949Y15817D01*
G01X16949Y15726D01*
G01X16992Y15635D01*
G01X17038Y15591D01*
G01X17129Y15546D01*
G01X17404Y15454D01*
G01X17492Y15409D01*
G01X17538Y15363D01*
G01X17584Y15271D01*
G01X17584Y15137D01*
G01X17492Y15045D01*
G01X17358Y15000D01*
G01X17175Y15000D01*
G01X17038Y15045D01*
G01X16949Y15137D01*
G01X18158Y15955D02*
G01X18067Y15909D01*
G01X17975Y15817D01*
G01X17929Y15726D01*
G01X17884Y15591D01*
G01X17884Y15363D01*
G01X17929Y15226D01*
G01X17975Y15137D01*
G01X18067Y15045D01*
G01X18158Y15000D01*
G01X18338Y15000D01*
G01X18430Y15045D01*
G01X18521Y15137D01*
G01X18567Y15226D01*
G01X18613Y15363D01*
G01X18613Y15591D01*
G01X18567Y15726D01*
G01X18521Y15817D01*
G01X18430Y15909D01*
G01X18338Y15955D01*
G01X18158Y15955D01*
G01X16809Y13186D02*
G01X16766Y13277D01*
G01X16675Y13369D01*
G01X16583Y13415D01*
G01X16400Y13415D01*
G01X16311Y13369D01*
G01X16220Y13277D01*
G01X16174Y13186D01*
G01X16129Y13051D01*
G01X16129Y12823D01*
G01X16174Y12686D01*
G01X16220Y12597D01*
G01X16311Y12505D01*
G01X16400Y12460D01*
G01X16583Y12460D01*
G01X16675Y12505D01*
G01X16766Y12597D01*
G01X16809Y12686D01*
G01X17111Y13415D02*
G01X17111Y12460D01*
G01X17111Y12460D02*
G01X17655Y12460D01*
G01X17955Y13415D02*
G01X17955Y12460D01*
G01X18592Y13415D02*
G01X17955Y12777D01*
G01X18183Y13006D02*
G01X18592Y12460D01*
G01X15621Y10875D02*
G01X15621Y9920D01*
G01X15621Y10875D02*
G01X15984Y9920D01*
G01X16347Y10875D02*
G01X15984Y9920D01*
G01X16347Y10875D02*
G01X16347Y9920D01*
G01X16921Y10875D02*
G01X16830Y10829D01*
G01X16738Y10737D01*
G01X16692Y10646D01*
G01X16647Y10511D01*
G01X16647Y10283D01*
G01X16692Y10146D01*
G01X16738Y10057D01*
G01X16830Y9965D01*
G01X16921Y9920D01*
G01X17101Y9920D01*
G01X17193Y9965D01*
G01X17284Y10057D01*
G01X17330Y10146D01*
G01X17376Y10283D01*
G01X17376Y10511D01*
G01X17330Y10646D01*
G01X17284Y10737D01*
G01X17193Y10829D01*
G01X17101Y10875D01*
G01X16921Y10875D01*
G01X18310Y10737D02*
G01X18221Y10829D01*
G01X18084Y10875D01*
G01X17901Y10875D01*
G01X17767Y10829D01*
G01X17675Y10737D01*
G01X17675Y10646D01*
G01X17721Y10555D01*
G01X17767Y10511D01*
G01X17856Y10466D01*
G01X18130Y10374D01*
G01X18221Y10329D01*
G01X18267Y10283D01*
G01X18310Y10191D01*
G01X18310Y10057D01*
G01X18221Y9965D01*
G01X18084Y9920D01*
G01X17901Y9920D01*
G01X17767Y9965D01*
G01X17675Y10057D01*
G01X18613Y10875D02*
G01X18613Y9920D01*
G01X17571Y8233D02*
G01X17528Y8324D01*
G01X17437Y8416D01*
G01X17345Y8462D01*
G01X17162Y8462D01*
G01X17073Y8416D01*
G01X16982Y8324D01*
G01X16936Y8233D01*
G01X16891Y8098D01*
G01X16891Y7870D01*
G01X16936Y7733D01*
G01X16982Y7644D01*
G01X17073Y7552D01*
G01X17162Y7507D01*
G01X17345Y7507D01*
G01X17437Y7552D01*
G01X17528Y7644D01*
G01X17571Y7733D01*
G01X18508Y8324D02*
G01X18417Y8416D01*
G01X18282Y8462D01*
G01X18100Y8462D01*
G01X17962Y8416D01*
G01X17873Y8324D01*
G01X17873Y8233D01*
G01X17917Y8142D01*
G01X17962Y8098D01*
G01X18054Y8053D01*
G01X18326Y7961D01*
G01X18417Y7916D01*
G01X18463Y7870D01*
G01X18508Y7778D01*
G01X18508Y7644D01*
G01X18417Y7552D01*
G01X18282Y7507D01*
G01X18100Y7507D01*
G01X17962Y7552D01*
G01X17873Y7644D01*
G01X15712Y5795D02*
G01X16212Y5795D01*
G01X15938Y5431D01*
G01X16075Y5431D01*
G01X16167Y5386D01*
G01X16212Y5340D01*
G01X16258Y5203D01*
G01X16258Y5111D01*
G01X16212Y4977D01*
G01X16121Y4885D01*
G01X15984Y4840D01*
G01X15847Y4840D01*
G01X15712Y4885D01*
G01X15666Y4931D01*
G01X15621Y5022D01*
G01X16603Y5066D02*
G01X16558Y5022D01*
G01X16603Y4977D01*
G01X16647Y5022D01*
G01X16603Y5066D01*
G01X17038Y5795D02*
G01X17538Y5795D01*
G01X17266Y5431D01*
G01X17404Y5431D01*
G01X17492Y5386D01*
G01X17538Y5340D01*
G01X17584Y5203D01*
G01X17584Y5111D01*
G01X17538Y4977D01*
G01X17447Y4885D01*
G01X17312Y4840D01*
G01X17175Y4840D01*
G01X17038Y4885D01*
G01X16992Y4931D01*
G01X16949Y5022D01*
G01X17884Y5795D02*
G01X18247Y4840D01*
G01X18613Y5795D02*
G01X18247Y4840D01*
G54D10*
G75*
G01X82220Y33189D02*
G02X82220Y37507I-2111J2159D01*
G01*
G75*
G01X82194Y33697D02*
G02X82194Y36999I-2080J1651D01*
G01*
G54D28*
G75*
G01X31575Y5353D02*
G02X36401Y5353I2413J-1136D01*
G01*
G75*
G01X31574Y3081D02*
G03X31893Y2566I2413J1136D01*
G01*
G75*
G01X36083Y2566D02*
G03X36413Y3105I-2095J1651D01*
G01*
G75*
G01X23447Y5353D02*
G02X28273Y5353I2413J-1136D01*
G01*
G75*
G01X23446Y3081D02*
G03X23765Y2566I2413J1136D01*
G01*
G75*
G01X27955Y2566D02*
G03X28285Y3105I-2095J1651D01*
G01*
G75*
G01X28019Y11322D02*
G02X32845Y11322I2413J-1136D01*
G01*
G75*
G01X28018Y9050D02*
G03X28337Y8535I2413J1136D01*
G01*
G75*
G01X32527Y8535D02*
G03X32857Y9074I-2095J1651D01*
G01*
G54D10*
G75*
G01X17729Y18076D02*
G03X17729Y18076I-1092J0D01*
G01*
G75*
G01X17729Y5122D02*
G03X17729Y5122I-1092J0D01*
G01*
M00*
M02*
