G04 Layer: TopSolderMaskLayer*
G04 EasyEDA v6.4.7, 2020-11-10T19:46:02+00:00*
G04 68ef014cab984e83be15227dbec4fbb5,fc2761ce2fcb42ad9aa58f7a23a2c2a4,10*
G04 Gerber Generator version 0.2*
G04 Scale: 100 percent, Rotated: No, Reflected: No *
G04 Dimensions in millimeters *
G04 leading zeros omitted , absolute positions ,3 integer and 3 decimal *
%FSLAX33Y33*%
%MOMM*%
G90*
D02*

%ADD23C,1.524000*%
%ADD32C,1.473200*%
%ADD33C,1.803197*%
%ADD34C,2.203196*%
%ADD35C,1.403096*%
%ADD38C,1.981200*%
%ADD39C,1.727200*%

%LPD*%
G54D32*
G01X53919Y37832D02*
G01X54935Y37832D01*
G01X53919Y35292D02*
G01X54935Y35292D01*
G01X53919Y32752D02*
G01X54935Y32752D01*
G01X53919Y30212D02*
G01X54935Y30212D01*
G01X53919Y27672D02*
G01X54935Y27672D01*
G01X53919Y25132D02*
G01X54935Y25132D01*
G01X53919Y22592D02*
G01X54935Y22592D01*
G01X53919Y20052D02*
G01X54935Y20052D01*
G01X53919Y17512D02*
G01X54935Y17512D01*
G01X53919Y14972D02*
G01X54935Y14972D01*
G01X53919Y12432D02*
G01X54935Y12432D01*
G01X53919Y9892D02*
G01X54935Y9892D01*
G01X66619Y26402D02*
G01X67635Y26402D01*
G01X66619Y28942D02*
G01X67635Y28942D01*
G01X69159Y9892D02*
G01X70175Y9892D01*
G01X69159Y12432D02*
G01X70175Y12432D01*
G01X69159Y14972D02*
G01X70175Y14972D01*
G01X69159Y17512D02*
G01X70175Y17512D01*
G01X69159Y20052D02*
G01X70175Y20052D01*
G01X69159Y22592D02*
G01X70175Y22592D01*
G01X69159Y25132D02*
G01X70175Y25132D01*
G01X69159Y27672D02*
G01X70175Y27672D01*
G01X69159Y30212D02*
G01X70175Y30212D01*
G01X69159Y32752D02*
G01X70175Y32752D01*
G01X69159Y35292D02*
G01X70175Y35292D01*
G01X55697Y40880D02*
G01X55697Y39864D01*
G01X58237Y40880D02*
G01X58237Y39864D01*
G01X60777Y40880D02*
G01X60777Y39864D01*
G01X63317Y40880D02*
G01X63317Y39864D01*
G01X65857Y40880D02*
G01X65857Y39864D01*
G01X68397Y40880D02*
G01X68397Y39864D01*
G01X67127Y10400D02*
G01X67127Y9384D01*
G01X64587Y10400D02*
G01X64587Y9384D01*
G01X62047Y10400D02*
G01X62047Y9384D01*
G01X69159Y37832D02*
G01X70175Y37832D01*
G54D23*
G01X31447Y3556D02*
G01X31447Y4877D01*
G01X36527Y3556D02*
G01X36527Y4877D01*
G01X33987Y3556D02*
G01X33987Y4877D01*
G01X23319Y3556D02*
G01X23319Y4877D01*
G01X28399Y3556D02*
G01X28399Y4877D01*
G01X25859Y3556D02*
G01X25859Y4877D01*
G01X27891Y9525D02*
G01X27891Y10846D01*
G01X32971Y9525D02*
G01X32971Y10846D01*
G01X30431Y9525D02*
G01X30431Y10846D01*
G54D33*
G01X12261Y27474D02*
G01X11361Y27474D01*
G01X12261Y25475D02*
G01X11361Y25475D01*
G01X12261Y23473D02*
G01X11361Y23473D01*
G01X17259Y27474D02*
G01X16359Y27474D01*
G01X17259Y25475D02*
G01X16359Y25475D01*
G01X17259Y23473D02*
G01X16359Y23473D01*
G54D34*
G01X40386Y3217D03*
G01X40386Y13377D03*
G01X43561Y3217D03*
G01X43561Y13377D03*
G01X46609Y3344D03*
G01X46609Y13504D03*
G01X74549Y39920D03*
G01X74549Y29760D03*
G54D35*
G01X78867Y35348D03*
G01X81407Y35348D03*
G36*
G01X40538Y18380D02*
G01X40538Y19854D01*
G01X43281Y19854D01*
G01X43281Y18380D01*
G01X40538Y18380D01*
G37*
G36*
G01X40728Y20422D02*
G01X40728Y21825D01*
G01X43091Y21825D01*
G01X43091Y20422D01*
G01X40728Y20422D01*
G37*
G36*
G01X40728Y22429D02*
G01X40728Y23831D01*
G01X43091Y23831D01*
G01X43091Y22429D01*
G01X40728Y22429D01*
G37*
G36*
G01X40728Y24486D02*
G01X40728Y25889D01*
G01X43091Y25889D01*
G01X43091Y24486D01*
G01X40728Y24486D01*
G37*
G54D38*
G01X44831Y40428D03*
G01X44831Y37888D03*
G01X44831Y35348D03*
G01X44831Y32808D03*
G01X75057Y10075D03*
G01X77597Y10075D03*
G01X80137Y10075D03*
G01X82677Y10075D03*
G01X75057Y17822D03*
G01X77597Y17822D03*
G01X80137Y17822D03*
G01X82677Y17822D03*
G01X75057Y25442D03*
G01X77597Y25442D03*
G01X80137Y25442D03*
G01X82677Y25442D03*
G54D39*
G01X68326Y4487D03*
G01X65786Y4487D03*
G01X63246Y4487D03*
G01X60706Y4487D03*
G01X58166Y4487D03*
G01X55626Y4487D03*
G01X18161Y40047D03*
G01X18161Y37507D03*
G01X18161Y34967D03*
G01X18161Y32427D03*
G01X35814Y40047D03*
G01X35814Y37507D03*
G01X35814Y34967D03*
G01X35814Y32427D03*
G01X5842Y26458D03*
G01X5842Y23918D03*
G36*
G01X19075Y17212D02*
G01X19075Y18939D01*
G01X20802Y18939D01*
G01X20802Y17212D01*
G01X19075Y17212D01*
G37*
G36*
G01X19075Y14672D02*
G01X19075Y16399D01*
G01X20802Y16399D01*
G01X20802Y14672D01*
G01X19075Y14672D01*
G37*
G36*
G01X19075Y12132D02*
G01X19075Y13859D01*
G01X20802Y13859D01*
G01X20802Y12132D01*
G01X19075Y12132D01*
G37*
G36*
G01X19075Y9592D02*
G01X19075Y11319D01*
G01X20802Y11319D01*
G01X20802Y9592D01*
G01X19075Y9592D01*
G37*
G36*
G01X19075Y7052D02*
G01X19075Y8779D01*
G01X20802Y8779D01*
G01X20802Y7052D01*
G01X19075Y7052D01*
G37*
G36*
G01X19075Y4512D02*
G01X19075Y6239D01*
G01X20802Y6239D01*
G01X20802Y4512D01*
G01X19075Y4512D01*
G37*
M00*
M02*
