;Layer: Drill PTH
;EasyEDA v6.4.7, 2020-11-10T19:46:02+00:00
;68ef014cab984e83be15227dbec4fbb5,fc2761ce2fcb42ad9aa58f7a23a2c2a4,10
;Gerber Generator version 0.2
M48
METRIC,LZ,000.000
;Holesize 1 = 0.600 METRIC
T01C0.600
;Holesize 2 = 0.701 METRIC
T02C0.701
;Holesize 3 = 0.798 METRIC
T03C0.798
;Holesize 4 = 0.813 METRIC
T04C0.813
;Holesize 5 = 0.915 METRIC
T05C0.915
;Holesize 6 = 1.021 METRIC
T06C1.021
%
G05
G90
T01
X+011811Y+027474
X+011811Y+025475
X+011811Y+023473
X+016809Y+027474
X+016809Y+025475
X+016809Y+023473
T02
X+040386Y+003217
X+040386Y+013377
X+043561Y+003217
X+043561Y+013377
X+046609Y+003344
X+046609Y+013504
X+074549Y+039920
X+074549Y+029760
X+078867Y+035348
X+081407Y+035348
T03
X+041910Y+019117
X+041910Y+021124
X+041910Y+023130
X+041910Y+025188
T04
X+031447Y+004214G85X+031447Y+004219
X+036527Y+004214G85X+036527Y+004219
X+033987Y+004214G85X+033987Y+004219
X+023319Y+004214G85X+023319Y+004219
X+028399Y+004214G85X+028399Y+004219
X+025859Y+004214G85X+025859Y+004219
X+027891Y+010183G85X+027891Y+010188
X+032971Y+010183G85X+032971Y+010188
X+030431Y+010183G85X+030431Y+010188
T05
X+054427Y+037832
X+054427Y+035292
X+054427Y+032752
X+054427Y+030212
X+054427Y+027672
X+054427Y+025132
X+054427Y+022592
X+054427Y+020052
X+054427Y+017512
X+054427Y+014972
X+054427Y+012432
X+054427Y+009892
X+067127Y+026402
X+067127Y+028942
X+069667Y+009892
X+069667Y+012432
X+069667Y+014972
X+069667Y+017512
X+069667Y+020052
X+069667Y+022592
X+069667Y+025132
X+069667Y+027672
X+069667Y+030212
X+069667Y+032752
X+069667Y+035292
X+055697Y+040372
X+058237Y+040372
X+060777Y+040372
X+063317Y+040372
X+065857Y+040372
X+068397Y+040372
X+067127Y+009892
X+064587Y+009892
X+062047Y+009892
X+069667Y+037832
X+044831Y+040428
X+044831Y+037888
X+044831Y+035348
X+044831Y+032808
X+075057Y+010075
X+077597Y+010075
X+080137Y+010075
X+082677Y+010075
X+075057Y+017822
X+077597Y+017822
X+080137Y+017822
X+082677Y+017822
X+075057Y+025442
X+077597Y+025442
X+080137Y+025442
X+082677Y+025442
X+018161Y+040047
X+018161Y+037507
X+018161Y+034967
X+018161Y+032427
X+035814Y+040047
X+035814Y+037507
X+035814Y+034967
X+035814Y+032427
X+005842Y+026458
X+005842Y+023918
X+019939Y+018076
X+019939Y+015536
X+019939Y+012996
X+019939Y+010456
X+019939Y+007916
X+019939Y+005376
T06
X+068326Y+004487
X+065786Y+004487
X+063246Y+004487
X+060706Y+004487
X+058166Y+004487
X+055626Y+004487
M30
